<?xml version="1.0" encoding="UTF-8"?>
<svg version="1.1" xmlns="http://www.w3.org/2000/svg" width="475" height="439">
<path d="M0 0 C2.58329274 1.25847294 4.89874869 2.79125352 7.25 4.4375 C8.22235596 5.102052 8.22235596 5.102052 9.21435547 5.7800293 C17.23243845 11.38201505 24.11793889 18.0735385 31 25 C31.61101562 25.60199219 32.22203125 26.20398438 32.8515625 26.82421875 C45.02350168 39.61279802 53.0213273 56.18476628 58.1875 72.875 C58.56322144 74.07842041 58.56322144 74.07842041 58.9465332 75.30615234 C62.39308732 86.94395842 63.32696149 98.40421908 63.25 110.5 C63.25773438 111.71558594 63.26546875 112.93117188 63.2734375 114.18359375 C63.24980886 125.25361128 62.05865351 135.90574346 58.5625 146.4375 C58.25602539 147.41879883 58.25602539 147.41879883 57.94335938 148.41992188 C54.58103617 158.88397447 54.58103617 158.88397447 50.875 161.5 C43.80217319 162.73005684 36.79741903 159.30898007 30.5625 156.25 C29.45890137 155.71765747 29.45890137 155.71765747 28.33300781 155.17456055 C11.11457563 146.76040589 11.11457563 146.76040589 7 141 C6.30863608 136.16045254 6.27020511 134.30984414 8.65625 130.02734375 C11.91034726 125.82413478 15.86583411 123.31651369 20.22265625 120.34375 C24.216122 116.97373671 25.77060763 113.76959827 26.4375 108.625 C25.71430128 102.63278203 23.52699707 98.59971122 19.375 94.25 C13.02627366 89.52051952 5.85293207 87.09884386 -2 88 C-7.22213511 89.65367612 -10.14069233 91.31171087 -13 96 C-13.55050808 99.28934138 -13.5600624 102.54523616 -13.5625 105.875 C-13.59976818 113.0837312 -13.71514081 119.228495 -18.6875 124.9375 C-23.26342627 127.03995261 -27.29092883 126.62785438 -31.89819336 124.93530273 C-35.18380153 123.45020273 -38.4061208 121.87455171 -41.625 120.25 C-42.73101562 119.71117187 -43.83703125 119.17234375 -44.9765625 118.6171875 C-48.0098759 117.12240566 -51.00927217 115.57793002 -54 114 C-54.68416992 113.65775391 -55.36833984 113.31550781 -56.07324219 112.96289062 C-57.7109375 112.046875 -57.7109375 112.046875 -60 110 C-61.40352175 104.46055946 -60.74956643 101.34868114 -58.2890625 96.26171875 C-58.00147064 95.65487747 -57.71387878 95.04803619 -57.41757202 94.42280579 C-56.50296746 92.50272417 -55.56462156 90.59544306 -54.625 88.6875 C-54.00099648 87.38814064 -53.37858441 86.08801574 -52.7578125 84.78710938 C-50.86972522 80.84268909 -48.95569768 76.91139536 -47 73 C-46.48447213 69.13354098 -46.61198846 67.53273358 -48.9375 64.33984375 C-53.1137653 61.14904921 -56.25935721 61.32748629 -61.375 61.375 C-69.1475435 61.375 -74.58904172 60.80456569 -80.8125 55.6875 C-84.61254509 51.01887317 -85.48295268 46.38093566 -85.3046875 40.48828125 C-84.18092043 31.31085016 -80.01143436 23.97317809 -73 18 C-68.17213963 14.93378493 -63.75418272 14.70973298 -58.17578125 15.3828125 C-52.5085045 16.99040626 -49.81129151 20.2212415 -46.5 24.9375 C-41.59143938 32.09498038 -41.59143938 32.09498038 -34 35.5625 C-29.93687251 34.80066359 -28.70878608 33.08250212 -26 30 C-24.16547339 26.90181614 -24.16547339 26.90181614 -22.625 23.4921875 C-22.02620565 22.24601494 -21.4272423 20.99992358 -20.828125 19.75390625 C-19.90885062 17.80955236 -18.99442046 15.86305871 -18.08398438 13.91455078 C-17.19305578 12.01775045 -16.28493769 10.1299251 -15.375 8.2421875 C-14.84648437 7.1166748 -14.31796875 5.99116211 -13.7734375 4.83154297 C-10.15879834 -0.939738 -6.38907662 -1.69324241 0 0 Z " fill="#FDC802" transform="translate(307,16)"/>
<path d="M0 0 C3.67329848 3.30596863 4.41159941 5.08422646 4.79052734 10.08129883 C4.8171875 11.62305344 4.8315856 13.16505229 4.8359375 14.70703125 C4.8459227 15.93881355 4.8459227 15.93881355 4.85610962 17.19548035 C4.86622107 18.93116013 4.8709271 20.66687868 4.87060547 22.40258789 C4.87496802 25.04314166 4.91127199 27.68200858 4.94921875 30.32226562 C4.95508958 32.01301515 4.95905719 33.70377257 4.9609375 35.39453125 C4.97530853 36.17705765 4.98967957 36.95958405 5.00448608 37.76582336 C4.95828537 43.37716872 3.68566876 46.61391846 0.5 51.25 C-2.87826578 54.24217827 -6.2677867 54.92942425 -10.7734375 54.81640625 C-15.01277426 53.93574174 -18.61175691 51.854628 -22.39599609 49.83300781 C-26.99587105 47.40331098 -30.29661769 46.0607861 -35.5 46.25 C-39.29064706 47.85049543 -41.29518934 49.829564 -43.5 53.25 C-45.59665976 60.31727752 -46.28581207 67.31389648 -43.5 74.25 C-41.32453757 77.65822448 -39.39340469 79.99036907 -35.5 81.25 C-29.84956672 81.86417753 -26.48368636 80.00510962 -21.70703125 77.1953125 C-16.00443469 73.86373157 -11.20656457 72.17394673 -4.5 73.25 C0.08405732 75.19640529 2.0648298 77.24764167 4.06445312 81.85351562 C5.61252317 86.11694673 5.97112681 89.9622587 6.01171875 94.46875 C6.02835571 95.12907227 6.04499268 95.78939453 6.06213379 96.46972656 C6.11922171 98.89617268 6.15200686 101.32314195 6.1875 103.75 C6.290625 109.195 6.39375 114.64 6.5 120.25 C18.05 120.25 29.6 120.25 41.5 120.25 C41.5 113.84514625 40.85333472 111.28728518 38 106.0625 C34.33571647 98.78647397 32.67493552 92.22904559 35.13671875 84.1640625 C37.89708438 78.44348575 43.20535738 74.66123178 48.92578125 72.2109375 C58.19953474 69.12449388 66.46379279 69.50984801 75.5 73.25 C81.45903712 76.45696273 85.32569442 80.72708326 87.5 87.25 C88.7204552 96.25665037 86.12323829 102.59156095 81.5 110.25 C81.17 110.58 80.84 110.91 80.5 111.25 C80.33946185 113.12321948 80.33946185 113.12321948 80.375 115.25 C80.37242187 115.971875 80.36984375 116.69375 80.3671875 117.4375 C80.30304724 119.27089415 80.30304724 119.27089415 81.5 120.25 C84.39691378 120.37328105 87.27364405 120.43616191 90.171875 120.4609375 C91.96875896 120.48901575 93.76563383 120.51768028 95.5625 120.546875 C98.40429337 120.58808885 101.24591894 120.62496208 104.08789062 120.65136719 C106.82457892 120.67902014 109.56048792 120.72490398 112.296875 120.7734375 C113.14288269 120.77669037 113.98889038 120.77994324 114.86053467 120.78329468 C119.58990267 120.88157176 122.60281287 121.29109388 126.5 124.25 C127.36625 124.8378125 127.36625 124.8378125 128.25 125.4375 C131.95641277 130.81179852 130.347618 138.69979607 129.375 144.75 C129.23594238 145.6258374 129.09688477 146.5016748 128.95361328 147.40405273 C125.95167097 165.17820094 118.73907717 180.88581914 110.01342773 196.56347656 C96.44114591 221.14086188 92.52050671 248.28147736 92.39453125 276.01953125 C92.37964611 278.16601624 92.36467079 280.31250061 92.34960938 282.45898438 C92.32671198 285.77467553 92.31259971 289.08926815 92.32495117 292.4050293 C92.33378761 295.65230099 92.30486336 298.89747744 92.26953125 302.14453125 C92.28176224 303.1259761 92.29399323 304.10742096 92.30659485 305.11860657 C92.20007227 311.21501363 90.93783205 315.20208548 87.56669617 320.28105164 C80.97825812 326.55787864 74.00125426 326.8341322 65.24414062 326.78344727 C64.03662643 326.79206284 62.82911224 326.80067841 61.58500671 326.80955505 C58.29352069 326.82828912 55.00267399 326.82913726 51.71116447 326.82023358 C48.95525536 326.81510063 46.19943526 326.82243471 43.44353533 326.82970566 C36.93900198 326.8466674 30.43470345 326.84317602 23.93017578 326.82641602 C17.23617627 326.8094901 10.54282868 326.82534337 3.84890032 326.8576389 C-1.91529372 326.88438763 -7.67928549 326.89159689 -13.44353533 326.88312382 C-16.87890128 326.87821085 -20.31387506 326.88032098 -23.74919128 326.90091133 C-27.58132269 326.91835751 -31.41206475 326.90381105 -35.24414062 326.88110352 C-36.37165237 326.89279572 -37.49916412 326.90448792 -38.6608429 326.91653442 C-45.56781488 326.83339124 -50.16232057 325.75672983 -55.5 321.25 C-60.97077861 315.63525354 -61.78627834 309.67292429 -61.80859375 302.078125 C-61.83372416 300.51171455 -61.85912255 298.94530839 -61.88476562 297.37890625 C-61.91363669 294.9275803 -61.93767979 292.47632797 -61.95629883 290.02490234 C-61.97786079 287.64645239 -62.01725322 285.26880104 -62.05859375 282.890625 C-62.05876747 281.78596893 -62.05876747 281.78596893 -62.0589447 280.65899658 C-62.06943127 278.37506358 -62.06943127 278.37506358 -62.5 275.25 C-65.89270962 272.98819359 -67.11432495 273.00020391 -71.09375 272.9765625 C-72.2075 272.9559375 -73.32125 272.9353125 -74.46875 272.9140625 C-76.79159608 272.8883673 -79.1145358 272.86993393 -81.4375 272.859375 C-93.89192023 272.60228834 -103.02164751 269.14355241 -112.1484375 260.73046875 C-120.46925235 252.05063397 -122.04158067 242.15959164 -121.82568359 230.61230469 C-121.57977247 222.99912643 -120.9264692 215.42364803 -120.15234375 207.84765625 C-119.61664908 201.74545456 -119.61664908 201.74545456 -121.8984375 196.30859375 C-124.01350514 194.65538782 -126.1004503 193.4554076 -128.5 192.25 C-141.09345595 185.71941831 -141.09345595 185.71941831 -143.5 180.25 C-146.48681259 170.41108795 -140.31118258 159.85865821 -136.2734375 150.9453125 C-129.42355616 135.78898593 -125.019454 122.56639971 -123.75683594 105.81103516 C-123.11938923 99.4547462 -121.29671824 93.36161688 -119.5 87.25 C-119.23832031 86.26902344 -118.97664063 85.28804688 -118.70703125 84.27734375 C-110.15693902 55.09463458 -87.44835218 28.73971301 -61.06396484 14.16943359 C-51.12363058 8.81502035 -41.12445958 4.57575048 -30.25 1.5 C-29.50516357 1.28899658 -28.76032715 1.07799316 -27.99291992 0.8605957 C-19.26545551 -1.50392134 -8.37539613 -4.18769807 0 0 Z M-70.5 31.25 C-71.05961426 31.7042334 -71.61922852 32.1584668 -72.19580078 32.62646484 C-96.64109703 52.6223607 -112.50766981 79.61097053 -116.5 111.25 C-116.59307185 112.60329733 -116.67241834 113.95760587 -116.73828125 115.3125 C-117.50948338 129.08350856 -122.71412011 140.60619046 -128.16845703 153.15429688 C-129.94094255 157.27514697 -131.5974846 161.43085697 -133.1875 165.625 C-133.64511719 166.80835938 -134.10273438 167.99171875 -134.57421875 169.2109375 C-135.48395388 172.1973254 -136.01946219 174.17437237 -135.5 177.25 C-132.62495211 181.04506322 -128.62504743 183.04076958 -124.5 185.25 C-119.42904937 187.96582293 -115.12527069 190.36451943 -112.23046875 195.50390625 C-111.26353147 199.13896992 -111.49901157 202.48658331 -111.8125 206.1875 C-111.86591553 206.93531738 -111.91933105 207.68313477 -111.97436523 208.45361328 C-112.13818239 210.72011148 -112.31723018 212.98495968 -112.5 215.25 C-112.86069291 219.91527799 -113.20458079 224.58010402 -113.5 229.25 C-113.56703125 230.22710937 -113.6340625 231.20421875 -113.703125 232.2109375 C-114.04478341 240.92322696 -111.80141405 247.74603464 -106.3125 254.5625 C-98.84549184 262.46121956 -90.99497595 264.15853088 -80.5234375 264.4609375 C-77.17707456 264.54858034 -73.83146123 264.62570224 -70.484375 264.6796875 C-69.40414062 264.710625 -68.32390625 264.7415625 -67.2109375 264.7734375 C-66.23431152 264.79325684 -65.25768555 264.81307617 -64.25146484 264.83349609 C-60.9215907 265.3375569 -59.14308498 266.15735006 -56.5 268.25 C-53.40196069 272.87613484 -53.08368187 277.08283611 -53.12890625 282.5 C-53.11152937 284.09375221 -53.09394493 285.68750216 -53.07617188 287.28125 C-53.06609869 289.76957289 -53.06250531 292.25775129 -53.06420898 294.74609375 C-53.06062723 297.16449184 -53.0332523 299.58179744 -53.00390625 302 C-53.01208878 302.73766602 -53.0202713 303.47533203 -53.02870178 304.23535156 C-52.955114 309.37504987 -51.82278186 312.34179129 -48.5 316.25 C-45.44663368 318.16587029 -43.10971866 318.50085951 -39.53492737 318.50396729 C-38.53537018 318.50960693 -37.53581299 318.51524658 -36.50596619 318.52105713 C-35.41546463 318.51700867 -34.32496307 318.51296021 -33.20141602 318.50878906 C-31.47157471 318.51404602 -31.47157471 318.51404602 -29.70678711 318.51940918 C-25.88909918 318.52822209 -22.07159611 318.52237837 -18.25390625 318.515625 C-15.60358957 318.51697187 -12.95327853 318.51890947 -10.30296326 318.52142334 C-4.7454935 318.52506113 0.81192308 318.52026934 6.36938477 318.51074219 C12.78936893 318.49986332 19.209226 318.50337979 25.62920707 318.514395 C31.14525483 318.52347961 36.66126438 318.52474726 42.1773172 318.51951766 C45.47000154 318.51640371 48.76261324 318.51676083 52.05529594 318.52259064 C55.72762537 318.52766499 59.39971028 318.51993222 63.07202148 318.50878906 C64.70473747 318.51486176 64.70473747 318.51486176 66.37043762 318.52105713 C67.87400314 318.51259766 67.87400314 318.51259766 69.40794373 318.50396729 C70.27568641 318.50321323 71.14342909 318.50245918 72.037467 318.50168228 C74.87287805 318.21189014 76.95454047 317.52786492 79.5 316.25 C84.04315742 310.42381676 84.0744815 305.21101945 84.0390625 298.0078125 C84.05085541 296.92603729 84.06264832 295.84426208 84.07479858 294.72970581 C84.10996537 291.27799123 84.11920664 287.82687862 84.125 284.375 C84.2138323 265.98148833 84.51655102 248.1749391 88.75 230.1875 C89.0742395 228.79700439 89.0742395 228.79700439 89.4050293 227.37841797 C93.32268747 211.20219089 100.10610089 196.3594521 108.5625 182.0625 C116.69852564 167.30206003 122.10244631 148.13675256 121.5 131.25 C119.51200057 129.26200057 115.5695941 130.06545596 112.84375 130.0390625 C111.24738618 130.01095984 109.65103217 129.98229522 108.0546875 129.953125 C105.53809238 129.91210948 103.02167374 129.87522904 100.50488281 129.84863281 C78.84992238 129.59992238 78.84992238 129.59992238 73.5 124.25 C71.42163729 120.09327459 71.12813607 116.86111275 71.5 112.25 C72.98182129 108.03194435 74.96497739 104.14807366 77.25 100.3125 C79.0409264 95.92473033 79.32771598 91.9195675 78.5 87.25 C75.57453031 83.20596838 72.19945023 80.87344644 67.5 79.25 C58.71434005 78.35675045 52.79844219 79.23194484 45.5625 84.3125 C43.05414353 87.8850077 42.67899508 89.93102547 42.859375 94.234375 C43.8182152 98.74793985 45.80240241 102.68442823 48.00878906 106.72021484 C50.51722147 111.472967 50.9765633 114.86763799 50.5 120.25 C48.48497111 124.00212276 47.04533858 125.88644095 43.5 128.25 C35.9415389 129.77872898 27.92351189 129.43312014 20.25 129.4375 C18.53296875 129.45586914 18.53296875 129.45586914 16.78125 129.47460938 C15.67265625 129.47654297 14.5640625 129.47847656 13.421875 129.48046875 C11.93059082 129.48663208 11.93059082 129.48663208 10.40917969 129.49291992 C7.17208658 129.22261884 4.53685008 128.37973981 1.5 127.25 C0.51 126.92 -0.48 126.59 -1.5 126.25 C-3.12318136 122.50763255 -2.67204754 118.14252015 -2.7109375 114.125 C-2.73899423 112.51561462 -2.76765861 110.90623974 -2.796875 109.296875 C-2.83818851 106.76888188 -2.87509262 104.24108743 -2.90136719 101.71289062 C-2.92897214 99.26652056 -2.97482484 96.82103074 -3.0234375 94.375 C-3.0283168 93.24360596 -3.0283168 93.24360596 -3.03329468 92.08935547 C-3.10799025 88.89919614 -3.31125048 86.59482367 -4.85668945 83.77148438 C-6.4755059 81.99423187 -6.4755059 81.99423187 -9.26953125 81.78125 C-13.19945449 82.35149279 -15.75020881 83.77463539 -19.1875 85.75 C-25.37736888 89.0680519 -30.49800999 90.63488726 -37.5 89.25 C-44.80077804 86.98725886 -48.77024138 82.5305767 -52.3125 75.8125 C-55.29869148 66.87108758 -54.51403413 56.7578732 -50.5703125 48.30078125 C-50.21710938 47.62402344 -49.86390625 46.94726562 -49.5 46.25 C-49.17515625 45.52425781 -48.8503125 44.79851562 -48.515625 44.05078125 C-47.05079721 41.4535289 -45.26973585 41.17324528 -42.5 40.25 C-41.90703125 39.90839844 -41.3140625 39.56679687 -40.703125 39.21484375 C-35.5115471 36.94122719 -28.62849541 37.42466504 -23.4375 39.4375 C-22.468125 40.035625 -21.49875 40.63375 -20.5 41.25 C-18.6636127 42.24197707 -16.80730827 43.19755521 -14.9375 44.125 C-14.02871094 44.59679687 -13.11992187 45.06859375 -12.18359375 45.5546875 C-9.43090036 46.56582361 -9.43090036 46.56582361 -6.72265625 45.0078125 C-4.41890364 43.44125207 -4.41890364 43.44125207 -3.5 41.25 C-3.26480423 36.70038721 -3.27160826 32.14701347 -3.25976562 27.59204102 C-3.2500521 25.32466051 -3.21902607 23.05818361 -3.1875 20.79101562 C-3.18097058 19.35156789 -3.17571986 17.91211366 -3.171875 16.47265625 C-3.15785645 14.50437866 -3.15785645 14.50437866 -3.14355469 12.49633789 C-3.21852114 9.2824765 -3.21852114 9.2824765 -4.95800781 7.29858398 C-19.29156841 -2.44850955 -59.60756945 22.40467421 -70.5 31.25 Z " fill="#242021" transform="translate(225.5,80.75)"/>
<path d="M0 0 C2.9375 0.75 2.9375 0.75 6 2 C7.44439913 5.9234026 7.22628774 10.13076293 7.31640625 14.265625 C7.33718735 15.05902283 7.35796844 15.85242065 7.37937927 16.66986084 C7.44459973 19.19648844 7.50363144 21.72321721 7.5625 24.25 C7.6057114 25.96615616 7.64932653 27.68230222 7.69335938 29.3984375 C7.80025283 33.59885546 7.90159729 37.79937489 8 42 C9.06959961 41.99476318 10.13919922 41.98952637 11.24121094 41.98413086 C15.2145097 41.96601285 19.18780481 41.9545431 23.16113281 41.94506836 C24.87988906 41.9400437 26.59864105 41.9332229 28.31738281 41.92456055 C30.78972426 41.9124132 33.26200912 41.90675297 35.734375 41.90234375 C36.50118591 41.89718246 37.26799683 41.89202118 38.05804443 41.88670349 C41.54849615 41.88633755 44.64274473 42.06247262 48 43 C47 45 46 47 45 49 C37.52671969 50.67376608 29.36221305 50.18315513 21.75 50.1875 C20.6053125 50.19974609 19.460625 50.21199219 18.28125 50.22460938 C17.17265625 50.22654297 16.0640625 50.22847656 14.921875 50.23046875 C13.92768555 50.23457764 12.93349609 50.23868652 11.90917969 50.24291992 C7.55764125 49.87956135 4.26819497 48.86675386 0.65380859 46.39648438 C-1.72563989 42.94849702 -1.53573184 39.69566848 -1.4609375 35.65625 C-1.46002106 34.85014282 -1.45910461 34.04403564 -1.4581604 33.21350098 C-1.45212883 31.51222837 -1.436396 29.81096617 -1.41162109 28.10986328 C-1.37512686 25.50904106 -1.37060178 22.90964525 -1.37109375 20.30859375 C-1.36126139 18.65363355 -1.34960387 16.99868298 -1.3359375 15.34375 C-1.33259903 14.17954529 -1.33259903 14.17954529 -1.32919312 12.99182129 C-1.2607169 9.08732573 -0.87430984 6.40710985 1 3 C0.67 2.01 0.34 1.02 0 0 Z " fill="#2F2A2D" transform="translate(224,161)"/>
<path d="M0 0 C4.06236402 -0.08729047 8.12448589 -0.14048992 12.1875 -0.1875 C13.91323242 -0.22520508 13.91323242 -0.22520508 15.67382812 -0.26367188 C17.34155273 -0.27817383 17.34155273 -0.27817383 19.04296875 -0.29296875 C20.06414795 -0.3086792 21.08532715 -0.32438965 22.13745117 -0.34057617 C25.4759371 0.05662535 27.30468285 1.02182606 30 3 C33.51110103 8.14125508 34.15218926 11.76773838 34.2109375 17.89453125 C34.23901186 19.50586943 34.26767637 21.11719742 34.296875 22.72851562 C34.33809386 25.2696091 34.37497937 27.81051345 34.40136719 30.35180664 C34.42903997 32.80394876 34.47491607 35.25522474 34.5234375 37.70703125 C34.52669037 38.46240677 34.52994324 39.21778229 34.53329468 39.99604797 C34.63782079 44.50048812 35.24247647 47.40499705 38 51 C40.06954847 52.78344178 40.06954847 52.78344178 42 54 C41.67 54.33 41.34 54.66 41 55 C43.31 55.66 45.62 56.32 48 57 C47.01 57.66 46.02 58.32 45 59 C44.67 59.99 44.34 60.98 44 62 C37.28771675 61.46301734 33.37356045 59.50542491 28.75 54.625 C25.19226169 49.28839253 24.70984309 44.10289655 24.69140625 37.828125 C24.66627584 36.26171455 24.64087745 34.69530839 24.61523438 33.12890625 C24.58636331 30.6775803 24.56232021 28.22632797 24.54370117 25.77490234 C24.52213921 23.39645239 24.48274678 21.01880104 24.44140625 18.640625 C24.44129044 17.90418762 24.44117462 17.16775024 24.4410553 16.40899658 C24.43056873 14.12506358 24.43056873 14.12506358 24 11 C20.56238884 8.70825923 19.07928385 8.70475953 15.01953125 8.5859375 C13.85615234 8.54726563 12.69277344 8.50859375 11.49414062 8.46875 C9.67172852 8.42234375 9.67172852 8.42234375 7.8125 8.375 C6.58595703 8.33632813 5.35941406 8.29765625 4.09570312 8.2578125 C1.06395344 8.16343897 -1.96778841 8.07785451 -5 8 C-5 7.67 -5 7.34 -5 7 C4.24 7 13.48 7 23 7 C22.34 6.67 21.68 6.34 21 6 C21 5.34 21 4.68 21 4 C20.14728516 4.12568359 20.14728516 4.12568359 19.27734375 4.25390625 C14.23364455 4.91910197 9.99705931 4.9568837 5 4 C5 3.67 5 3.34 5 3 C6.93166016 3.01740234 6.93166016 3.01740234 8.90234375 3.03515625 C10.58072772 3.0445327 12.25911326 3.05363305 13.9375 3.0625 C14.78763672 3.07087891 15.63777344 3.07925781 16.51367188 3.08789062 C17.32255859 3.09111328 18.13144531 3.09433594 18.96484375 3.09765625 C19.7137085 3.10289307 20.46257324 3.10812988 21.23413086 3.11352539 C23.02667739 3.19341752 23.02667739 3.19341752 24 2 C16.08 1.67 8.16 1.34 0 1 C0 0.67 0 0.34 0 0 Z " fill="#292427" transform="translate(139,345)"/>
<path d="M0 0 C5.07081218 -0.36076925 8.87602359 -0.5619882 13.5 1.75 C17.23544443 5.11189999 17.9332306 6.84065351 18.22705078 11.94238281 C18.22673555 13.52933211 18.21552087 15.11630435 18.1953125 16.703125 C18.1924826 17.54091492 18.18965271 18.37870483 18.18673706 19.24188232 C18.17556349 21.91140163 18.15046421 24.5805825 18.125 27.25 C18.11496654 29.06249515 18.10584133 30.87499556 18.09765625 32.6875 C18.0756334 37.12512993 18.04112304 41.56250763 18 46 C16.68 46.66 15.36 47.32 14 48 C13.67 47.34 13.34 46.68 13 46 C13.66 46 14.32 46 15 46 C15 45.34 15 44.68 15 44 C13.68 44 12.36 44 11 44 C11 33.11 11 22.22 11 11 C10.34 11 9.68 11 9 11 C10 9 10 9 12 7 C10.989375 7.165 9.97875 7.33 8.9375 7.5 C5.23737067 7.96985769 1.72392609 8.07599849 -2 8 C-2 7.34 -2 6.68 -2 6 C-2.9793879 4.97980427 -3.97895449 3.97850195 -5 3 C-5 2.67 -5 2.34 -5 2 C-3.35 2 -1.7 2 0 2 C0 1.34 0 0.68 0 0 Z " fill="#1D1B1D" transform="translate(212,79)"/>
<path d="M0 0 C0.33 0 0.66 0 1 0 C1.33 2.97 1.66 5.94 2 9 C2.66 6.69 3.32 4.38 4 2 C5.65 1.67 7.3 1.34 9 1 C8.99097656 1.54785156 8.98195313 2.09570312 8.97265625 2.66015625 C9.2279113 9.48545441 11.3602715 14.55715166 14.56079102 20.46899414 C17.02103748 25.21689405 17.46290966 28.64586422 17 34 C14.95899274 37.93622829 13.25014075 40.48209259 9 42 C9.66 40.35 10.32 38.7 11 37 C10.01 37 9.02 37 8 37 C5.2771606 36.93143208 2.55462859 36.85839461 -0.16796875 36.78125 C-0.96278152 36.75905396 -1.7575943 36.73685791 -2.57649231 36.71398926 C-5.113506 36.64305043 -7.65050298 36.57153232 -10.1875 36.5 C-11.90820206 36.45178475 -13.62890517 36.40360721 -15.34960938 36.35546875 C-19.56641864 36.23741666 -23.78321301 36.11884506 -28 36 C-28 35.67 -28 35.34 -28 35 C-10.675 34.505 -10.675 34.505 7 34 C7 27.59924069 6.35679391 25.03372764 3.5 19.8125 C0.06361049 13.10223585 -0.89088931 7.59377078 0 0 Z " fill="#2F2A2C" transform="translate(260,167)"/>
<path d="M0 0 C0.99 0 1.98 0 3 0 C5.15830483 8.92441919 6.49390959 29.2634432 1.58203125 37.328125 C0 39 0 39 -2 40 C-2.02505615 40.99854004 -2.0501123 41.99708008 -2.07592773 43.02587891 C-2.17048308 46.74963019 -2.270584 50.47321574 -2.37231445 54.19677734 C-2.41548205 55.80481067 -2.45716901 57.41288448 -2.49731445 59.02099609 C-2.55546006 61.33964205 -2.61902391 63.65808761 -2.68359375 65.9765625 C-2.70030624 66.68930328 -2.71701874 67.40204407 -2.73423767 68.13638306 C-2.85260564 72.17344506 -3.23768071 76.03376939 -4 80 C-4.33 80 -4.66 80 -5 80 C-5.07017123 72.19258915 -5.12314613 64.38525512 -5.15543652 56.5776062 C-5.17095099 52.95038546 -5.19192118 49.32338378 -5.22631836 45.69628906 C-5.53052298 12.73948163 -5.53052298 12.73948163 -2 2 C-1.34 1.34 -0.68 0.68 0 0 Z " fill="#2D2628" transform="translate(315,310)"/>
<path d="M0 0 C2.28125 2.77734375 2.28125 2.77734375 4.5 5.9375 C9.40856062 13.09498038 9.40856062 13.09498038 17 16.5625 C21.08699473 15.79618849 22.41776107 14.2103511 25 11 C26.79320824 7.83354526 26.79320824 7.83354526 28 5 C29.77633698 10.32901095 28.1095654 14.98870586 26 20 C24.06257659 20.02703381 22.12504521 20.04641125 20.1875 20.0625 C19.10855469 20.07410156 18.02960938 20.08570312 16.91796875 20.09765625 C14 20 14 20 11 19 C9.98648336 17.34151823 8.98879205 15.67334039 8 14 C5.62889393 11.44170135 3.22326285 9.17861028 0.5 7 C-2 5 -2 5 -4.1875 2.1875 C-7.39717901 -0.308917 -8.05561121 -0.27455022 -11.9375 0.0625 C-19.18934086 1.13736163 -19.18934086 1.13736163 -25.125 5.125 C-29.57057517 11.94154859 -31.73369287 16.7567448 -31 25 C-30.94457031 25.72832031 -30.88914063 26.45664062 -30.83203125 27.20703125 C-30.47448305 30.84322897 -29.95107459 33.87828066 -28 37 C-28.66 37 -29.32 37 -30 37 C-33.8087633 29.80755859 -35.22962299 24.30274914 -33.375 16.3046875 C-30.98054451 8.62960249 -26.91695248 2.12279822 -20.01953125 -2.2578125 C-13.14647246 -5.30335951 -6.03212849 -4.36227021 0 0 Z " fill="#EFC635" transform="translate(256,35)"/>
<path d="M0 0 C1.85625 0.0309375 1.85625 0.0309375 3.75 0.0625 C2.76 1.0525 1.77 2.0425 0.75 3.0625 C2.48713218 5.23391522 3.32096806 6.00322585 6.125 6.390625 C6.99125 6.36484375 7.8575 6.3390625 8.75 6.3125 C9.61625 6.29703125 10.4825 6.2815625 11.375 6.265625 C13.89823779 6.1432181 13.89823779 6.1432181 16.75 5.0625 C17.245 6.0525 17.245 6.0525 17.75 7.0625 C14.25338644 9.18544395 14.25338644 9.18544395 11.84472656 8.59716797 C11.1534668 8.42072754 10.46220703 8.24428711 9.75 8.0625 C6.95392638 8.34674815 4.26276606 8.70950875 1.5 9.1875 C0.71238281 9.31930664 -0.07523438 9.45111328 -0.88671875 9.58691406 C-7.20584781 10.71677434 -13.23784369 12.41867269 -19.29785156 14.52392578 C-20.93294848 15.0845908 -22.59021255 15.57980671 -24.25 16.0625 C-24.91 15.7325 -25.57 15.4025 -26.25 15.0625 C-24.25 12.0625 -24.25 12.0625 -21.25 11.0625 C-21.25 10.0725 -21.25 9.0825 -21.25 8.0625 C-22.24 8.0625 -23.23 8.0625 -24.25 8.0625 C-25.24 7.7325 -26.23 7.4025 -27.25 7.0625 C-24.16729306 6.08135373 -21.08372822 5.10293123 -18 4.125 C-17.12730469 3.84720703 -16.25460938 3.56941406 -15.35546875 3.28320312 C-14.51113281 3.01572266 -13.66679687 2.74824219 -12.796875 2.47265625 C-12.02182617 2.22652588 -11.24677734 1.98039551 -10.44824219 1.72680664 C-6.85721902 0.64160295 -3.76294869 -0.06271581 0 0 Z " fill="#2F282B" transform="translate(208.25,79.9375)"/>
<path d="M0 0 C2.475 0.99 2.475 0.99 5 2 C5.33 15.2 5.66 28.4 6 42 C4.35 41.67 2.7 41.34 1 41 C2.05270463 42.15811388 2.05270463 42.15811388 4 43 C4 43.66 4 44.32 4 45 C2.35 44.67 0.7 44.34 -1 44 C-1.04947953 38.80388779 -1.08575727 33.60791309 -1.10986328 28.41162109 C-1.11991384 26.64434418 -1.13355642 24.87708387 -1.15087891 23.10986328 C-1.17516885 20.56799215 -1.18649255 18.02634111 -1.1953125 15.484375 C-1.20563507 14.69569031 -1.21595764 13.90700562 -1.22659302 13.09442139 C-1.22740065 9.1356145 -0.92485638 6.44747364 1 3 C0.67 2.01 0.34 1.02 0 0 Z " fill="#1B181A" transform="translate(224,161)"/>
<path d="M0 0 C2.97 0.495 2.97 0.495 6 1 C6 1.66 6 2.32 6 3 C7.7015625 2.85691406 7.7015625 2.85691406 9.4375 2.7109375 C10.95828374 2.59828685 12.47912015 2.48634561 14 2.375 C15.11568359 2.27832031 15.11568359 2.27832031 16.25390625 2.1796875 C21.59487467 1.80814187 25.9153678 2.24080806 31 4 C31.33 4.99 31.66 5.98 32 7 C32.99 7.33 33.98 7.66 35 8 C37 11 37 11 36.7578125 13.55859375 C36.54898438 14.50863281 36.34015625 15.45867187 36.125 16.4375 C35.39865762 19.81637122 35 22.50770327 35 26 C35.66 26.33 36.32 26.66 37 27 C36.505 29.475 36.505 29.475 36 32 C35.01 31.67 34.02 31.34 33 31 C33.495 29.515 33.495 29.515 34 28 C33.236875 28.804375 32.47375 29.60875 31.6875 30.4375 C29 33 29 33 26 34 C25.26480478 35.97583715 24.60927518 37.98177598 24 40 C23.46375 40.928125 22.9275 41.85625 22.375 42.8125 C20.57748354 46.97946998 20.73185339 50.53088987 21 55 C20.34 54.67 19.68 54.34 19 54 C17.60028322 48.46522563 18.25441617 45.34044733 20.7109375 40.26171875 C21.14232529 39.35145683 21.14232529 39.35145683 21.58242798 38.42280579 C22.49703254 36.50272417 23.43537844 34.59544306 24.375 32.6875 C24.99900352 31.38814064 25.62141559 30.08801574 26.2421875 28.78710938 C28.13027478 24.84268909 30.04430232 20.91139536 32 17 C32.51552787 13.13354098 32.38801154 11.53273358 30.0625 8.33984375 C25.8862347 5.14904921 22.74064279 5.32748629 17.625 5.375 C11.31188198 5.375 6.62432122 5.04217902 1 2 C0.67 1.34 0.34 0.68 0 0 Z " fill="#F1C729" transform="translate(228,72)"/>
<path d="M0 0 C-0.99 1.485 -0.99 1.485 -2 3 C-1.67 3.66 -1.34 4.32 -1 5 C-2.32 5 -3.64 5 -5 5 C-5.185625 5.74507813 -5.37125 6.49015625 -5.5625 7.2578125 C-7.52053817 10.99298314 -10.32132122 12.17601181 -14 13.875 C-14.64195312 14.1946875 -15.28390625 14.514375 -15.9453125 14.84375 C-17.59596341 15.63799625 -19.2960706 16.32761609 -21 17 C-23.21736634 15.89131683 -25.03617993 14.50559539 -27 13 C-26.34 13 -25.68 13 -25 13 C-25.83333333 10.83333333 -25.83333333 10.83333333 -28 10 C-25.36119267 8.52760004 -22.71505962 7.07225428 -20.0625 5.625 C-19.32708984 5.2125 -18.59167969 4.8 -17.83398438 4.375 C-5.07144261 -2.53572131 -5.07144261 -2.53572131 0 0 Z " fill="#2B2529" transform="translate(189,87)"/>
<path d="M0 0 C0.66 0.33 1.32 0.66 2 1 C-1.3 3.97 -4.6 6.94 -8 10 C-6.35 10 -4.7 10 -3 10 C-2.67 10.66 -2.34 11.32 -2 12 C-1.01 11.01 -0.02 10.02 1 9 C1.66 9.33 2.32 9.66 3 10 C2.04738281 10.85722656 1.09476563 11.71445313 0.11328125 12.59765625 C-1.15396279 13.75225638 -2.42087209 14.90722399 -3.6875 16.0625 C-4.31333984 16.62388672 -4.93917969 17.18527344 -5.58398438 17.76367188 C-9.69576231 21.53100768 -12.90658148 25.35691484 -16 30 C-16.33 29.34 -16.66 28.68 -17 28 C-17.66 27.67 -18.32 27.34 -19 27 C-19.33 26.67 -19.66 26.34 -20 26 C-20 25.01 -20 24.02 -20 23 C-20.99 23.66 -21.98 24.32 -23 25 C-21.38998373 21.14876789 -18.80787668 18.32856433 -16 15.3125 C-15.51813232 14.79010742 -15.03626465 14.26771484 -14.53979492 13.72949219 C-9.96482933 8.83739067 -5.08148219 4.36500422 0 0 Z " fill="#282425" transform="translate(149,105)"/>
<path d="M0 0 C7.69459075 2.73033865 16.0955499 6.69322508 20.15234375 14.10546875 C21.32683187 18.11604802 20.97105838 21.6840235 20.625 25.8125 C20.56828125 26.60076172 20.5115625 27.38902344 20.453125 28.20117188 C20.31249026 30.13489961 20.15766112 32.06758595 20 34 C19.67 34 19.34 34 19 34 C18.87625 33.236875 18.7525 32.47375 18.625 31.6875 C18.11897208 28.79732864 18.11897208 28.79732864 16 26 C16.375 23.3125 16.375 23.3125 17 21 C17.66 21.66 18.32 22.32 19 23 C19.3681293 19.38648265 19.3681293 19.38648265 17.625 16.375 C16.820625 15.694375 16.820625 15.694375 16 15 C15.34 14.01 14.68 13.02 14 12 C13.01 12.495 13.01 12.495 12 13 C12 13.66 12 14.32 12 15 C12.99 15.33 13.98 15.66 15 16 C14.67 16.66 14.34 17.32 14 18 C13.7724985 19.87056791 13.59037189 21.74685958 13.4375 23.625 C13.35371094 24.62789063 13.26992187 25.63078125 13.18359375 26.6640625 C13.12300781 27.43492187 13.06242187 28.20578125 13 29 C12.67 29 12.34 29 12 29 C12.020625 28.20335937 12.04125 27.40671875 12.0625 26.5859375 C12.07964388 20.3134872 12.07964388 20.3134872 9.29296875 14.9375 C6.05502061 12.53457002 2.61274755 10.76984037 -1 9 C-0.01 8.01 0.98 7.02 2 6 C1.01 5.01 0.02 4.02 -1 3 C-0.34 3 0.32 3 1 3 C0.67 2.01 0.34 1.02 0 0 Z " fill="#2C2729" transform="translate(94,262)"/>
<path d="M0 0 C5.19612278 -0.02473982 10.39221118 -0.04287892 15.58837891 -0.05493164 C17.35563759 -0.05995687 19.12289212 -0.06677809 20.89013672 -0.07543945 C23.43197657 -0.08758428 25.9737614 -0.09324645 28.515625 -0.09765625 C29.69865204 -0.10539818 29.69865204 -0.10539818 30.90557861 -0.11329651 C34.44536403 -0.11365758 37.59500794 0.04604112 41 1 C40 3 39 5 38 7 C35.03 7 32.06 7 29 7 C29 6.67 29 6.34 29 6 C20.75 5.67 12.5 5.34 4 5 C3.67 3.68 3.34 2.36 3 1 C2.01 0.67 1.02 0.34 0 0 Z " fill="#1B1819" transform="translate(231,203)"/>
<path d="M0 0 C0.33 0 0.66 0 1 0 C1 1.65 1 3.3 1 5 C1.99 4.67 2.98 4.34 4 4 C6.1875 4.4375 6.1875 4.4375 8 5 C7.45484328 12.08703739 5.39081395 18.32796106 3 25 C2.34 25 1.68 25 1 25 C0.67 25.66 0.34 26.32 0 27 C-0.66 27 -1.32 27 -2 27 C-2.33 26.34 -2.66 25.68 -3 25 C-3.99 25 -4.98 25 -6 25 C-6.66 26.32 -7.32 27.64 -8 29 C-7.27981524 24.75981108 -5.97229814 20.79926777 -4.5625 16.75 C-2.67014292 11.21375535 -1.10905355 5.74691385 0 0 Z " fill="#1A1518" transform="translate(345,227)"/>
<path d="M0 0 C0.33 0.66 0.66 1.32 1 2 C1.71655762 1.98952637 2.43311523 1.97905273 3.17138672 1.96826172 C6.40588905 1.92678701 9.64033553 1.90070108 12.875 1.875 C14.00292969 1.85824219 15.13085938 1.84148437 16.29296875 1.82421875 C17.36933594 1.81777344 18.44570312 1.81132812 19.5546875 1.8046875 C20.54968262 1.79421387 21.54467773 1.78374023 22.56982422 1.77294922 C25 2 25 2 27 4 C25.02 4.99 25.02 4.99 23 6 C23 5.67 23 5.34 23 5 C22.67 5 22.34 5 22 5 C22 5.66 22 6.32 22 7 C22.99 7.33 23.98 7.66 25 8 C22.00421196 9.49789402 19.35592581 9.00082655 16.0234375 8.87890625 C15.33819 8.85529526 14.6529425 8.83168427 13.94692993 8.80735779 C11.75607584 8.73072143 9.56557528 8.64669754 7.375 8.5625 C5.89064236 8.50927924 4.40626741 8.45653884 2.921875 8.40429688 C-0.71896737 8.2751067 -4.35952844 8.13928926 -8 8 C-8 7.34 -8 6.68 -8 6 C-7.01 5.67 -6.02 5.34 -5 5 C-5 4.01 -5 3.02 -5 2 C-5 1.67 -5 1.34 -5 1 C-3.35 0.67 -1.7 0.34 0 0 Z " fill="#1B1919" transform="translate(138,344)"/>
<path d="M0 0 C0.33 0.99 0.66 1.98 1 3 C0.67 3.66 0.34 4.32 0 5 C1.32 5 2.64 5 4 5 C3.67 5.99 3.34 6.98 3 8 C3 9.72082924 3.5722028 11.34228586 4 13 C4.66 13 5.32 13 6 13 C6 13.66 6 14.32 6 15 C6.66 15 7.32 15 8 15 C8 15.66 8 16.32 8 17 C8.886875 16.95875 9.77375 16.9175 10.6875 16.875 C13.97277013 16.99897246 16.05449295 17.61387904 19 19 C19 19.66 19 20.32 19 21 C20.134375 21.268125 21.26875 21.53625 22.4375 21.8125 C23.613125 22.204375 24.78875 22.59625 26 23 C26.33 23.99 26.66 24.98 27 26 C27.99 26 28.98 26 30 26 C30 26.66 30 27.32 30 28 C35.94 28.99 35.94 28.99 42 30 C39 32 39 32 37.03491211 31.88964844 C31.54948012 30.56450571 26.62488739 28.73371183 21.5625 26.25 C20.82676758 25.89510498 20.09103516 25.54020996 19.33300781 25.17456055 C2.11457563 16.76040589 2.11457563 16.76040589 -2 11 C-2.78513276 6.71131782 -2.46387115 3.69580672 0 0 Z " fill="#F3CB31" transform="translate(316,146)"/>
<path d="M0 0 C0.99 0.66 1.98 1.32 3 2 C3 2.99 3 3.98 3 5 C3.66 5 4.32 5 5 5 C5.556875 6.0725 6.11375 7.145 6.6875 8.25 C8.6111657 11.64916555 10.76569838 13.75395721 14 16 C12.35 16 10.7 16 9 16 C9.515625 16.4125 10.03125 16.825 10.5625 17.25 C11.2740625 18.11625 11.2740625 18.11625 12 19 C11.6875 21.1875 11.6875 21.1875 11 23 C5.54412707 21.93543943 2.82205819 19.31673654 -0.57421875 15.15234375 C-2.64435667 12.02728623 -3.13822988 9.73220678 -3 6 C-1.5625 2.5625 -1.5625 2.5625 0 0 Z " fill="#272225" transform="translate(176,147)"/>
<path d="M0 0 C0.76038574 0.00539795 1.52077148 0.0107959 2.30419922 0.01635742 C8.02506162 0.17202296 11.89574783 1.28503147 16.6875 4.4375 C17.92824114 4.9600528 19.17845019 5.46074683 20.4375 5.9375 C25.0916749 8.08558072 27.77104883 10.69983529 29.6875 15.4375 C29.953125 18.34765625 29.953125 18.34765625 29.9375 21.5 C29.94523437 23.06427734 29.94523437 23.06427734 29.953125 24.66015625 C29.6875 27.4375 29.6875 27.4375 27.6875 30.4375 C27.0275 30.4375 26.3675 30.4375 25.6875 30.4375 C25.6875 31.4275 25.6875 32.4175 25.6875 33.4375 C23.7075 33.9325 23.7075 33.9325 21.6875 34.4375 C21.97625 33.94121094 22.265 33.44492188 22.5625 32.93359375 C25.11668016 28.25979881 26.46480333 24.87862332 25.6875 19.4375 C23.40526588 12.74465611 19.63182919 8.45599061 13.359375 5.24609375 C6.43769317 2.19927981 1.25654077 1.18833573 -6.0625 3.75 C-8.74127793 5.14090392 -11.00980508 6.50323626 -13.3125 8.4375 C-13.625 6.125 -13.625 6.125 -13.3125 3.4375 C-9.20390358 0.067167 -5.1080291 -0.06866531 0 0 Z " fill="#EFC733" transform="translate(307.3125,101.5625)"/>
<path d="M0 0 C2.7004547 1.9930463 3.5039124 3.4408988 4.0625 6.75 C2.4125 6.09 0.7625 5.43 -0.9375 4.75 C-0.2775 6.07 0.3825 7.39 1.0625 8.75 C0.0725 10.235 0.0725 10.235 -0.9375 11.75 C-1.17797646 14.43004202 -1.31023498 17.01554203 -1.3515625 19.69921875 C-1.37092865 20.47183548 -1.3902948 21.24445221 -1.4102478 22.04048157 C-1.46998479 24.5060424 -1.51640486 26.97165007 -1.5625 29.4375 C-1.60068525 31.1100463 -1.63973731 32.78257305 -1.6796875 34.45507812 C-1.77568133 38.55322647 -1.85973377 42.65146688 -1.9375 46.75 C-2.2675 46.75 -2.5975 46.75 -2.9375 46.75 C-2.95731934 45.67516357 -2.97713867 44.60032715 -2.99755859 43.49291992 C-3.07361258 39.50635286 -3.16233009 35.5201509 -3.25488281 31.53393555 C-3.29317345 29.80842292 -3.32802621 28.08283044 -3.359375 26.35717773 C-3.40502404 23.87715105 -3.46301781 21.39767409 -3.5234375 18.91796875 C-3.53498871 18.14599655 -3.54653992 17.37402435 -3.55844116 16.57865906 C-3.66271273 12.79753326 -3.7909589 10.96981165 -5.9375 7.75 C-9.00306598 7.01656572 -9.00306598 7.01656572 -11.9375 6.75 C-7.3125 1.875 -7.3125 1.875 -3.9375 0.75 C-4.92017859 -0.45561184 -4.92017859 -0.45561184 -6.78515625 -0.34765625 C-8.8359375 -0.31510417 -10.88671875 -0.28255208 -12.9375 -0.25 C-12.9375 0.41 -12.9375 1.07 -12.9375 1.75 C-12.2775 2.08 -11.6175 2.41 -10.9375 2.75 C-12.3125 4.25 -12.3125 4.25 -13.9375 5.75 C-14.5975 5.75 -15.2575 5.75 -15.9375 5.75 C-16.2675 4.43 -16.5975 3.11 -16.9375 1.75 C-17.72125 2.265625 -18.505 2.78125 -19.3125 3.3125 C-20.17875 3.786875 -21.045 4.26125 -21.9375 4.75 C-22.5975 4.42 -23.2575 4.09 -23.9375 3.75 C-22.69193908 2.93071114 -21.44083365 2.11984814 -20.1875 1.3125 C-19.14335937 0.63380859 -19.14335937 0.63380859 -18.078125 -0.05859375 C-12.29503873 -3.27728228 -5.55706262 -3.72757699 0 0 Z " fill="#363136" transform="translate(224.9375,156.25)"/>
<path d="M0 0 C5.18354356 9.10519614 4.3145368 21.35696611 4.25 31.5 C4.25773437 32.71558594 4.26546875 33.93117187 4.2734375 35.18359375 C4.24980886 46.25361128 3.05865351 56.90574346 -0.4375 67.4375 C-0.64181641 68.09169922 -0.84613281 68.74589844 -1.05664062 69.41992188 C-2.36338625 73.48670967 -4.00068449 77.2286964 -6 81 C-6.66 81 -7.32 81 -8 81 C-7.67 79.35 -7.34 77.7 -7 76 C-6.34 76 -5.68 76 -5 76 C-5 73.69 -5 71.38 -5 69 C-4.34 69 -3.68 69 -3 69 C-2.51304481 66.73060504 -2.03544248 64.45982362 -1.5625 62.1875 C-1.29566406 60.92292969 -1.02882813 59.65835938 -0.75390625 58.35546875 C1.01089304 48.89945353 1.15836498 39.4049317 1.125 29.8125 C1.12886719 28.68908203 1.13273437 27.56566406 1.13671875 26.40820312 C1.12977787 20.49804303 0.82612509 14.84792486 0 9 C-0.05915294 7.3342531 -0.08854052 5.66659344 -0.0625 4 C-0.05347656 3.236875 -0.04445313 2.47375 -0.03515625 1.6875 C-0.02355469 1.130625 -0.01195312 0.57375 0 0 Z " fill="#E8C32B" transform="translate(366,95)"/>
<path d="M0 0 C1.5 1.3125 1.5 1.3125 3 3 C3 3.99 3 4.98 3 6 C3.66 6 4.32 6 5 6 C5.25 12.625 5.25 12.625 3 16 C2.34 16.33 1.68 16.66 1 17 C0.97494385 17.99854004 0.9498877 18.99708008 0.92407227 20.02587891 C0.82951692 23.74963019 0.729416 27.47321574 0.62768555 31.19677734 C0.58451795 32.80481067 0.54283099 34.41288448 0.50268555 36.02099609 C0.44453994 38.33964205 0.38097609 40.65808761 0.31640625 42.9765625 C0.29969376 43.68930328 0.28298126 44.40204407 0.26576233 45.13638306 C0.14739436 49.17344506 -0.23768071 53.03376939 -1 57 C-1.33 57 -1.66 57 -2 57 C-2.05062418 49.36453069 -2.08570152 41.7291045 -2.10986328 34.09350586 C-2.11993368 31.49485659 -2.13359071 28.89621869 -2.15087891 26.29760742 C-2.17508139 22.56686603 -2.18647266 18.83627419 -2.1953125 15.10546875 C-2.20563507 13.93976852 -2.21595764 12.7740683 -2.22659302 11.57304382 C-2.22674408 10.49214981 -2.22689514 9.4112558 -2.22705078 8.29760742 C-2.231492 7.34496506 -2.23593323 6.39232269 -2.24050903 5.41081238 C-2 3 -2 3 0 0 Z " fill="#181214" transform="translate(312,333)"/>
<path d="M0 0 C14.31276854 6.7372468 26.58407518 24.96516446 33 39 C33 39.66 33 40.32 33 41 C31.35 40.67 29.7 40.34 28 40 C28 38.02 28 36.04 28 34 C26.68 33.67 25.36 33.34 24 33 C23.938125 32.278125 23.87625 31.55625 23.8125 30.8125 C22.74833944 27.1288673 20.75159161 25.62056344 18 23 C16.98812105 21.34051852 15.9873454 19.67419438 15 18 C14.278125 17.278125 13.55625 16.55625 12.8125 15.8125 C12.214375 15.214375 11.61625 14.61625 11 14 C11 13.34 11 12.68 11 12 C10.01 11.67 9.02 11.34 8 11 C8 10.01 8 9.02 8 8 C7.4225 7.896875 6.845 7.79375 6.25 7.6875 C3.58978053 6.87465516 2.00309159 5.93155261 0 4 C0 2.68 0 1.36 0 0 Z " fill="#EAC32F" transform="translate(324,29)"/>
<path d="M0 0 C0.66 0.33 1.32 0.66 2 1 C2 3.64 2 6.28 2 9 C2.99 9.33 3.98 9.66 5 10 C5 10.66 5 11.32 5 12 C5.66 12 6.32 12 7 12 C7.12375 12.78375 7.2475 13.5675 7.375 14.375 C7.79117993 17.14057822 7.79117993 17.14057822 10 19 C9.34 19.66 8.68 20.32 8 21 C3.13716924 20.78387419 0.46413158 19.3679057 -3 16 C-4.70805274 13.31591712 -5 12.23830467 -5 9 C-4.34 9 -3.68 9 -3 9 C-3.33 7.68 -3.66 6.36 -4 5 C-3.34 5 -2.68 5 -2 5 C-2 4.01 -2 3.02 -2 2 C-1.34 2 -0.68 2 0 2 C0 1.34 0 0.68 0 0 Z " fill="#241D22" transform="translate(87,249)"/>
<path d="M0 0 C2.77049257 1.40166661 5.27467802 3.09221162 7.8125 4.875 C8.47958984 5.32230469 9.14667969 5.76960938 9.83398438 6.23046875 C12.96028261 8.36934888 14.85610314 9.78415471 17 13 C14.78537326 11.93369824 12.70583833 10.81421368 10.625 9.5 C7.82157221 7.89804126 5.0838268 6.93231973 2 6 C2 5.34 2 4.68 2 4 C0.68 4.33 -0.64 4.66 -2 5 C-2 4.01 -2 3.02 -2 2 C-6.95514502 2.87472593 -6.95514502 2.87472593 -10.4375 6.125 C-10.623125 6.74375 -10.80875 7.3625 -11 8 C-11.66 8 -12.32 8 -13 8 C-12.96519531 8.61488281 -12.93039062 9.22976562 -12.89453125 9.86328125 C-12.86746094 10.67152344 -12.84039062 11.47976562 -12.8125 12.3125 C-12.77769531 13.11300781 -12.74289062 13.91351563 -12.70703125 14.73828125 C-13 17 -13 17 -14.38671875 18.79296875 C-16 20 -16 20 -18 20 C-18.33 20.99 -18.66 21.98 -19 23 C-19.99 23.33 -20.98 23.66 -22 24 C-20.44382027 18.74580177 -18.16043909 14.08059147 -15.625 9.25 C-15.23828125 8.48300781 -14.8515625 7.71601563 -14.453125 6.92578125 C-14.06898438 6.19230469 -13.68484375 5.45882813 -13.2890625 4.703125 C-12.94568848 4.03958008 -12.60231445 3.37603516 -12.24853516 2.69238281 C-8.94635909 -1.78369941 -5.00461921 -1.24461794 0 0 Z " fill="#EEC83C" transform="translate(307,16)"/>
<path d="M0 0 C0.96099609 0.61488281 0.96099609 0.61488281 1.94140625 1.2421875 C6.91124762 4.33815426 11.26713518 6.75372504 17 8 C15.13888667 11.36432025 13.90038542 13.57124504 10.375 15.25 C3.9031688 14.7706051 -1.33964534 10.81848368 -5.625 6.125 C-6.07875 5.42375 -6.5325 4.7225 -7 4 C-6.38125 3.855625 -5.7625 3.71125 -5.125 3.5625 C-2.96741678 3.06847775 -2.96741678 3.06847775 -1 2 C0 5.875 0 5.875 0 7 C0.99 7 1.98 7 3 7 C2.505 6.5875 2.01 6.175 1.5 5.75 C0 4 0 4 0 0 Z " fill="#2A2529" transform="translate(120,336)"/>
<path d="M0 0 C1.79442777 3.58885554 0.93478038 7.7539177 0.75 11.6875 C0.70939453 13.0168457 0.70939453 13.0168457 0.66796875 14.37304688 C0.3788854 20.67226631 -0.40180916 26.016892 -4.6875 30.9375 C-9.2921172 33.05313493 -13.31207139 32.61914491 -17.9465332 30.91918945 C-21.27914902 29.41990668 -24.54743217 27.82855148 -27.8125 26.1875 C-28.94365234 25.64029297 -30.07480469 25.09308594 -31.24023438 24.52929688 C-40.29372033 20.08074065 -40.29372033 20.08074065 -43 17 C-40.69 17.33 -38.38 17.66 -36 18 C-36 18.66 -36 19.32 -36 20 C-35.18402344 20.24492187 -34.36804688 20.48984375 -33.52734375 20.7421875 C-28.60053603 22.49903366 -24.01364206 24.86565768 -19.36523438 27.25390625 C-14.62258311 29.58048989 -11.28407034 30.43163684 -6 30 C-5.690625 29.360625 -5.38125 28.72125 -5.0625 28.0625 C-4 26 -4 26 -3 25 C-2.86679702 23.31707115 -2.79661159 21.62905811 -2.75390625 19.94140625 C-2.72103516 18.91595703 -2.68816406 17.89050781 -2.65429688 16.83398438 C-2.59321146 14.65700419 -2.53590563 12.47991458 -2.48242188 10.30273438 C-2.44826172 9.27599609 -2.41410156 8.24925781 -2.37890625 7.19140625 C-2.34132202 5.77130249 -2.34132202 5.77130249 -2.30297852 4.32250977 C-2 2 -2 2 0 0 Z " fill="#E7C84C" transform="translate(293,110)"/>
<path d="M0 0 C3 3.75 3 3.75 3 6 C3.99 6.33 4.98 6.66 6 7 C6 8.65 6 10.3 6 12 C5.01 12 4.02 12 3 12 C3.33 12.99 3.66 13.98 4 15 C4.33 15 4.66 15 5 15 C5.09706112 21.11485027 4.77040851 26.93303301 4 33 C3.67 33 3.34 33 3 33 C2.67 28.38 2.34 23.76 2 19 C-0.5654594 21.5654594 -0.54046087 23.47686668 -1 27 C-1.33 27 -1.66 27 -2 27 C-1.67 20.07 -1.34 13.14 -1 6 C-0.34 5.67 0.32 5.34 1 5 C-0.32 4.67 -1.64 4.34 -3 4 C-2.67 3.01 -2.34 2.02 -2 1 C-1.34 0.67 -0.68 0.34 0 0 Z " fill="#191415" transform="translate(108,273)"/>
<path d="M0 0 C-0.63196466 4.11919132 -1.97989708 7.45270165 -3.8125 11.1875 C-4.31394531 12.23292969 -4.81539063 13.27835937 -5.33203125 14.35546875 C-7.0491698 17.07795775 -8.01755436 17.94546933 -11 19 C-12.26989714 12.38825293 -12.08643508 7.83649836 -9.203125 1.71484375 C-6.70510496 -1.84564585 -3.72129928 -0.90518091 0 0 Z " fill="#221C20" transform="translate(347,252)"/>
<path d="M0 0 C0 0.33 0 0.66 0 1 C-1.06927734 1.03867187 -1.06927734 1.03867187 -2.16015625 1.078125 C-9.82122224 1.53180858 -14.68350274 2.58874568 -20.1875 8.25 C-24.63485149 14.99770571 -26.72759533 19.82525245 -26 28 C-25.94457031 28.72832031 -25.88914063 29.45664062 -25.83203125 30.20703125 C-25.47448305 33.84322897 -24.95107459 36.87828066 -23 40 C-23.66 40 -24.32 40 -25 40 C-28.8087633 32.80755859 -30.22962299 27.30274914 -28.375 19.3046875 C-25.98054451 11.62960249 -21.91695248 5.12279822 -15.01953125 0.7421875 C-9.95758298 -1.50083149 -5.33732978 -1.02545919 0 0 Z " fill="#EED05A" transform="translate(251,32)"/>
<path d="M0 0 C2.15157675 3.22736512 3.19090344 4.82730747 2.5625 8.6875 C2.376875 9.450625 2.19125 10.21375 2 11 C0.35 11.33 -1.3 11.66 -3 12 C-3 12.99 -3 13.98 -3 15 C-3.99 15 -4.98 15 -6 15 C-6.33 15.66 -6.66 16.32 -7 17 C-7.66 16.67 -8.32 16.34 -9 16 C-8 14 -8 14 -6 12 C-6.226875 11.236875 -6.45375 10.47375 -6.6875 9.6875 C-6.790625 8.800625 -6.89375 7.91375 -7 7 C-4.6875 4.3125 -4.6875 4.3125 -2 2 C-1.34 1.34 -0.68 0.68 0 0 Z " fill="#201B1E" transform="translate(129,127)"/>
<path d="M0 0 C-0.99 1.485 -0.99 1.485 -2 3 C-1.67 3.66 -1.34 4.32 -1 5 C-2.32 5 -3.64 5 -5 5 C-5.2475 5.639375 -5.495 6.27875 -5.75 6.9375 C-7 9 -7 9 -8.875 9.8125 C-11.17030283 10.01502672 -12.81733924 9.70156953 -15 9 C-16.125 5.25 -16.125 5.25 -15 3 C-12.22585062 1.35628594 -9.5103544 0.50982799 -6.375 -0.1875 C-5.59898437 -0.36667969 -4.82296875 -0.54585938 -4.0234375 -0.73046875 C-2 -1 -2 -1 0 0 Z " fill="#292627" transform="translate(189,87)"/>
<path d="M0 0 C0.99 0.33 1.98 0.66 3 1 C3.02701408 3.10409639 3.04640223 5.20829178 3.0625 7.3125 C3.07410156 8.48425781 3.08570313 9.65601563 3.09765625 10.86328125 C3 14 3 14 2 17 C0.68 17 -0.64 17 -2 17 C-2.33 16.34 -2.66 15.68 -3 15 C-3.66 14.67 -4.32 14.34 -5 14 C-4.67 10.7 -4.34 7.4 -4 4 C-3.01 4.99 -2.02 5.98 -1 7 C-1.33 5.35 -1.66 3.7 -2 2 C-1.34 2 -0.68 2 0 2 C0 1.34 0 0.68 0 0 Z " fill="#1B1617" transform="translate(309,164)"/>
<path d="M0 0 C0.33 0 0.66 0 1 0 C1 3.3 1 6.6 1 10 C1.66 10 2.32 10 3 10 C3.66 11.98 4.32 13.96 5 16 C5.66 16 6.32 16 7 16 C7 12.7 7 9.4 7 6 C7.33 6 7.66 6 8 6 C8.13277344 7.03640625 8.26554687 8.0728125 8.40234375 9.140625 C8.58060639 10.51043265 8.75899862 11.88022344 8.9375 13.25 C9.02451172 13.93191406 9.11152344 14.61382812 9.20117188 15.31640625 C9.6315938 18.60036611 10.08794131 21.81190294 11 25 C10.34 24.67 9.68 24.34 9 24 C9 23.34 9 22.68 9 22 C7.68 21.67 6.36 21.34 5 21 C5 20.01 5 19.02 5 18 C2.48916886 19.25541557 2.12874554 20.50063488 1 23 C0.03911617 20.11734851 -0.11670941 18.32337729 -0.09765625 15.33203125 C-0.09443359 14.43935547 -0.09121094 13.54667969 -0.08789062 12.62695312 C-0.07951172 11.69818359 -0.07113281 10.76941406 -0.0625 9.8125 C-0.05798828 8.87212891 -0.05347656 7.93175781 -0.04882812 6.96289062 C-0.03704626 4.64186288 -0.02059558 2.32096356 0 0 Z " fill="#342C2E" transform="translate(104,304)"/>
<path d="M0 0 C0.33 0 0.66 0 1 0 C1 1.65 1 3.3 1 5 C1.99 4.67 2.98 4.34 4 4 C6.1875 4.4375 6.1875 4.4375 8 5 C7.14285714 13.57142857 7.14285714 13.57142857 5 17 C3.0625 16.3125 3.0625 16.3125 1 15 C0.25 12.375 0.25 12.375 0 10 C-0.66 11.98 -1.32 13.96 -2 16 C-3.3805087 12.23331402 -2.59568159 9.55210827 -1.5625 5.75 C-1.27503906 4.67234375 -0.98757813 3.5946875 -0.69140625 2.484375 C-0.46324219 1.66453125 -0.23507812 0.8446875 0 0 Z " fill="#322D2F" transform="translate(345,227)"/>
<path d="M0 0 C-0.55145271 5.23880078 -1.42922093 9.97350697 -3 15 C-4.65 15 -6.3 15 -8 15 C-8.66 13.35 -9.32 11.7 -10 10 C-8.7934375 9.319375 -8.7934375 9.319375 -7.5625 8.625 C-4.91143428 7.25274335 -4.91143428 7.25274335 -4 5 C-5.32 4.67 -6.64 4.34 -8 4 C-8 3.01 -8 2.02 -8 1 C-5.29120665 -0.35439668 -2.99066732 -0.06501451 0 0 Z " fill="#2C2829" transform="translate(115,165)"/>
<path d="M0 0 C2.97 0.495 2.97 0.495 6 1 C6 1.66 6 2.32 6 3 C7.7015625 2.85691406 7.7015625 2.85691406 9.4375 2.7109375 C10.95828374 2.59828685 12.47912015 2.48634561 14 2.375 C15.11568359 2.27832031 15.11568359 2.27832031 16.25390625 2.1796875 C21.60573045 1.80738669 25.89330043 2.28656791 31 4 C33.88972357 7.97336991 34.34588825 11.1575645 34 16 C33.67 16 33.34 16 33 16 C32.7525 14.906875 32.505 13.81375 32.25 12.6875 C30.76356411 8.28537087 30.76356411 8.28537087 27 6 C23.90067683 5.56694493 20.81363083 5.53353704 17.6875 5.5 C11.3847127 5.43143821 6.61421564 5.02589165 1 2 C0.67 1.34 0.34 0.68 0 0 Z " fill="#EECE4B" transform="translate(228,72)"/>
<path d="M0 0 C3 2 3 2 3.625 4.25 C2.64717627 8.5524244 -0.56515002 10.45014963 -4 13 C-4.66 12.67 -5.32 12.34 -6 12 C-6.99 11.67 -7.98 11.34 -9 11 C-9.66 10.67 -10.32 10.34 -11 10 C-5.555 5.05 -5.555 5.05 0 0 Z " fill="#1B1618" transform="translate(151,105)"/>
<path d="M0 0 C0.7537793 0.00354492 1.50755859 0.00708984 2.28417969 0.01074219 C8.72669788 0.20161112 13.4863407 1.80039234 18.8125 5.5 C19.823125 6.16 20.83375 6.82 21.875 7.5 C24.12717241 9.82482313 24.54688668 11.31264018 24.8125 14.5 C24.1525 13.778125 23.4925 13.05625 22.8125 12.3125 C16.99018094 6.50667476 10.09934133 2.8402255 1.875 2.1875 C-3.95163602 2.34347114 -8.76909962 4.78854368 -13.1875 8.5 C-13.5 6.1875 -13.5 6.1875 -13.1875 3.5 C-9.113109 0.17865792 -5.06515003 -0.04252667 0 0 Z " fill="#E9CB5A" transform="translate(307.1875,101.5)"/>
<path d="M0 0 C10.55808656 -0.55353075 10.55808656 -0.55353075 15 3 C14.38125 3.12375 13.7625 3.2475 13.125 3.375 C10.80879168 3.87197356 10.80879168 3.87197356 9 6 C6.50390625 6.30078125 6.50390625 6.30078125 3.5625 6.3125 C2.11037109 6.33763672 2.11037109 6.33763672 0.62890625 6.36328125 C-2 6 -2 6 -3.84765625 4.54296875 C-5 3 -5 3 -5 2 C-3.35 2 -1.7 2 0 2 C0 1.34 0 0.68 0 0 Z " fill="#282728" transform="translate(212,79)"/>
<path d="M0 0 C0.33 0 0.66 0 1 0 C1 10.89 1 21.78 1 33 C2.32 33 3.64 33 5 33 C4.67 33.99 4.34 34.98 4 36 C4.99 36 5.98 36 7 36 C5.73882275 39.88862987 4.54735833 41.89375599 1 44 C0.34 44 -0.32 44 -1 44 C-1 43.01 -1 42.02 -1 41 C0.98 40.505 0.98 40.505 3 40 C2.505 38.515 2.505 38.515 2 37 C1.34 36.67 0.68 36.34 0 36 C0.66 36 1.32 36 2 36 C2 35.34 2 34.68 2 34 C1.401875 34.515625 0.80375 35.03125 0.1875 35.5625 C-0.534375 36.036875 -1.25625 36.51125 -2 37 C-2.99 36.67 -3.98 36.34 -5 36 C-4.35256836 35.49243164 -3.70513672 34.98486328 -3.03808594 34.46191406 C-0.26823674 31.11606365 -0.45900479 28.91730161 -0.390625 24.609375 C-0.37408875 23.90476135 -0.35755249 23.20014771 -0.34051514 22.47418213 C-0.29208861 20.23269898 -0.27067813 17.99189387 -0.25 15.75 C-0.22183552 14.22652849 -0.19190741 12.70308848 -0.16015625 11.1796875 C-0.08633407 7.45327244 -0.03672531 3.7269862 0 0 Z " fill="#3C353C" transform="translate(222,90)"/>
<path d="M0 0 C0.33 0.66 0.66 1.32 1 2 C1.71655762 1.98952637 2.43311523 1.97905273 3.17138672 1.96826172 C6.40588905 1.92678701 9.64033553 1.90070108 12.875 1.875 C14.00292969 1.85824219 15.13085938 1.84148437 16.29296875 1.82421875 C17.36933594 1.81777344 18.44570312 1.81132812 19.5546875 1.8046875 C20.54968262 1.79421387 21.54467773 1.78374023 22.56982422 1.77294922 C25 2 25 2 27 4 C25.02 4.99 25.02 4.99 23 6 C23 5.67 23 5.34 23 5 C20.56242587 4.97301578 18.12515085 4.95316901 15.6875 4.9375 C14.99720703 4.92912109 14.30691406 4.92074219 13.59570312 4.91210938 C10.4516975 4.89692094 8.00579981 4.99806673 5 6 C4.34 5.34 3.68 4.68 3 4 C2.01 4.33 1.02 4.66 0 5 C-2.62843884 3.99500868 -3.72403685 3.55192629 -5 1 C-3.35 0.67 -1.7 0.34 0 0 Z " fill="#141213" transform="translate(138,344)"/>
<path d="M0 0 C2.475 0.495 2.475 0.495 5 1 C6.06723961 4.46222615 6.10173486 7.64039266 6.0625 11.25 C6.05347656 12.32765625 6.04445313 13.4053125 6.03515625 14.515625 C6.02355469 15.33546875 6.01195313 16.1553125 6 17 C4.68 16.67 3.36 16.34 2 16 C2 14.35 2 12.7 2 11 C1.34 11 0.68 11 0 11 C0 7.37 0 3.74 0 0 Z " fill="#1B1A19" transform="translate(105,303)"/>
<path d="M0 0 C0.66 0.66 1.32 1.32 2 2 C1.625 5.125 1.625 5.125 1 8 C-0.65 8.33 -2.3 8.66 -4 9 C-4.12375 10.11375 -4.2475 11.2275 -4.375 12.375 C-5 16 -5 16 -7 18 C-7 13.38 -7 8.76 -7 4 C-5.68 3.34 -4.36 2.68 -3 2 C-3 2.66 -3 3.32 -3 4 C-2.01 4 -1.02 4 0 4 C-0.33 3.01 -0.66 2.02 -1 1 C-0.67 0.67 -0.34 0.34 0 0 Z " fill="#1F1A1E" transform="translate(268,160)"/>
<path d="M0 0 C7 0 14 0 21 0 C21.66 2.31 22.32 4.62 23 7 C21.1875 7.625 21.1875 7.625 19 8 C18.01 7.34 17.02 6.68 16 6 C13.1913957 5.63155492 13.1913957 5.63155492 10.01953125 5.5859375 C8.85615234 5.54726563 7.69277344 5.50859375 6.49414062 5.46875 C4.67172852 5.42234375 4.67172852 5.42234375 2.8125 5.375 C1.58595703 5.33632813 0.35941406 5.29765625 -0.90429688 5.2578125 C-3.93604656 5.16343897 -6.96778841 5.07785451 -10 5 C-10 4.67 -10 4.34 -10 4 C-0.76 4 8.48 4 18 4 C17.34 3.67 16.68 3.34 16 3 C16 2.34 16 1.68 16 1 C15.14728516 1.12568359 15.14728516 1.12568359 14.27734375 1.25390625 C9.23364455 1.91910197 4.99705931 1.9568837 0 1 C0 0.67 0 0.34 0 0 Z " fill="#2E2B2B" transform="translate(144,348)"/>
<path d="M0 0 C0.66 0.33 1.32 0.66 2 1 C2.6328125 3.94140625 2.6328125 3.94140625 3.125 7.5625 C3.29257813 8.76003906 3.46015625 9.95757812 3.6328125 11.19140625 C3.75398438 12.11824219 3.87515625 13.04507812 4 14 C3.67 13.34 3.34 12.68 3 12 C0.525 13.485 0.525 13.485 -2 15 C-2 14.34 -2 13.68 -2 13 C-2.99 12.67 -3.98 12.34 -5 12 C-5 11.01 -5 10.02 -5 9 C-4.34 9 -3.68 9 -3 9 C-3.33 7.68 -3.66 6.36 -4 5 C-3.34 5 -2.68 5 -2 5 C-2 4.01 -2 3.02 -2 2 C-1.34 2 -0.68 2 0 2 C0 1.34 0 0.68 0 0 Z " fill="#1F1B1F" transform="translate(87,249)"/>
<path d="M0 0 C6.75 0.875 6.75 0.875 9 2 C9 2.66 9 3.32 9 4 C9.66 4.103125 10.32 4.20625 11 4.3125 C14.83841009 5.19213564 18.33096691 6.56969896 22 8 C22 8.66 22 9.32 22 10 C27.94 10.99 27.94 10.99 34 12 C31 14 31 14 29.04589844 13.89404297 C23.44825064 12.54525736 18.4230118 10.64134751 13.25 8.125 C12.15751953 7.61646484 12.15751953 7.61646484 11.04296875 7.09765625 C6.92885011 5.13392993 3.45369221 3.03217859 0 0 Z " fill="#EFD365" transform="translate(324,164)"/>
<path d="M0 0 C0.66 0.33 1.32 0.66 2 1 C1.67 1.99 1.34 2.98 1 4 C1 4.99 1 5.98 1 7 C-0.32 7 -1.64 7 -3 7 C-2.6596875 7.804375 -2.6596875 7.804375 -2.3125 8.625 C-1.86041855 12.06081901 -3.32821985 14.05766694 -5 17 C-6 14 -6 14 -6 11 C-6.45375 11.495 -6.9075 11.99 -7.375 12.5 C-9 14 -9 14 -11 14 C-10.1875 11.0625 -10.1875 11.0625 -9 8 C-8.01 7.67 -7.02 7.34 -6 7 C-5.690625 6.38125 -5.38125 5.7625 -5.0625 5.125 C-3.79701313 2.59402625 -2.32727163 1.55151442 0 0 Z " fill="#181416" transform="translate(185,120)"/>
<path d="M0 0 C0.185625 0.8353125 0.185625 0.8353125 0.375 1.6875 C1.36991762 5.36869519 2.27565846 8.27565846 5 11 C5.625 13.625 5.625 13.625 6 16 C3.36 16 0.72 16 -2 16 C-3.01924246 9.78630501 -3.62926746 5.51648654 0 0 Z " fill="#F7C70F" transform="translate(251,112)"/>
<path d="M0 0 C0.66 0.33 1.32 0.66 2 1 C-1.3 3.97 -4.6 6.94 -8 10 C-6.35 10 -4.7 10 -3 10 C-2.67 10.66 -2.34 11.32 -2 12 C-1.01 11.01 -0.02 10.02 1 9 C1.66 9.33 2.32 9.66 3 10 C0.69 11.98 -1.62 13.96 -4 16 C-5.32 15.34 -6.64 14.68 -8 14 C-8 13.34 -8 12.68 -8 12 C-11.60513403 14.06007659 -14.80331012 16.3513141 -18 19 C-16.40965647 15.05669207 -13.67772141 12.41477094 -10.6875 9.5 C-10.21376953 9.02691406 -9.74003906 8.55382812 -9.25195312 8.06640625 C-6.31597478 5.16657538 -3.26491068 2.52153394 0 0 Z " fill="#423C3E" transform="translate(149,105)"/>
<path d="M0 0 C0.99 0 1.98 0 3 0 C2.67 1.32 2.34 2.64 2 4 C2.66 4 3.32 4 4 4 C2.95125002 6.62187494 2.35068687 7.79371361 -0.125 9.25 C-0.74375 9.4975 -1.3625 9.745 -2 10 C-1.34 8.35 -0.68 6.7 0 5 C-0.99 5 -1.98 5 -3 5 C-5.7228394 4.93143208 -8.44537141 4.85839461 -11.16796875 4.78125 C-12.36018791 4.74795593 -12.36018791 4.74795593 -13.57649231 4.71398926 C-16.113506 4.64305043 -18.65050298 4.57153232 -21.1875 4.5 C-22.90820206 4.45178475 -24.62890517 4.40360721 -26.34960938 4.35546875 C-30.56641864 4.23741666 -34.78321301 4.11884506 -39 4 C-39 3.67 -39 3.34 -39 3 C-26.13 2.67 -13.26 2.34 0 2 C0 1.34 0 0.68 0 0 Z " fill="#433E40" transform="translate(271,199)"/>
<path d="M0 0 C2.475 0.99 2.475 0.99 5 2 C4 5 4 5 1.9375 6.1875 C1.298125 6.455625 0.65875 6.72375 0 7 C0.66 7.66 1.32 8.32 2 9 C2.33 9.99 2.66 10.98 3 12 C3.66 12 4.32 12 5 12 C5 13.98 5 15.96 5 18 C4.01 16.68 3.02 15.36 2 14 C-0.69725519 15.88807863 -2.13216429 17.19824644 -4 20 C-3.56615452 12.96871122 -2.25678003 6.670985 0 0 Z " fill="#2F282D" transform="translate(106,168)"/>
<path d="M0 0 C0.66 0 1.32 0 2 0 C2 1.65 2 3.3 2 5 C2.66 5.33 3.32 5.66 4 6 C2.35 6.33 0.7 6.66 -1 7 C-1 7.99 -1 8.98 -1 10 C-3.64 10 -6.28 10 -9 10 C-8.34 9.01 -7.68 8.02 -7 7 C-7.66 5.68 -8.32 4.36 -9 3 C-7.88625 2.87625 -6.7725 2.7525 -5.625 2.625 C-1.96896323 2.3534187 -1.96896323 2.3534187 0 0 Z " fill="#161315" transform="translate(222,124)"/>
<path d="M0 0 C-1.485 1.485 -1.485 1.485 -3 3 C-1.26286782 5.17141522 -0.42903194 5.94072585 2.375 6.328125 C3.24125 6.30234375 4.1075 6.2765625 5 6.25 C5.86625 6.23453125 6.7325 6.2190625 7.625 6.203125 C10.14823779 6.0807181 10.14823779 6.0807181 13 5 C13.33 5.66 13.66 6.32 14 7 C12.25 8.0625 12.25 8.0625 10 9 C9.42636719 8.835 8.85273438 8.67 8.26171875 8.5 C5.16460619 7.81531881 2.67540687 8.38689335 -0.4375 8.9375 C-4.35859935 9.6235788 -8.01641979 10.12658105 -12 10 C-9.66785852 8.79371992 -7.50357861 7.8345262 -5 7 C-5 6.34 -5 5.68 -5 5 C-5.99 4.67 -6.98 4.34 -8 4 C-7.67 3.67 -7.34 3.34 -7 3 C-8.65 2.67 -10.3 2.34 -12 2 C-8.09971775 -0.60018816 -4.52565431 -0.15085514 0 0 Z " fill="#433B3E" transform="translate(212,80)"/>
<path d="M0 0 C0.99 0 1.98 0 3 0 C2.93999894 1.6260287 2.8512115 3.25101549 2.75 4.875 C2.70359375 5.77992188 2.6571875 6.68484375 2.609375 7.6171875 C2 10 2 10 0.0625 11.21875 C-0.9584375 11.60546875 -0.9584375 11.60546875 -2 12 C-3.70921589 13.5412312 -3.70921589 13.5412312 -5 15 C-5.28571429 6.42857143 -5.28571429 6.42857143 -3 3 C-2.34 3 -1.68 3 -1 3 C-0.67 2.01 -0.34 1.02 0 0 Z " fill="#191418" transform="translate(107,181)"/>
<path d="M0 0 C2.97 0 5.94 0 9 0 C9.33 1.32 9.66 2.64 10 4 C9.67 4.33 9.34 4.66 9 5 C9.66 5.66 10.32 6.32 11 7 C6.38 7.33 1.76 7.66 -3 8 C-3 7.34 -3 6.68 -3 6 C-1.35 5.67 0.3 5.34 2 5 C1.01 4.01 0.02 3.02 -1 2 C-0.67 1.34 -0.34 0.68 0 0 Z " fill="#140F12" transform="translate(281,152)"/>
<path d="M0 0 C0.66 0.33 1.32 0.66 2 1 C1.67634004 7.04165251 0.41763588 12.44050083 -1.375 18.1875 C-1.58406982 18.86425781 -1.79313965 19.54101562 -2.00854492 20.23828125 C-3.33511962 24.36832687 -4.95616081 28.15734327 -7 32 C-7.66 32 -8.32 32 -9 32 C-8.67 30.35 -8.34 28.7 -8 27 C-7.34 27 -6.68 27 -6 27 C-6 24.69 -6 22.38 -6 20 C-5.34 20 -4.68 20 -4 20 C-2.68 13.4 -1.36 6.8 0 0 Z " fill="#E7C74D" transform="translate(367,144)"/>
<path d="M0 0 C0.66 0.33 1.32 0.66 2 1 C-1.70212766 5.72340426 -1.70212766 5.72340426 -3.75 7.625 C-5.3363364 9.06026027 -5.3363364 9.06026027 -5 12 C-4.01 10.68 -3.02 9.36 -2 8 C-1.34 9.32 -0.68 10.64 0 12 C-1.1875 13.9375 -1.1875 13.9375 -3 16 C-4.65 16.33 -6.3 16.66 -8 17 C-8.33 21.62 -8.66 26.24 -9 31 C-9.33 31 -9.66 31 -10 31 C-10.9050147 12.14552714 -10.9050147 12.14552714 -4.65625 4.31640625 C-3.3125 2.9375 -3.3125 2.9375 -1 1 C-0.67 0.67 -0.34 0.34 0 0 Z " fill="#3E393C" transform="translate(181,121)"/>
<path d="M0 0 C0.391875 0.556875 0.78375 1.11375 1.1875 1.6875 C3.27132534 4.34617371 5.58212142 6.6441183 8 9 C8.66 9.66 9.32 10.32 10 11 C7.03 11.66 4.06 12.32 1 13 C0.690625 12.05125 0.38125 11.1025 0.0625 10.125 C-0.87394742 7.13919592 -0.87394742 7.13919592 -2 5 C-2.99 4.67 -3.98 4.34 -5 4 C-4.67 3.01 -4.34 2.02 -4 1 C-1.9375 0.3125 -1.9375 0.3125 0 0 Z " fill="#2A2528" transform="translate(180,152)"/>
<path d="M0 0 C1.546875 -0.00773437 1.546875 -0.00773437 3.125 -0.015625 C5.94597278 0.24500835 7.60145718 0.79703656 10 2.25 C9.01 2.745 9.01 2.745 8 3.25 C7.01 2.92 6.02 2.59 5 2.25 C3.43881572 2.18259135 1.8749748 2.16485544 0.3125 2.1875 C-0.49574219 2.19652344 -1.30398437 2.20554687 -2.13671875 2.21484375 C-2.75160156 2.22644531 -3.36648437 2.23804687 -4 2.25 C-4.33 3.24 -4.66 4.23 -5 5.25 C-4.34 5.25 -3.68 5.25 -3 5.25 C-3 6.57 -3 7.89 -3 9.25 C-5.3125 10.8125 -5.3125 10.8125 -8 12.25 C-9.75149165 13.83245275 -9.75149165 13.83245275 -11 15.25 C-11.33 12.94 -11.66 10.63 -12 8.25 C-10.35 8.25 -8.7 8.25 -7 8.25 C-7.99 7.26 -8.98 6.27 -10 5.25 C-9.01 5.25 -8.02 5.25 -7 5.25 C-7.83333333 3.08333333 -7.83333333 3.08333333 -10 2.25 C-6.6042877 0.19298197 -3.9382341 -0.01969117 0 0 Z " fill="#3D383B" transform="translate(193,117.75)"/>
<path d="M0 0 C0.33 0 0.66 0 1 0 C0.67 6.6 0.34 13.2 0 20 C-0.33 20 -0.66 20 -1 20 C-1 18.02 -1 16.04 -1 14 C-1.66 14 -2.32 14 -3 14 C-4.625 11.5 -4.625 11.5 -6 9 C-6.66 9.66 -7.32 10.32 -8 11 C-8 8.36 -8 5.72 -8 3 C-7.67 4.32 -7.34 5.64 -7 7 C-6.01 5.68 -5.02 4.36 -4 3 C-4 3.66 -4 4.32 -4 5 C-2.68 5 -1.36 5 0 5 C0 3.35 0 1.7 0 0 Z " fill="#352E30" transform="translate(318,325)"/>
<path d="M0 0 C0.33 0 0.66 0 1 0 C1.33 2.97 1.66 5.94 2 9 C2.66 6.69 3.32 4.38 4 2 C5.65 1.67 7.3 1.34 9 1 C9 4.3 9 7.6 9 11 C8.34 10.34 7.68 9.68 7 9 C4.30274481 10.88807863 2.86783571 12.19824644 1 15 C-0.09506492 11.71480525 -0.09960608 9.26336585 -0.0625 5.8125 C-0.05347656 4.72582031 -0.04445313 3.63914063 -0.03515625 2.51953125 C-0.02355469 1.68808594 -0.01195312 0.85664063 0 0 Z " fill="#332D31" transform="translate(260,167)"/>
<path d="M0 0 C-0.33 0.99 -0.66 1.98 -1 3 C-1.66 3 -2.32 3 -3 3 C-0.9927092 6.0109362 -0.16115776 6.63016497 3 8 C1.04486839 8.696553 -0.91422476 9.38199565 -2.875 10.0625 C-3.96554688 10.44535156 -5.05609375 10.82820313 -6.1796875 11.22265625 C-9 12 -9 12 -11 11 C-9 8 -9 8 -6 7 C-6 6.01 -6 5.02 -6 4 C-6.99 4 -7.98 4 -9 4 C-9.99 3.67 -10.98 3.34 -12 3 C-10.56445975 2.49440092 -9.1264798 1.9957251 -7.6875 1.5 C-6.88699219 1.2215625 -6.08648437 0.943125 -5.26171875 0.65625 C-3 0 -3 0 0 0 Z " fill="#3B3436" transform="translate(193,84)"/>
<path d="M0 0 C2.6189021 2.6189021 3.22382048 4.52531645 3.25 8.125 C3 12 3 12 2 14 C0.68 13.67 -0.64 13.34 -2 13 C-2 12.01 -2 11.02 -2 10 C-2.66 10 -3.32 10 -4 10 C-3.5205537 5.78087253 -2.83374881 3.20336822 0 0 Z " fill="#201B1C" transform="translate(328,274)"/>
<path d="M0 0 C2.9327775 3.91037 5.45323788 7.35971364 7 12 C6.00390625 14.91796875 6.00390625 14.91796875 4.5625 18.1875 C3.85287109 19.81751953 3.85287109 19.81751953 3.12890625 21.48046875 C2.75636719 22.31191406 2.38382812 23.14335937 2 24 C1.67 23.01 1.34 22.02 1 21 C1.33 20.34 1.66 19.68 2 19 C1.34 19 0.68 19 0 19 C0 18.01 0 17.02 0 16 C0.66 16.33 1.32 16.66 2 17 C3.35618499 15.87465895 3.35618499 15.87465895 3.0625 12.9375 C3.041875 11.968125 3.02125 10.99875 3 10 C1.35 10.33 -0.3 10.66 -2 11 C-1.34 7.37 -0.68 3.74 0 0 Z " fill="#2C272A" transform="translate(100,201)"/>
<path d="M0 0 C0.66 0.99 1.32 1.98 2 3 C2.66 2.34 3.32 1.68 4 1 C4.2236337 2.41433206 4.42826476 3.83167618 4.625 5.25 C4.74101562 6.03890625 4.85703125 6.8278125 4.9765625 7.640625 C5.00319395 10.32152459 4.36592084 11.72694089 3 14 C2.34 13.34 1.68 12.68 1 12 C1.66 12 2.32 12 3 12 C3 11.01 3 10.02 3 9 C2.01 9 1.02 9 0 9 C0 9.66 0 10.32 0 11 C-1.32 11.33 -2.64 11.66 -4 12 C-3.52494322 10.18641846 -3.04483958 8.37415821 -2.5625 6.5625 C-2.29566406 5.55316406 -2.02882813 4.54382813 -1.75390625 3.50390625 C-1 1 -1 1 0 0 Z " fill="#1B171B" transform="translate(271,190)"/>
<path d="M0 0 C0.33 0 0.66 0 1 0 C1.33 2.97 1.66 5.94 2 9 C1.01 9.33 0.02 9.66 -1 10 C-1.33 9.67 -1.66 9.34 -2 9 C-2.33 9.66 -2.66 10.32 -3 11 C-2.01 11 -1.02 11 0 11 C0.33 11.66 0.66 12.32 1 13 C1.99 12.67 2.98 12.34 4 12 C3.34 13.32 2.68 14.64 2 16 C1.34 15.67 0.68 15.34 0 15 C-0.33 15.66 -0.66 16.32 -1 17 C-1 16.34 -1 15.68 -1 15 C-2.65 15.33 -4.3 15.66 -6 16 C-4.43551329 10.3856009 -2.83604813 5.13189662 0 0 Z " fill="#292427" transform="translate(113,150)"/>
<path d="M0 0 C0.99 0.66 1.98 1.32 3 2 C3 2.66 3 3.32 3 4 C2.01 4.495 2.01 4.495 1 5 C1 5.66 1 6.32 1 7 C3.475 7.99 3.475 7.99 6 9 C5.47462276 14.0302076 4.89405214 19.01885239 4 24 C3.67 24 3.34 24 3 24 C2.67 19.38 2.34 14.76 2 10 C0.68 10.33 -0.64 10.66 -2 11 C-1 3.57142857 -1 3.57142857 0 0 Z " fill="#2D292A" transform="translate(316,300)"/>
<path d="M0 0 C0.33 0 0.66 0 1 0 C1 1.65 1 3.3 1 5 C0.34 5 -0.32 5 -1 5 C-1.33 6.65 -1.66 8.3 -2 10 C-6.54805635 10.17835515 -9.8794254 9.99785435 -14 8 C-14 7.34 -14 6.68 -14 6 C-6.61538462 3.78461538 -6.61538462 3.78461538 -3.5 4.875 C-3.005 5.24625 -2.51 5.6175 -2 6 C-2 5.01 -2 4.02 -2 3 C-1.34 3 -0.68 3 0 3 C0 2.01 0 1.02 0 0 Z " fill="#F6C615" transform="translate(360,166)"/>
<path d="M0 0 C1.77633698 5.32901095 0.1095654 9.98870586 -2 15 C-3.93719378 15.05406122 -5.87481921 15.09282025 -7.8125 15.125 C-8.89144531 15.14820313 -9.97039062 15.17140625 -11.08203125 15.1953125 C-14 15 -14 15 -17 13 C-12.71 12.34 -8.42 11.68 -4 11 C-3.525625 9.55625 -3.05125 8.1125 -2.5625 6.625 C-1.80602983 4.32269949 -1.08391186 2.16782371 0 0 Z " fill="#F3C622" transform="translate(284,40)"/>
<path d="M0 0 C2.475 0.495 2.475 0.495 5 1 C3.64974619 16.35025381 3.64974619 16.35025381 0 20 C0 13.4 0 6.8 0 0 Z " fill="#F9C610" transform="translate(362,144)"/>
<path d="M0 0 C0.33 0 0.66 0 1 0 C0.88658363 2.31309705 0.75896193 4.62550185 0.625 6.9375 C0.55539063 8.22527344 0.48578125 9.51304687 0.4140625 10.83984375 C0.27742188 11.88269531 0.14078125 12.92554688 0 14 C-0.99 14.495 -0.99 14.495 -2 15 C-5.2910841 11.39042389 -6.54663921 8.87362847 -7 4 C-6.01 3.34 -5.02 2.68 -4 2 C-3.67 2.99 -3.34 3.98 -3 5 C-2.01 4.67 -1.02 4.34 0 4 C0 2.68 0 1.36 0 0 Z " fill="#181317" transform="translate(107,196)"/>
<path d="M0 0 C1.65 0 3.3 0 5 0 C6.23076923 6.4 6.23076923 6.4 5.0625 9.4375 C4.711875 9.953125 4.36125 10.46875 4 11 C4 10.01 4 9.02 4 8 C3.34 8 2.68 8 2 8 C1.34 9.98 0.68 11.96 0 14 C-0.33 14 -0.66 14 -1 14 C-1.02705729 12.22925083 -1.04642195 10.45838289 -1.0625 8.6875 C-1.07410156 7.70136719 -1.08570313 6.71523437 -1.09765625 5.69921875 C-1 3 -1 3 0 0 Z " fill="#181418" transform="translate(173,135)"/>
<path d="M0 0 C7.53289184 3.51206722 12.75487823 9.71860797 18 16 C17.67 16.66 17.34 17.32 17 18 C16.2575 17.21625 15.515 16.4325 14.75 15.625 C12.45566682 13.43495469 10.87841142 12.17268614 8 11 C8 10.01 8 9.02 8 8 C7.4225 7.896875 6.845 7.79375 6.25 7.6875 C3.58978053 6.87465516 2.00309159 5.93155261 0 4 C0 2.68 0 1.36 0 0 Z " fill="#EBC63D" transform="translate(324,29)"/>
<path d="M0 0 C3.27227431 3.70594922 4.64472288 7.91015426 6.25 12.5 C6.53101563 13.25925781 6.81203125 14.01851562 7.1015625 14.80078125 C7.36195313 15.53683594 7.62234375 16.27289063 7.890625 17.03125 C8.12813477 17.69705078 8.36564453 18.36285156 8.61035156 19.04882812 C9.06705347 21.3357715 8.71402646 22.80280709 8 25 C7.67 23.02 7.34 21.04 7 19 C6.34 19 5.68 19 5 19 C2.93421237 15.90131855 2.25308642 13.65023694 1.375 10.0625 C1.11460937 9.02222656 0.85421875 7.98195313 0.5859375 6.91015625 C0 4 0 4 0 0 Z " fill="#E7C339" transform="translate(357,70)"/>
<path d="M0 0 C3 3.75 3 3.75 3 6 C3.99 6.33 4.98 6.66 6 7 C6 8.65 6 10.3 6 12 C4.33333333 12 2.66666667 12 1 12 C1 9.69 1 7.38 1 5 C-0.32 4.67 -1.64 4.34 -3 4 C-2.67 3.01 -2.34 2.02 -2 1 C-1.34 0.67 -0.68 0.34 0 0 Z " fill="#1F1D1D" transform="translate(108,273)"/>
<path d="M0 0 C1.53937439 3.07874877 1.00296786 6.26736697 0.87890625 9.6328125 C0.85529526 10.38464813 0.83168427 11.13648376 0.80735779 11.91110229 C0.7306938 14.31592566 0.64668156 16.72042918 0.5625 19.125 C0.50928203 20.75389052 0.45654161 22.38279672 0.40429688 24.01171875 C0.27507502 28.0080156 0.13926173 32.00404092 0 36 C1.32 36.33 2.64 36.66 4 37 C4 37.66 4 38.32 4 39 C2.35 38.67 0.7 38.34 -1 38 C-1.02464928 32.74894558 -1.04283568 27.49792455 -1.05493164 22.24682617 C-1.05997218 20.45905979 -1.06680454 18.67129755 -1.07543945 16.88354492 C-1.0875173 14.31948832 -1.09323094 11.75548603 -1.09765625 9.19140625 C-1.10281754 8.3872377 -1.10797882 7.58306915 -1.11329651 6.75453186 C-1.11349215 4.83598285 -1.06201983 2.91754632 -1 1 C-0.67 0.67 -0.34 0.34 0 0 Z " fill="#161115" transform="translate(224,167)"/>
<path d="M0 0 C0.66 0 1.32 0 2 0 C2 0.66 2 1.32 2 2 C1.34 2 0.68 2 0 2 C0.020625 2.94875 0.04125 3.8975 0.0625 4.875 C0 8 0 8 -1 10 C-1.99 10 -2.98 10 -4 10 C-4 10.66 -4 11.32 -4 12 C-5.32 11.67 -6.64 11.34 -8 11 C-7.67 10.67 -7.34 10.34 -7 10 C-7.66 9.67 -8.32 9.34 -9 9 C-8.67 8.34 -8.34 7.68 -8 7 C-7.67 7 -7.34 7 -7 7 C-7 6.34 -7 5.68 -7 5 C-5.35666496 3.96210419 -3.68756133 2.96432076 -2 2 C-1.34 1.34 -0.68 0.68 0 0 Z " fill="#181314" transform="translate(308,394)"/>
<path d="M0 0 C0.33 0 0.66 0 1 0 C1.33 2.97 1.66 5.94 2 9 C2.66 9 3.32 9 4 9 C4 10.65 4 12.3 4 14 C1.69 13.67 -0.62 13.34 -3 13 C-2.125 9.125 -2.125 9.125 -1 8 C-1.33 7.01 -1.66 6.02 -2 5 C-1.0625 2.3125 -1.0625 2.3125 0 0 Z " fill="#201A1C" transform="translate(319,295)"/>
<path d="M0 0 C3.39914975 1.13304992 4.05254451 2.12518475 6 5 C5.67 5.66 5.34 6.32 5 7 C4.01 7.33 3.02 7.66 2 8 C2.66 10.31 3.32 12.62 4 15 C3.01 14.01 2.02 13.02 1 12 C0.67 14.64 0.34 17.28 0 20 C-0.33 20 -0.66 20 -1 20 C-1.33 16.04 -1.66 12.08 -2 8 C-1.01 8.33 -0.02 8.66 1 9 C1.26932521 4.34947128 1.26932521 4.34947128 0 0 Z " fill="#312D2E" transform="translate(305,158)"/>
<path d="M0 0 C0.66 0.66 1.32 1.32 2 2 C1.0409375 2.1546875 1.0409375 2.1546875 0.0625 2.3125 C-0.618125 2.539375 -1.29875 2.76625 -2 3 C-2.33 3.99 -2.66 4.98 -3 6 C-4.875 7.25 -4.875 7.25 -7 8 C-7.99 7.67 -8.98 7.34 -10 7 C-9.01 6.67 -8.02 6.34 -7 6 C-7.33 4.35 -7.66 2.7 -8 1 C-5.23749964 -0.38125018 -3.05268901 -0.19079306 0 0 Z " fill="#181418" transform="translate(220,155)"/>
<path d="M0 0 C1.41623216 -0.05447047 2.83308191 -0.09300508 4.25 -0.125 C5.03890625 -0.14820313 5.8278125 -0.17140625 6.640625 -0.1953125 C9.20731941 0.0171622 10.7916067 0.71345895 13 2 C12.01 2 11.02 2 10 2 C10 2.66 10 3.32 10 4 C10.66 4.33 11.32 4.66 12 5 C11.67 6.32 11.34 7.64 11 9 C6.05 9.33 1.1 9.66 -4 10 C-1.50494038 7.50494038 -0.32671112 7.64051624 3.125 7.375 C4.03507812 7.30023438 4.94515625 7.22546875 5.8828125 7.1484375 C6.93082031 7.07496094 6.93082031 7.07496094 8 7 C7.34 6.34 6.68 5.68 6 5 C6.99 5 7.98 5 9 5 C8.67 4.01 8.34 3.02 8 2 C5.36 1.67 2.72 1.34 0 1 C0 0.67 0 0.34 0 0 Z " fill="#3F3A3F" transform="translate(282,151)"/>
<path d="M0 0 C0.33 0.99 0.66 1.98 1 3 C2.98 2.67 4.96 2.34 7 2 C7.28875 2.763125 7.5775 3.52625 7.875 4.3125 C8.96269013 7.15029308 8.96269013 7.15029308 11 10 C9.68 9.67 8.36 9.34 7 9 C6.67 9.66 6.34 10.32 6 11 C5.67 9.35 5.34 7.7 5 6 C4.01 6.33 3.02 6.66 2 7 C-0.1875 6.0625 -0.1875 6.0625 -2 5 C-2 4.01 -2 3.02 -2 2 C-1.34 2 -0.68 2 0 2 C0 1.34 0 0.68 0 0 Z " fill="#181317" transform="translate(113,334)"/>
<path d="M0 0 C0.66 0 1.32 0 2 0 C2 2.31 2 4.62 2 7 C2.66 7 3.32 7 4 7 C4.33 6.34 4.66 5.68 5 5 C5 6.65 5 8.3 5 10 C4.34 10 3.68 10 3 10 C2.71125 10.639375 2.4225 11.27875 2.125 11.9375 C1 14 1 14 -1 15 C-1 12.03 -1 9.06 -1 6 C-0.34 6 0.32 6 1 6 C0.67 4.02 0.34 2.04 0 0 Z " fill="#171416" transform="translate(349,205)"/>
<path d="M0 0 C1.65 1.65 3.3 3.3 5 5 C3.68 5.99 2.36 6.98 1 8 C0.01 7.34 -0.98 6.68 -2 6 C-2.99 6.33 -3.98 6.66 -5 7 C-5.66 5.35 -6.32 3.7 -7 2 C-4.69 2 -2.38 2 0 2 C0 1.34 0 0.68 0 0 Z " fill="#282425" transform="translate(115,330)"/>
<path d="M0 0 C4.31606218 2.90673575 4.31606218 2.90673575 6 5 C5.875 8.8125 5.875 8.8125 5 12 C4.38125 11.505 3.7625 11.01 3.125 10.5 C1.16119096 8.80777227 1.16119096 8.80777227 -1 9 C-0.67 6.03 -0.34 3.06 0 0 Z " fill="#1A1416" transform="translate(347,223)"/>
<path d="M0 0 C0.33 0 0.66 0 1 0 C1.71404789 8.34642647 0.3449235 13.84639381 -4 21 C-4.33 20.01 -4.66 19.02 -5 18 C-5.99 17.67 -6.98 17.34 -8 17 C-6.68 16.01 -5.36 15.02 -4 14 C-4.33 12.68 -4.66 11.36 -5 10 C-3.68 10.99 -2.36 11.98 -1 13 C-0.67 8.71 -0.34 4.42 0 0 Z " fill="#363234" transform="translate(312,168)"/>
<path d="M0 0 C2.31 0 4.62 0 7 0 C7.33 1.65 7.66 3.3 8 5 C5 7 5 7 1 7 C0.67 4.69 0.34 2.38 0 0 Z " fill="#1B161A" transform="translate(292,153)"/>
<path d="M0 0 C1.35439668 2.70879335 1.06501451 5.00933268 1 8 C-2.63 8.33 -6.26 8.66 -10 9 C-6.83047153 5.73991357 -3.60062011 2.77762123 0 0 Z " fill="#F0C520" transform="translate(327,136)"/>
<path d="M0 0 C0 0.66 0 1.32 0 2 C0.66 2.33 1.32 2.66 2 3 C1.67 3.66 1.34 4.32 1 5 C0.01 5 -0.98 5 -2 5 C-2 5.66 -2 6.32 -2 7 C-2.5775 6.773125 -3.155 6.54625 -3.75 6.3125 C-6.12172477 5.73494807 -6.12172477 5.73494807 -8.25 7.4375 C-9.11625 8.2109375 -9.11625 8.2109375 -10 9 C-8.13405729 4.41995879 -5.20913241 0 0 0 Z " fill="#191516" transform="translate(141,117)"/>
<path d="M0 0 C1.32 0.66 2.64 1.32 4 2 C3.67 2.33 3.34 2.66 3 3 C5.31 3.66 7.62 4.32 10 5 C9.01 5.66 8.02 6.32 7 7 C6.67 7.99 6.34 8.98 6 10 C4.35 10 2.7 10 1 10 C1.99 9.34 2.98 8.68 4 8 C4 7.34 4 6.68 4 6 C3.38125 5.896875 2.7625 5.79375 2.125 5.6875 C0 5 0 5 -2 2 C-1.34 1.34 -0.68 0.68 0 0 Z " fill="#2B2828" transform="translate(177,397)"/>
<path d="M0 0 C1 2 1 2 0.5 3.6875 C-0.20234758 6.93585758 0.4383596 9.75496661 1 13 C1.66 12.67 2.32 12.34 3 12 C2.34 13.65 1.68 15.3 1 17 C-0.5 15.75 -0.5 15.75 -2 14 C-2 12.68 -2 11.36 -2 10 C-2.66 10.66 -3.32 11.32 -4 12 C-4 8.13209997 -3.72629646 6.98680587 -2 3.75 C-1.62875 3.04359375 -1.2575 2.3371875 -0.875 1.609375 C-0.58625 1.07828125 -0.2975 0.5471875 0 0 Z " fill="#352D32" transform="translate(336,257)"/>
<path d="M0 0 C-6.54216759 3.94998798 -11.42228293 4.50146657 -19 4 C-19 3.67 -19 3.34 -19 3 C-18.195625 2.87625 -17.39125 2.7525 -16.5625 2.625 C-15.716875 2.41875 -14.87125 2.2125 -14 2 C-13.67 1.34 -13.34 0.68 -13 0 C-11.07421875 -0.44921875 -11.07421875 -0.44921875 -8.6875 -0.6875 C-7.51767578 -0.81705078 -7.51767578 -0.81705078 -6.32421875 -0.94921875 C-4.00712895 -0.99984424 -2.20712606 -0.67173402 0 0 Z " fill="#342E34" transform="translate(207,167)"/>
<path d="M0 0 C3.3 0 6.6 0 10 0 C10 0.33 10 0.66 10 1 C8.02 1.33 6.04 1.66 4 2 C4 2.99 4 3.98 4 5 C1.1875 5.6875 1.1875 5.6875 -2 6 C-3.875 4.625 -3.875 4.625 -5 3 C-5 2.67 -5 2.34 -5 2 C-3.35 2 -1.7 2 0 2 C0 1.34 0 0.68 0 0 Z " fill="#2B282A" transform="translate(212,79)"/>
<path d="M0 0 C1.11196276 3.33588828 1.09809194 4.70572419 0 8 C-2 9.125 -2 9.125 -4 10 C-4.33 10.99 -4.66 11.98 -5 13 C-5.99 13.33 -6.98 13.66 -8 14 C-6.63161019 8.77523892 -4.50572418 5.955176 -1 2 C-0.67 1.34 -0.34 0.68 0 0 Z " fill="#EFC626" transform="translate(293,26)"/>
<path d="M0 0 C2 1 4 2 6 3 C5.64950425 6.24208567 5.43778819 7.61527704 2.9375 9.8125 C2.298125 10.204375 1.65875 10.59625 1 11 C0.67 9.68 0.34 8.36 0 7 C-0.66 7.66 -1.32 8.32 -2 9 C-1.34 6.03 -0.68 3.06 0 0 Z " fill="#2E282A" transform="translate(319,291)"/>
<path d="M0 0 C0.66 0 1.32 0 2 0 C4.667235 5.33447 5.50635262 9.02503906 5 15 C4.34 15.66 3.68 16.32 3 17 C3 14.03 3 11.06 3 8 C2.01 7.67 1.02 7.34 0 7 C-1.125 2.25 -1.125 2.25 0 0 Z M-3 2 C-2.01 3.485 -2.01 3.485 -1 5 C-1.66 5 -2.32 5 -3 5 C-3 4.01 -3 3.02 -3 2 Z " fill="#363034" transform="translate(272,186)"/>
<path d="M0 0 C3 2 3 2 3.6875 5.125 C3.790625 6.07375 3.89375 7.0225 4 8 C2.68 7.67 1.36 7.34 0 7 C-0.33 7.66 -0.66 8.32 -1 9 C0.32 9.33 1.64 9.66 3 10 C2.01 11.32 1.02 12.64 0 14 C0 12.68 0 11.36 0 10 C-0.66 10 -1.32 10 -2 10 C-2.6875 8.375 -2.6875 8.375 -3 6 C-1.5625 2.75 -1.5625 2.75 0 0 Z " fill="#181418" transform="translate(176,147)"/>
<path d="M0 0 C0.66 0.33 1.32 0.66 2 1 C0.75 3.9375 0.75 3.9375 -1 7 C-2.32594105 7.36162029 -3.65938457 7.69728039 -5 8 C-6.21297649 10.2806707 -6.21297649 10.2806707 -7 13 C-7.66666667 14.66666667 -8.33333333 16.33333333 -9 18 C-10 15 -10 15 -8.78515625 12.30078125 C-8.21667969 11.31464844 -7.64820313 10.32851563 -7.0625 9.3125 C-6.49660156 8.31863281 -5.93070313 7.32476562 -5.34765625 6.30078125 C-4.68056641 5.16189453 -4.68056641 5.16189453 -4 4 C-3.34 4 -2.68 4 -2 4 C-1.34 2.68 -0.68 1.36 0 0 Z " fill="#F1C114" transform="translate(234,36)"/>
<path d="M0 0 C0.66 0 1.32 0 2 0 C2 0.66 2 1.32 2 2 C2.99 1.67 3.98 1.34 5 1 C4.34 4.63 3.68 8.26 3 12 C2.67 11.34 2.34 10.68 2 10 C0.68 9.67 -0.64 9.34 -2 9 C-1.34 6.03 -0.68 3.06 0 0 Z " fill="#262224" transform="translate(302,188)"/>
<path d="M0 0 C0.66 0 1.32 0 2 0 C1.67 1.32 1.34 2.64 1 4 C1.66 4 2.32 4 3 4 C3.66 2.68 4.32 1.36 5 0 C4.46930939 3.82097239 3.50298434 6.06171403 1 9 C0.34 7.68 -0.32 6.36 -1 5 C-2.32 6.65 -3.64 8.3 -5 10 C-4.49890042 5.61537866 -3.01704885 3.1999003 0 0 Z " fill="#171214" transform="translate(94,227)"/>
<path d="M0 0 C-0.99 0.495 -0.99 0.495 -2 1 C-2 1.66 -2 2.32 -2 3 C-1.34 3.33 -0.68 3.66 0 4 C-1.375 5.5 -1.375 5.5 -3 7 C-3.66 7 -4.32 7 -5 7 C-5.33 5.68 -5.66 4.36 -6 3 C-6.78375 3.515625 -7.5675 4.03125 -8.375 4.5625 C-9.24125 5.036875 -10.1075 5.51125 -11 6 C-11.66 5.67 -12.32 5.34 -13 5 C-4.738041 -0.74031891 -4.738041 -0.74031891 0 0 Z " fill="#353034" transform="translate(214,155)"/>
<path d="M0 0 C1.09658936 3.28976808 0.79953138 4.71303767 0 8 C0.66 7.67 1.32 7.34 2 7 C2 7.66 2 8.32 2 9 C2.99 9.33 3.98 9.66 5 10 C5.6875 12.0625 5.6875 12.0625 6 14 C0.25 12.125 0.25 12.125 -2 11 C-1.85957123 9.35369672 -1.71250671 7.70795821 -1.5625 6.0625 C-1.48128906 5.14597656 -1.40007812 4.22945312 -1.31640625 3.28515625 C-1 1 -1 1 0 0 Z " fill="#171214" transform="translate(299,188)"/>
<path d="M0 0 C0.33 0.66 0.66 1.32 1 2 C-2.75 6.875 -2.75 6.875 -5 8 C-9.94269981 8.2430836 -13.49009758 8.25495121 -18 6 C-18 5.34 -18 4.68 -18 4 C-16.9790625 4.2165625 -16.9790625 4.2165625 -15.9375 4.4375 C-10.00928494 5.59570509 -10.00928494 5.59570509 -4 6 C-3.566875 5.071875 -3.566875 5.071875 -3.125 4.125 C-2 2 -2 2 0 0 Z " fill="#EDD251" transform="translate(291,134)"/>
<path d="M0 0 C5.44693314 -0.09688221 10.63904667 -0.12862175 16 1 C12.65060119 3.02558881 10.13037449 3.21738987 6.25 3.125 C5.26515625 3.10695313 4.2803125 3.08890625 3.265625 3.0703125 C2.14414063 3.03550781 2.14414063 3.03550781 1 3 C0.67 2.01 0.34 1.02 0 0 Z " fill="#F7C711" transform="translate(233,72)"/>
<path d="M0 0 C3.625 0.375 3.625 0.375 7 1 C3.82730093 6.7352637 3.82730093 6.7352637 -0.125 8 C-1.07375 8 -2.0225 8 -3 8 C-3.66 7.34 -4.32 6.68 -5 6 C-3.02 6 -1.04 6 1 6 C0.01 4.68 -0.98 3.36 -2 2 C-1.34 1.34 -0.68 0.68 0 0 Z " fill="#2D272A" transform="translate(130,343)"/>
<path d="M0 0 C2.08229108 3.12343663 2.23770457 3.53852922 1.9765625 7.01171875 C1.89921875 8.14770508 1.89921875 8.14770508 1.8203125 9.30664062 C1.75585938 10.09232422 1.69140625 10.87800781 1.625 11.6875 C1.56828125 12.48478516 1.5115625 13.28207031 1.453125 14.10351562 C1.31183972 16.06973581 1.15720094 18.03498824 1 20 C0.67 20 0.34 20 0 20 C-0.12375 19.236875 -0.2475 18.47375 -0.375 17.6875 C-0.88102792 14.79732864 -0.88102792 14.79732864 -3 12 C-2.625 9.3125 -2.625 9.3125 -2 7 C-1.34 7.66 -0.68 8.32 0 9 C0 6.03 0 3.06 0 0 Z " fill="#3B3637" transform="translate(113,276)"/>
<path d="M0 0 C2.875 -0.1875 2.875 -0.1875 6 0 C6.66 0.99 7.32 1.98 8 3 C7.01 3 6.02 3 5 3 C7.5654594 5.5654594 9.47686668 5.54046087 13 6 C13 6.33 13 6.66 13 7 C9.37 7 5.74 7 2 7 C2.33 5.68 2.66 4.36 3 3 C2.01 2.67 1.02 2.34 0 2 C0 1.34 0 0.68 0 0 Z " fill="#151114" transform="translate(185,163)"/>
<path d="M0 0 C0.33 0 0.66 0 1 0 C1.30912975 3.94140436 1.34690605 6.36169288 -0.5625 9.875 C-3.70400802 12.61375058 -5.87806617 12.92366789 -10 13 C-10.66 12.34 -11.32 11.68 -12 11 C-9.03 10.34 -6.06 9.68 -3 9 C-3 8.34 -3 7.68 -3 7 C-2.34 6.67 -1.68 6.34 -1 6 C-0.34227572 2.97065509 -0.34227572 2.97065509 0 0 Z " fill="#F2C416" transform="translate(290,128)"/>
<path d="M0 0 C0.66 0.33 1.32 0.66 2 1 C1.67 2.65 1.34 4.3 1 6 C2.32 6.66 3.64 7.32 5 8 C3.35 8.66 1.7 9.32 0 10 C-0.33 9.34 -0.66 8.68 -1 8 C-1.99 7.34 -2.98 6.68 -4 6 C-3.34 6 -2.68 6 -2 6 C-2.83333333 3.83333333 -2.83333333 3.83333333 -5 3 C-2.625 1.4375 -2.625 1.4375 0 0 Z " fill="#363034" transform="translate(166,94)"/>
<path d="M0 0 C0.99 0.33 1.98 0.66 3 1 C2.67 1.33 2.34 1.66 2 2 C2.66 2.33 3.32 2.66 4 3 C4 3.66 4 4.32 4 5 C4.66 5.33 5.32 5.66 6 6 C2.04 6.66 -1.92 7.32 -6 8 C-4.68 7.34 -3.36 6.68 -2 6 C-0.70768358 2.95800528 -0.70768358 2.95800528 0 0 Z " fill="#181214" transform="translate(203,82)"/>
<path d="M0 0 C0.50789063 0.433125 1.01578125 0.86625 1.5390625 1.3125 C5.90564947 4.8755512 5.90564947 4.8755512 11.1875 6.5625 C14.32699529 5.93460094 16.39593665 4.83816237 19 3 C18.6875 4.9375 18.6875 4.9375 18 7 C13.65203004 8.44932332 9.53191646 8.78659059 5 8 C2.51832382 6.21560894 1.61475421 4.69125702 0 2 C0 1.34 0 0.68 0 0 Z " fill="#EBCA58" transform="translate(262,45)"/>
<path d="M0 0 C1.10868317 3.32604951 1.54177532 6.53058454 2 10 C0.68 10 -0.64 10 -2 10 C-2.33 8.68 -2.66 7.36 -3 6 C-3.66 6 -4.32 6 -5 6 C-4.75 4.125 -4.75 4.125 -4 2 C-1.9375 0.75 -1.9375 0.75 0 0 Z " fill="#201B1E" transform="translate(334,266)"/>
<path d="M0 0 C0.125 6.75 0.125 6.75 -1 9 C-3.18380083 7.90809958 -4.42698959 6.8590123 -6 5 C-6 4.01 -6 3.02 -6 2 C-1.125 0 -1.125 0 0 0 Z " fill="#1B1617" transform="translate(104,210)"/>
<path d="M0 0 C0.91058531 3.07322544 1.08886184 5.80097361 1 9 C1.66 9 2.32 9 3 9 C3.33 9.99 3.66 10.98 4 12 C3.67 12.66 3.34 13.32 3 14 C3.99 14.33 4.98 14.66 6 15 C5.34 15 4.68 15 4 15 C3.67 15.66 3.34 16.32 3 17 C-0.71856913 12.31136935 -1.21311999 8.96735977 -1 3 C-0.67 2.01 -0.34 1.02 0 0 Z " fill="#332F30" transform="translate(297,190)"/>
<path d="M0 0 C0.99 0.33 1.98 0.66 3 1 C3 2.66666667 3 4.33333333 3 6 C0.36 6 -2.28 6 -5 6 C-3.63016497 2.83884224 -3.0109362 2.0072908 0 0 Z " fill="#1C1619" transform="translate(128,343)"/>
<path d="M0 0 C0.33 0.99 0.66 1.98 1 3 C1.99 3.33 2.98 3.66 4 4 C-0.75 7 -0.75 7 -3 7 C-3.33 7.99 -3.66 8.98 -4 10 C-4.33 9.34 -4.66 8.68 -5 8 C-2.51612903 1.25806452 -2.51612903 1.25806452 0 0 Z " fill="#302B30" transform="translate(274,158)"/>
<path d="M0 0 C0.99 0.99 1.98 1.98 3 3 C1.92922625 5.1415475 0.68031097 6.31968903 -1 8 C-1.33 8.66 -1.66 9.32 -2 10 C-2.99 10 -3.98 10 -5 10 C-3.66511872 6.40608886 -2.03977277 3.24509304 0 0 Z " fill="#2D282B" transform="translate(121,136)"/>
<path d="M0 0 C1.60080151 4.00200378 0.29279692 7.04556236 -1 11 C-2.32 11.33 -3.64 11.66 -5 12 C-3.68938409 7.76570244 -2.05643741 3.92592596 0 0 Z " fill="#E4C742" transform="translate(260,89)"/>
<path d="M0 0 C0.66 0 1.32 0 2 0 C4 3 4 3 3.86328125 5.15625 C3.68152344 5.9296875 3.49976563 6.703125 3.3125 7.5 C3.14363281 8.2734375 2.97476562 9.046875 2.80078125 9.84375 C1.92039952 12.21433885 0.90007272 13.36687964 -1 15 C-0.9278125 14.08476563 -0.855625 13.16953125 -0.78125 12.2265625 C-0.6884375 11.03804687 -0.595625 9.84953125 -0.5 8.625 C-0.4071875 7.44164063 -0.314375 6.25828125 -0.21875 5.0390625 C-0.09804546 3.36213157 0 1.68126944 0 0 Z " fill="#F5C821" transform="translate(261,80)"/>
<path d="M0 0 C0.33 0.99 0.66 1.98 1 3 C3.01508358 3.73323796 3.01508358 3.73323796 5 4 C5.625 6.375 5.625 6.375 6 9 C5.34 9.66 4.68 10.32 4 11 C3.67 9.68 3.34 8.36 3 7 C2.01 7.33 1.02 7.66 0 8 C0 7.34 0 6.68 0 6 C0.66 6 1.32 6 2 6 C2 5.34 2 4.68 2 4 C-0.475 5.485 -0.475 5.485 -3 7 C-2.690625 6.401875 -2.38125 5.80375 -2.0625 5.1875 C-0.89790296 2.91043228 -0.89790296 2.91043228 0 0 Z " fill="#302D2E" transform="translate(308,390)"/>
<path d="M0 0 C0 1.32 0 2.64 0 4 C-2.31 4.33 -4.62 4.66 -7 5 C-7.33 3.68 -7.66 2.36 -8 1 C-5.29120665 -0.35439668 -2.99066732 -0.06501451 0 0 Z " fill="#1D181A" transform="translate(115,165)"/>
<path d="M0 0 C0.33 0 0.66 0 1 0 C0.53328373 5.41390868 -0.24297811 9.20517932 -3 14 C-3.66 14 -4.32 14 -5 14 C-4.67 12.35 -4.34 10.7 -4 9 C-3.34 9 -2.68 9 -2 9 C-2 6.69 -2 4.38 -2 2 C-1.34 2 -0.68 2 0 2 C0 1.34 0 0.68 0 0 Z " fill="#EECB47" transform="translate(363,162)"/>
<path d="M0 0 C-2.80804268 2.96404505 -5.18315774 5.44499019 -9 7 C-8.1875 3.5625 -8.1875 3.5625 -7 0 C-3.86650268 -1.04449911 -3.01031744 -0.93423645 0 0 Z " fill="#312A2F" transform="translate(161,107)"/>
<path d="M0 0 C0.66 0 1.32 0 2 0 C3.625 2 3.625 2 5 4 C3.8125 5.5625 3.8125 5.5625 2 7 C-0.6875 6.6875 -0.6875 6.6875 -3 6 C-3 5.34 -3 4.68 -3 4 C-2.34 4 -1.68 4 -1 4 C-0.67 2.68 -0.34 1.36 0 0 Z " fill="#181315" transform="translate(111,326)"/>
<path d="M0 0 C1.32830615 3.98491845 0.23204404 5.40048548 -1.4375 9.1875 C-1.91058594 10.27417969 -2.38367188 11.36085937 -2.87109375 12.48046875 C-3.42990234 13.72763672 -3.42990234 13.72763672 -4 15 C-4.33 15 -4.66 15 -5 15 C-5.33 12.03 -5.66 9.06 -6 6 C-4.68 6 -3.36 6 -2 6 C-1.34 4.02 -0.68 2.04 0 0 Z " fill="#373334" transform="translate(98,230)"/>
<path d="M0 0 C0.66 0.99 1.32 1.98 2 3 C0.625 6.6875 0.625 6.6875 -1 10 C-1.66 10 -2.32 10 -3 10 C-3.66 11.32 -4.32 12.64 -5 14 C-4.34580901 8.93001981 -2.1453591 4.58009223 0 0 Z " fill="#363132" transform="translate(94,220)"/>
<path d="M0 0 C1.32830615 3.98491845 0.23204404 5.40048548 -1.4375 9.1875 C-1.91058594 10.27417969 -2.38367188 11.36085937 -2.87109375 12.48046875 C-3.42990234 13.72763672 -3.42990234 13.72763672 -4 15 C-4.33 14.01 -4.66 13.02 -5 12 C-4.67 11.34 -4.34 10.68 -4 10 C-4.66 10 -5.32 10 -6 10 C-6 9.01 -6 8.02 -6 7 C-5.01 7.495 -5.01 7.495 -4 8 C-2.67672028 6.87594198 -2.67672028 6.87594198 -2.5625 4 C-2.376875 3.01 -2.19125 2.02 -2 1 C-1.34 0.67 -0.68 0.34 0 0 Z " fill="#343132" transform="translate(106,210)"/>
<path d="M0 0 C0.99 0 1.98 0 3 0 C2.88637738 1.4800841 2.75877092 2.95910074 2.625 4.4375 C2.52058594 5.67306641 2.52058594 5.67306641 2.4140625 6.93359375 C2.27742188 7.61550781 2.14078125 8.29742187 2 9 C1.01 9.495 1.01 9.495 0 10 C-0.19412181 8.52168779 -0.38012131 7.04230684 -0.5625 5.5625 C-0.66691406 4.73878906 -0.77132813 3.91507812 -0.87890625 3.06640625 C-0.91886719 2.38449219 -0.95882813 1.70257813 -1 1 C-0.67 0.67 -0.34 0.34 0 0 Z " fill="#1C1618" transform="translate(315,310)"/>
<path d="M0 0 C0.33 0 0.66 0 1 0 C1.33 2.97 1.66 5.94 2 9 C1.01 9.33 0.02 9.66 -1 10 C-1.33 9.67 -1.66 9.34 -2 9 C-2.66 9.66 -3.32 10.32 -4 11 C-3.39301257 6.87248551 -1.96189209 3.6678852 0 0 Z " fill="#312E30" transform="translate(113,150)"/>
<path d="M0 0 C4.99213851 0.46801299 9.12963993 2.91715737 13 6 C13 6.66 13 7.32 13 8 C10.03 7.505 10.03 7.505 7 7 C7 6.34 7 5.68 7 5 C3.535 3.02 3.535 3.02 0 1 C0 0.67 0 0.34 0 0 Z " fill="#F6C316" transform="translate(311,23)"/>
<path d="M0 0 C3.83663072 1.34929464 6.65172569 3.07751025 9.8125 5.625 C10.99779297 6.57246094 10.99779297 6.57246094 12.20703125 7.5390625 C12.79871094 8.02117188 13.39039063 8.50328125 14 9 C9.99113032 9 8.28126636 7.20983245 5 5 C2.77397385 4.23060319 2.77397385 4.23060319 1 4 C0.67 2.68 0.34 1.36 0 0 Z " fill="#EECA4B" transform="translate(310,19)"/>
<path d="M0 0 C0.99 0.99 1.98 1.98 3 3 C3 5.0625 3 5.0625 2 7 C-0.5625 8.25 -0.5625 8.25 -3 9 C-2.01 6.03 -1.02 3.06 0 0 Z " fill="#191619" transform="translate(339,252)"/>
<path d="M0 0 C1.0154401 3.04632029 0.98900876 4.2893934 0.5625 7.375 C0.15032955 10.61423699 -0.1055525 13.72787259 0 17 C-0.99 16.34 -1.98 15.68 -3 15 C-2.44854729 9.76119922 -1.57077907 5.02649303 0 0 Z " fill="#3C383C" transform="translate(180,135)"/>
<path d="M0 0 C2.31 0 4.62 0 7 0 C5.73882275 3.88862987 4.54735833 5.89375599 1 8 C0.34 8 -0.32 8 -1 8 C-1 7.01 -1 6.02 -1 5 C0.32 4.67 1.64 4.34 3 4 C2.67 3.01 2.34 2.02 2 1 C1.34 0.67 0.68 0.34 0 0 Z " fill="#2D2A2C" transform="translate(222,126)"/>
<path d="M0 0 C0.33 1.32 0.66 2.64 1 4 C-5.625 4.25 -5.625 4.25 -9 2 C-5.5647952 -0.29013653 -4.014669 -0.17842973 0 0 Z " fill="#1B181A" transform="translate(212,126)"/>
<path d="M0 0 C0.99 0.33 1.98 0.66 3 1 C3 1.66 3 2.32 3 3 C6.465 2.505 6.465 2.505 10 2 C8 5 8 5 6.125 5.75 C3.80466218 6.02298092 2.21024918 5.71043724 0 5 C-0.5625 3.0625 -0.5625 3.0625 -1 1 C-0.67 0.67 -0.34 0.34 0 0 Z " fill="#1B1518" transform="translate(174,91)"/>
<path d="M0 0 C0 0.99 0 1.98 0 3 C0.66 3.33 1.32 3.66 2 4 C1.34 4 0.68 4 0 4 C0.33 4.99 0.66 5.98 1 7 C-0.65 6.67 -2.3 6.34 -4 6 C-4.33 5.01 -4.66 4.02 -5 3 C-2.25 0 -2.25 0 0 0 Z " fill="#1B1718" transform="translate(195,84)"/>
<path d="M0 0 C0.99 0.66 1.98 1.32 3 2 C3 2.66 3 3.32 3 4 C2.01 4.495 2.01 4.495 1 5 C1 5.66 1 6.32 1 7 C1.99 7.33 2.98 7.66 4 8 C1.8614515 10.1385485 0.86724686 10.42655063 -2 11 C-1 3.57142857 -1 3.57142857 0 0 Z " fill="#393033" transform="translate(316,300)"/>
<path d="M0 0 C2.125 0.375 2.125 0.375 4 1 C4 2.98 4 4.96 4 7 C2.68 7 1.36 7 0 7 C-0.66 5.35 -1.32 3.7 -2 2 C-1.34 1.34 -0.68 0.68 0 0 Z " fill="#1A1417" transform="translate(107,173)"/>
<path d="M0 0 C0.33 0 0.66 0 1 0 C1.18451025 9.41002278 1.18451025 9.41002278 0 14 C-0.66 14 -1.32 14 -2 14 C-2.21192221 8.80790596 -1.5912689 4.873261 0 0 Z " fill="#171013" transform="translate(318,316)"/>
<path d="M0 0 C2.23551759 3.35327639 2.17283528 3.90743657 1.625 7.6875 C1.51414062 8.49574219 1.40328125 9.30398437 1.2890625 10.13671875 C1.19367188 10.75160156 1.09828125 11.36648437 1 12 C0.01 12 -0.98 12 -2 12 C-1.34 11.67 -0.68 11.34 0 11 C-0.165 10.38125 -0.33 9.7625 -0.5 9.125 C-1.24100548 5.97572673 -1.4702016 2.9404032 0 0 Z " fill="#140F13" transform="translate(274,191)"/>
<path d="M0 0 C-0.33 2.31 -0.66 4.62 -1 7 C-2.65 7 -4.3 7 -6 7 C-5.60799596 4.15797072 -5.2043974 3.17884772 -3 1.25 C-1 0 -1 0 0 0 Z " fill="#1A1617" transform="translate(268,175)"/>
<path d="M0 0 C0.99 0.66 1.98 1.32 3 2 C3 2.66 3 3.32 3 4 C4.65 4.33 6.3 4.66 8 5 C8 5.33 8 5.66 8 6 C6.54207116 6.05399736 5.08357288 6.09279177 3.625 6.125 C2.81289062 6.14820313 2.00078125 6.17140625 1.1640625 6.1953125 C-1 6 -1 6 -3 4 C-2.67 3.01 -2.34 2.02 -2 1 C-1.34 0.67 -0.68 0.34 0 0 Z " fill="#383436" transform="translate(213,129)"/>
<path d="M0 0 C0.99 0 1.98 0 3 0 C5.42857143 6.28571429 5.42857143 6.28571429 4 10 C0 4.5 0 4.5 0 0 Z " fill="#F6C613" transform="translate(354,70)"/>
<path d="M0 0 C-2.63904371 1.41377341 -5.07120629 2.37240135 -8 3 C-8.33 4.65 -8.66 6.3 -9 8 C-9.66 8 -10.32 8 -11 8 C-11 6.35 -11 4.7 -11 3 C-11.66 2.67 -12.32 2.34 -13 2 C-4.57142857 -0.28571429 -4.57142857 -0.28571429 0 0 Z " fill="#FBC50F" transform="translate(249,34)"/>
<path d="M0 0 C0.33 0 0.66 0 1 0 C1.09706112 6.11485027 0.77040851 11.93303301 0 18 C-0.33 18 -0.66 18 -1 18 C-1.99989549 11.40609458 -2.00925164 6.38232875 0 0 Z " fill="#0E0A09" transform="translate(112,288)"/>
<path d="M0 0 C0.66 0.33 1.32 0.66 2 1 C1.02433888 2.16959987 0.044375 3.33561177 -0.9375 4.5 C-1.48277344 5.1496875 -2.02804687 5.799375 -2.58984375 6.46875 C-3.05519531 6.9740625 -3.52054687 7.479375 -4 8 C-4.33 8 -4.66 8 -5 8 C-5.3125 5.6875 -5.3125 5.6875 -5 3 C-2.625 1.125 -2.625 1.125 0 0 Z " fill="#EAC42C" transform="translate(299,102)"/>
<path d="M0 0 C0.33 0 0.66 0 1 0 C1.66 3.96 2.32 7.92 3 12 C2.67 11.34 2.34 10.68 2 10 C1.01 10.33 0.02 10.66 -1 11 C-1.14285714 3.57142857 -1.14285714 3.57142857 0 0 Z " fill="#151014" transform="translate(88,251)"/>
<path d="M0 0 C2 3 2 3 1.625 5.1875 C1.41875 5.785625 1.2125 6.38375 1 7 C0.34 7 -0.32 7 -1 7 C-1.66 8.98 -2.32 10.96 -3 13 C-4.23593891 9.29218328 -3.5678132 8.32489747 -2.0625 4.8125 C-1.68222656 3.91144531 -1.30195313 3.01039063 -0.91015625 2.08203125 C-0.60980469 1.39496094 -0.30945313 0.70789063 0 0 Z " fill="#4B4048" transform="translate(341,243)"/>
<path d="M0 0 C0 3.3 0 6.6 0 10 C-1 8 -2 6 -3 4 C-3.99 4.495 -3.99 4.495 -5 5 C-5 3.68 -5 2.36 -5 1 C-1.125 0 -1.125 0 0 0 Z " fill="#3E383F" transform="translate(269,168)"/>
<path d="M0 0 C1.49660156 0.57427734 1.49660156 0.57427734 3.0234375 1.16015625 C4.02632812 1.54042969 5.02921875 1.92070313 6.0625 2.3125 C6.83335937 2.61285156 7.60421875 2.91320312 8.3984375 3.22265625 C7.4084375 3.55265625 6.4184375 3.88265625 5.3984375 4.22265625 C5.0684375 4.88265625 4.7384375 5.54265625 4.3984375 6.22265625 C4.3984375 5.23265625 4.3984375 4.24265625 4.3984375 3.22265625 C3.0990625 3.09890625 1.7996875 2.97515625 0.4609375 2.84765625 C-1.75390625 2.63671875 -1.75390625 2.63671875 -3.6015625 2.22265625 C-3.9315625 1.56265625 -4.2615625 0.90265625 -4.6015625 0.22265625 C-2.6015625 -0.77734375 -2.6015625 -0.77734375 0 0 Z " fill="#3A3138" transform="translate(207.6015625,122.77734375)"/>
<path d="M0 0 C0.66 0.33 1.32 0.66 2 1 C2 2.32 2 3.64 2 5 C2.66 5 3.32 5 4 5 C4.33 4.34 4.66 3.68 5 3 C5 3.99 5 4.98 5 6 C2.69 6.33 0.38 6.66 -2 7 C-1.125 1.125 -1.125 1.125 0 0 Z " fill="#1B1418" transform="translate(168,94)"/>
<path d="M0 0 C1.9375 0.8125 1.9375 0.8125 4 2 C4.33 2.99 4.66 3.98 5 5 C4.34 5 3.68 5 3 5 C2.67 5.66 2.34 6.32 2 7 C0 5 0 5 -0.125 2.375 C-0.08375 1.59125 -0.0425 0.8075 0 0 Z " fill="#171516" transform="translate(165,348)"/>
<path d="M0 0 C1.32 0 2.64 0 4 0 C3.67 2.31 3.34 4.62 3 7 C2.01 6.67 1.02 6.34 0 6 C0 4.02 0 2.04 0 0 Z " fill="#191619" transform="translate(303,160)"/>
<path d="M0 0 C0.99 0 1.98 0 3 0 C2.45276317 3.37462715 1.9451 5.08235 0 8 C0 7.01 0 6.02 0 5 C-0.99 4.67 -1.98 4.34 -3 4 C-1.6875 2 -1.6875 2 0 0 Z " fill="#332A2F" transform="translate(347,244)"/>
<path d="M0 0 C1.10336858 3.31010574 1.13531135 5.6813976 0 9 C-2.0625 10.3125 -2.0625 10.3125 -4 11 C-3.34 8.36 -2.68 5.72 -2 3 C-1.34 3 -0.68 3 0 3 C0 2.01 0 1.02 0 0 Z " fill="#221E22" transform="translate(107,183)"/>
<path d="M0 0 C1.4540625 0.0309375 1.4540625 0.0309375 2.9375 0.0625 C2.9375 1.0525 2.9375 2.0425 2.9375 3.0625 C0.9575 3.3925 -1.0225 3.7225 -3.0625 4.0625 C-3.3925 3.0725 -3.7225 2.0825 -4.0625 1.0625 C-3.0625 0.0625 -3.0625 0.0625 0 0 Z " fill="#1F1B1F" transform="translate(288.0625,152.9375)"/>
<path d="M0 0 C2.31 0 4.62 0 7 0 C4.54859213 2.45140787 2.17758693 3.63817703 -1 5 C-1.99 4.67 -2.98 4.34 -4 4 C-3.34 4 -2.68 4 -2 4 C-1.34 2.68 -0.68 1.36 0 0 Z " fill="#423B3E" transform="translate(175,96)"/>
<path d="M0 0 C0.99 1.485 0.99 1.485 2 3 C2.99 3 3.98 3 5 3 C5.66 4.98 6.32 6.96 7 9 C3.34683329 7.75023244 2.21934164 7.32901247 0 4 C0 2.68 0 1.36 0 0 Z " fill="#F4C610" transform="translate(225,64)"/>
<path d="M0 0 C0.33 0.99 0.66 1.98 1 3 C1.66 3 2.32 3 3 3 C2.67 4.32 2.34 5.64 2 7 C0.68 6.34 -0.64 5.68 -2 5 C-2 4.01 -2 3.02 -2 2 C-1.34 2 -0.68 2 0 2 C0 1.34 0 0.68 0 0 Z " fill="#1F1A1E" transform="translate(113,334)"/>
<path d="M0 0 C0.66 0.33 1.32 0.66 2 1 C2.625 4.0625 2.625 4.0625 3 7 C1.66666667 7.66666667 0.33333333 8.33333333 -1 9 C-0.67 6.03 -0.34 3.06 0 0 Z " fill="#181314" transform="translate(312,323)"/>
<path d="M0 0 C0.66 0.33 1.32 0.66 2 1 C2 2.65 2 4.3 2 6 C0.66666667 6 -0.66666667 6 -2 6 C-2 4.35 -2 2.7 -2 1 C-1.34 0.67 -0.68 0.34 0 0 Z " fill="#1A1316" transform="translate(112,279)"/>
<path d="M0 0 C-0.33 1.65 -0.66 3.3 -1 5 C-1.33 4.34 -1.66 3.68 -2 3 C-2.99 3.33 -3.98 3.66 -5 4 C-5.66 2.68 -6.32 1.36 -7 0 C-4.3333581 -1.33332095 -2.83319697 -0.67102033 0 0 Z " fill="#322C30" transform="translate(347,252)"/>
<path d="M0 0 C0.99 0 1.98 0 3 0 C3 0.66 3 1.32 3 2 C3.66 2.33 4.32 2.66 5 3 C3.02 3.66 1.04 4.32 -1 5 C-1.99 4.01 -2.98 3.02 -4 2 C-2.68 2 -1.36 2 0 2 C0 1.34 0 0.68 0 0 Z " fill="#1E1C1D" transform="translate(221,127)"/>
<path d="M0 0 C0 0.99 0 1.98 0 3 C-2.64 3.66 -5.28 4.32 -8 5 C-7.25 3.0625 -7.25 3.0625 -6 1 C-3.86997684 0.20124132 -2.26695035 0 0 0 Z " fill="#352F30" transform="translate(190,91)"/>
<path d="M0 0 C0.66 0.66 1.32 1.32 2 2 C-1.46902655 4.10619469 -1.46902655 4.10619469 -3.875 3.625 C-4.57625 3.41875 -5.2775 3.2125 -6 3 C-7.99963028 2.96154557 -10.00051633 2.95455719 -12 3 C-12 2.67 -12 2.34 -12 2 C-10.95199219 1.90912109 -10.95199219 1.90912109 -9.8828125 1.81640625 C-8.97273437 1.73261719 -8.06265625 1.64882812 -7.125 1.5625 C-6.22007812 1.48128906 -5.31515625 1.40007812 -4.3828125 1.31640625 C-1.98889139 1.13010715 -1.98889139 1.13010715 0 0 Z " fill="#382B35" transform="translate(224,85)"/>
<path d="M0 0 C2.31 0 4.62 0 7 0 C7.33 0.66 7.66 1.32 8 2 C6.1875 3.0625 6.1875 3.0625 4 4 C3.01 3.67 2.02 3.34 1 3 C0.67 2.01 0.34 1.02 0 0 Z " fill="#141213" transform="translate(215,80)"/>
<path d="M0 0 C0.33 0.66 0.66 1.32 1 2 C-5.75 3.125 -5.75 3.125 -8 2 C-8 1.34 -8 0.68 -8 0 C-5.09660535 -1.45169732 -3.09125158 -0.72348441 0 0 Z " fill="#171414" transform="translate(309,205)"/>
<path d="M0 0 C0.66 0.33 1.32 0.66 2 1 C1.01 2.485 1.01 2.485 0 4 C0.33 4.99 0.66 5.98 1 7 C-0.65 6.67 -2.3 6.34 -4 6 C-2.84826645 3.53199953 -1.95216435 1.95216435 0 0 Z " fill="#373337" transform="translate(267,157)"/>
<path d="M0 0 C0.66 0.33 1.32 0.66 2 1 C2 3.31 2 5.62 2 8 C1.34 8 0.68 8 0 8 C-0.33 8.66 -0.66 9.32 -1 10 C-0.67 6.7 -0.34 3.4 0 0 Z " fill="#F7C710" transform="translate(289,114)"/>
<path d="M0 0 C0.66 0.33 1.32 0.66 2 1 C1.01 2.485 1.01 2.485 0 4 C0.33 4.66 0.66 5.32 1 6 C-1.97 5.505 -1.97 5.505 -5 5 C-5 4.01 -5 3.02 -5 2 C-2.625 0.9375 -2.625 0.9375 0 0 Z " fill="#191315" transform="translate(187,86)"/>
<path d="M0 0 C1.32 0.33 2.64 0.66 4 1 C4.33 2.32 4.66 3.64 5 5 C3.35 4.67 1.7 4.34 0 4 C0 2.68 0 1.36 0 0 Z " fill="#EEC727" transform="translate(352,65)"/>
<path d="M0 0 C0.66 0.33 1.32 0.66 2 1 C1.67 2.32 1.34 3.64 1 5 C0.34 5 -0.32 5 -1 5 C-1.33 5.66 -1.66 6.32 -2 7 C-2.66 6.67 -3.32 6.34 -4 6 C-2.25 1.125 -2.25 1.125 0 0 Z " fill="#262526" transform="translate(170,352)"/>
<path d="M0 0 C0.99 0.33 1.98 0.66 3 1 C2.34 4.3 1.68 7.6 1 11 C0.67 11 0.34 11 0 11 C0 7.37 0 3.74 0 0 Z " fill="#1A1215" transform="translate(105,303)"/>
<path d="M0 0 C0.33 0 0.66 0 1 0 C1.33 2.97 1.66 5.94 2 9 C0.68 8.67 -0.64 8.34 -2 8 C-1.47731534 5.23723823 -0.89130413 2.6739124 0 0 Z " fill="#1A1315" transform="translate(319,295)"/>
<path d="M0 0 C0.66 0 1.32 0 2 0 C2 0.66 2 1.32 2 2 C1.34 2 0.68 2 0 2 C0 3.32 0 4.64 0 6 C-1.9375 5.1875 -1.9375 5.1875 -4 4 C-4.33 3.01 -4.66 2.02 -5 1 C-3.68 1 -2.36 1 -1 1 C-0.67 0.67 -0.34 0.34 0 0 Z " fill="#2E2A2D" transform="translate(88,261)"/>
<path d="M0 0 C5.625 -0.25 5.625 -0.25 9 2 C9 2.66 9 3.32 9 4 C6.03 3.01 3.06 2.02 0 1 C0 0.67 0 0.34 0 0 Z " fill="#EED070" transform="translate(335,170)"/>
<path d="M0 0 C0 3 0 3 -1 6 C-2.65 6 -4.3 6 -6 6 C-4 4 -2 2 0 0 Z " fill="#EAC333" transform="translate(327,136)"/>
<path d="M0 0 C2.3125 0.5625 2.3125 0.5625 5 2 C6.34776978 4.27962623 7.11364216 6.48087772 8 9 C7.34 9 6.68 9 6 9 C5.9175 8.21625 5.835 7.4325 5.75 6.625 C5.28474077 3.85955198 5.28474077 3.85955198 3 2.8125 C2.34 2.544375 1.68 2.27625 1 2 C0.67 1.34 0.34 0.68 0 0 Z " fill="#EFC625" transform="translate(326,107)"/>
<path d="M0 0 C1.12377697 3.30435084 0.89554742 5.0506862 -0.4375 8.25 C-0.72496094 8.95640625 -1.01242188 9.6628125 -1.30859375 10.390625 C-1.53675781 10.92171875 -1.76492187 11.4528125 -2 12 C-2.33 12 -2.66 12 -3 12 C-3.34833144 7.12335991 -2.41685712 4.22949995 0 0 Z " fill="#F9C810" transform="translate(227,48)"/>
<path d="M0 0 C1.32 0 2.64 0 4 0 C2.25 5.75 2.25 5.75 0 8 C0 5.36 0 2.72 0 0 Z " fill="#332F31" transform="translate(119,149)"/>
<path d="M0 0 C0.66 0.33 1.32 0.66 2 1 C1.34 2.65 0.68 4.3 0 6 C-1.65 6 -3.3 6 -5 6 C-4.67 5.34 -4.34 4.68 -4 4 C-3.34 4 -2.68 4 -2 4 C-1.34 2.68 -0.68 1.36 0 0 Z " fill="#F4C826" transform="translate(234,36)"/>
</svg>
