<?xml version="1.0" encoding="UTF-8"?>
<svg version="1.1" xmlns="http://www.w3.org/2000/svg" width="475" height="439">
<path d="M0 0 C156.75 0 313.5 0 475 0 C475 144.87 475 289.74 475 439 C318.25 439 161.5 439 0 439 C0 294.13 0 149.26 0 0 Z " fill="#FEFEFE" transform="translate(0,0)"/>
<path d="M0 0 C4.65203502 5.7466315 3.46339536 12.98803695 3.5300293 20.08959961 C3.55152236 21.80920603 3.58552146 23.52870565 3.63256836 25.24780273 C4.09851232 42.44130068 4.09851232 42.44130068 -1.28491211 49.22436523 C-4.58742379 52.1333948 -8.65787876 52.125 -12.859375 52.125 C-16.62835529 51.50009135 -19.62621025 49.93488643 -22.9375 48.125 C-27.63109464 45.57979278 -31.58401419 43.56391597 -37.04296875 44.0703125 C-41.33526132 45.36989788 -43.18689772 48.67589341 -45.6875 52.125 C-47.89338273 58.62654909 -47.9383882 65.7386606 -45.5625 72.1875 C-45.005625 72.991875 -44.44875 73.79625 -43.875 74.625 C-43.38 75.388125 -42.885 76.15125 -42.375 76.9375 C-40.10890925 79.48685209 -37.8695625 79.62582076 -34.5625 80.125 C-30.11361044 80.125 -26.80787154 78.2028579 -23 76.125 C-17.20771374 72.99691802 -12.47205088 71.2804582 -5.875 72.625 C-1.60550993 74.20285503 0.08955964 76.67019073 2.27139282 80.60699463 C3.7378011 84.0737178 3.70870712 87.42854714 3.69921875 91.1484375 C3.71338333 91.93521881 3.72754791 92.72200012 3.74214172 93.53262329 C3.78376513 96.02189159 3.79923967 98.51043387 3.8125 101 C3.8415485 103.51065488 3.87600734 106.0211271 3.91499329 108.53164673 C3.9375066 110.08850806 3.95331024 111.64548338 3.96183777 113.20248413 C3.67586456 116.70654744 3.67586456 116.70654744 5.125 119.625 C7.53816621 119.76299854 9.92075488 119.83805611 12.3359375 119.86328125 C13.05987701 119.871353 13.78381653 119.87942474 14.5296936 119.88774109 C16.06469315 119.90159495 17.59972366 119.91231127 19.13476562 119.92016602 C21.4836664 119.9373803 23.83116012 119.98125094 26.1796875 120.02539062 C27.66926046 120.03551716 29.15884541 120.04403339 30.6484375 120.05078125 C31.70325821 120.07704338 31.70325821 120.07704338 32.77938843 120.10383606 C36.01737484 120.08942263 37.68820633 120.03404188 40.10009766 117.77539062 C41.58403625 114.66187678 41.03526853 112.92065974 40.125 109.625 C39.19115384 107.3673208 38.18788963 105.13737492 37.125 102.9375 C33.75624232 95.9165555 31.59203056 90.13373366 34.1875 82.5 C36.70418227 78.76556825 39.49264566 76.25328891 43.125 73.625 C43.95257813 72.99851563 43.95257813 72.99851563 44.796875 72.359375 C51.32629282 68.25682044 59.70664151 68.58848787 67.125 69.625 C74.56200217 71.63307944 79.87513153 75.1853138 84.125 81.625 C86.39894973 86.17289945 85.78293321 91.72134152 85.125 96.625 C83.71683186 100.4298385 81.71423974 103.84878822 79.65625 107.3359375 C77.90529194 111.09692394 77.60610724 113.52375146 78.125 117.625 C82.05372484 120.24414989 85.43272154 119.92202979 89.9921875 119.93359375 C91.78255532 119.95875499 93.57291983 119.984153 95.36328125 120.00976562 C98.18309665 120.03849916 101.00285447 120.06251901 103.82275391 120.08129883 C106.54620256 120.10298158 109.26897385 120.14242426 111.9921875 120.18359375 C112.83192108 120.18370956 113.67165466 120.18382538 114.53683472 120.1839447 C119.21682118 120.26288718 122.31423345 120.60702469 126.125 123.625 C130.59588866 130.22360074 128.01647252 140.49891045 126.8828125 147.84375 C123.75944641 163.42838082 117.29482616 177.72838021 109.75 191.625 C104.06623289 202.33308278 99.52149722 212.99111464 96.125 224.625 C95.62419922 226.33623047 95.62419922 226.33623047 95.11328125 228.08203125 C90.14068029 247.36602035 90.77620389 267.67417857 90.74414062 287.42114258 C90.73461808 290.92043984 90.70090558 294.41886734 90.6640625 297.91796875 C90.66910797 298.97638474 90.67415344 300.03480072 90.67935181 301.12528992 C90.58675949 308.10061312 89.63722076 313.93542391 84.67788696 319.14518738 C80.27551853 322.98602349 76.80524039 324.87078448 70.98356628 324.89242554 C69.94482864 324.90095551 68.906091 324.90948547 67.83587646 324.91827393 C66.70176331 324.91736755 65.56765015 324.91646118 64.39916992 324.91552734 C63.20038712 324.92224457 62.00160431 324.92896179 60.76649475 324.93588257 C57.48120291 324.9516264 54.19606281 324.95823771 50.91073775 324.95951414 C48.85631146 324.96093692 46.80191156 324.96520894 44.74749184 324.97050858 C37.57472683 324.98900814 30.40203612 324.99717947 23.22924805 324.99560547 C16.55245908 324.99440475 9.87599374 325.01549325 3.19928664 325.0470928 C-2.54014946 325.07328439 -8.27948007 325.08397153 -14.01897544 325.08269465 C-17.44371812 325.08218577 -20.86817327 325.08782735 -24.29285622 325.10905075 C-28.11583906 325.12865079 -31.93799003 325.12289488 -35.76098633 325.11083984 C-36.88902679 325.12207886 -38.01706726 325.13331787 -39.17929077 325.14489746 C-46.50398262 325.08622019 -51.05181249 324.12448514 -56.58203125 319.0625 C-61.06688339 313.23060747 -62.16913976 309.56641261 -62.21875 302.2109375 C-62.2333728 301.40008698 -62.24799561 300.58923645 -62.26306152 299.7538147 C-62.32526088 296.29078646 -62.36503465 292.82758385 -62.40673828 289.36425781 C-62.44039566 286.83379166 -62.48551138 284.30370935 -62.53125 281.7734375 C-62.53916565 280.59374893 -62.53916565 280.59374893 -62.54724121 279.39022827 C-62.46433233 275.04178041 -62.46433233 275.04178041 -64.875 271.625 C-67.5918984 271.33514855 -67.5918984 271.33514855 -70.7734375 271.38671875 C-71.97613281 271.37060547 -73.17882812 271.35449219 -74.41796875 271.33789062 C-76.93354392 271.3212227 -79.44922205 271.31565253 -81.96484375 271.32226562 C-93.41639865 271.13403752 -104.64027519 268.05494458 -112.875 259.625 C-124.63895239 244.37455366 -123.79507952 229.4279917 -121.5871582 211.18408203 C-120.09485381 202.96668739 -120.09485381 202.96668739 -122.40625 195.46484375 C-126.20010949 192.63745796 -130.25709819 190.3657114 -134.38671875 188.06835938 C-139.08482751 185.36296142 -142.3906236 182.59375281 -144.875 177.625 C-145.71092422 170.15772099 -144.11600025 164.36931744 -141.19140625 157.56640625 C-140.81644516 156.65543686 -140.44148407 155.74446747 -140.05516052 154.80589294 C-138.86561346 151.92598003 -137.65226475 149.05685395 -136.4375 146.1875 C-135.62531881 144.23570531 -134.81475625 142.28323624 -134.00585938 140.33007812 C-132.23257831 136.05125049 -130.44378139 131.77928325 -128.64064026 127.51295471 C-127.37944567 124.40303692 -126.72481311 121.73306227 -126.515625 118.40625 C-124.19860086 86.40062784 -112.24517613 56.23073111 -88.875 33.625 C-88.01003906 32.77421875 -87.14507812 31.9234375 -86.25390625 31.046875 C-71.05453012 16.62749459 -20.95840451 -17.1615921 0 0 Z " fill="#FDFDFD" transform="translate(226.875,82.375)"/>
<path d="M0 0 C2.0625 1.375 2.0625 1.375 4 3 C5.64797236 3.71162443 7.31165408 4.39031953 9 5 C9 5.66 9 6.32 9 7 C11.12953208 8.10420182 13.15701249 9.0523375 15.4375 9.8125 C18.74112185 11.34344671 20.50793778 13.33407298 23 16 C24.28944454 17.27308795 25.58130493 18.54373162 26.875 19.8125 C37.81607269 30.77413862 48.37369585 43.42275744 54 58 C54.38929688 58.90492187 54.77859375 59.80984375 55.1796875 60.7421875 C57.90043904 67.06914227 60.33309245 73.31353468 62 80 C62.27972656 81.10085937 62.55945313 82.20171875 62.84765625 83.3359375 C68.44451694 108.58689036 64.91066474 134.35526685 55 158 C54.34 158 53.68 158 53 158 C53 158.66 53 159.32 53 160 C45.60958613 161.03465794 40.48393364 158.04508168 34.171875 154.62890625 C31.67485302 153.34656861 29.73049517 152.47986425 27 152 C27 151.34 27 150.68 27 150 C26.175 149.938125 25.35 149.87625 24.5 149.8125 C18.97941833 148.5309364 14.60740168 145.95902079 11 141.5625 C9.35816642 137.35530145 9.39715239 134.39606814 11.1875 130.25 C13.29402187 127.63500733 14.92321213 127.18337995 18 126 C18.69937532 124.68352881 19.36729133 123.34977849 20 122 C22.0625 120.875 22.0625 120.875 24 120 C24.33 119.34 24.66 118.68 25 118 C25.66 118 26.32 118 27 118 C29.88616722 110.78458196 29.77173313 104.14815387 27 97 C25.515 96.505 25.515 96.505 24 96 C23.67 95.01 23.34 94.02 23 93 C15.71599337 88.1150218 7.67928983 86.11969168 -1 87 C-6.05635345 88.22810862 -9.1586907 90.62875492 -12 95 C-12.97864682 97.93594045 -13.12370836 99.87059535 -13.140625 102.9296875 C-13.16962891 104.37021484 -13.16962891 104.37021484 -13.19921875 105.83984375 C-13.23293887 107.85526911 -13.25129185 109.87101302 -13.25390625 111.88671875 C-13.44092497 119.23950737 -13.44092497 119.23950737 -16.3203125 123.15625 C-19.20549122 125.14138755 -21.17506746 125.71304144 -24.68359375 125.5 C-28.5114127 124.67375915 -31.89087809 123.01927596 -35.38671875 121.2890625 C-37.88522316 120.05661638 -40.40177216 119.0018392 -43 118 C-43 117.34 -43 116.68 -43 116 C-43.66 115.9175 -44.32 115.835 -45 115.75 C-49.0408127 114.73979683 -53.98769751 113.01230249 -57 110 C-57.52618714 104.29759979 -56.83492674 99.39009729 -55 94 C-54.34 94 -53.68 94 -53 94 C-52.896875 93.46375 -52.79375 92.9275 -52.6875 92.375 C-51.50285811 88.28260075 -49.33428421 84.64285426 -47.375 80.875 C-46.25148492 78.5258321 -45.48811662 76.53820643 -45 74 C-44.34 74 -43.68 74 -43 74 C-43.06000106 72.3739713 -43.1487885 70.74898451 -43.25 69.125 C-43.29640625 68.22007813 -43.3428125 67.31515625 -43.390625 66.3828125 C-43.75079442 63.84009319 -43.75079442 63.84009319 -45.984375 62.7421875 C-46.64953125 62.49726562 -47.3146875 62.25234375 -48 62 C-48.33 61.67 -48.66 61.34 -49 61 C-50.49025773 60.87922387 -51.98565452 60.82045345 -53.48046875 60.7890625 C-54.39763672 60.76070312 -55.31480469 60.73234375 -56.25976562 60.703125 C-58.1918766 60.65156767 -60.12419288 60.60714609 -62.05664062 60.5703125 C-68.41061374 60.35747879 -73.13599091 59.77561375 -77.8984375 55.16015625 C-82.33819357 48.85288374 -83.03522365 43.5985416 -82 36 C-80.77466064 30.3745784 -78.31336668 26.79987065 -74 23 C-72.7315625 21.63875 -72.7315625 21.63875 -71.4375 20.25 C-67.38497868 16.50921109 -62.89336923 16.60101888 -57.54296875 16.6484375 C-53.4783908 17.21036072 -50.82222755 19.09427459 -48 22 C-46.875 24 -46.875 24 -46 26 C-45.154375 26.845625 -44.30875 27.69125 -43.4375 28.5625 C-41 31 -41 31 -40 34 C-39.34 34 -38.68 34 -38 34 C-37.67 34.66 -37.34 35.32 -37 36 C-30.88497539 36.8849266 -30.88497539 36.8849266 -25.36328125 34.79296875 C-22.46257663 30.88571047 -20.87008755 26.37011047 -19.1796875 21.84375 C-16.89972728 16.34768695 -13.89625502 11.1904795 -11 6 C-10.34 6 -9.68 6 -9 6 C-8.814375 4.7934375 -8.814375 4.7934375 -8.625 3.5625 C-8.41875 2.716875 -8.2125 1.87125 -8 1 C-5.19084526 -0.40457737 -3.11189466 -0.24895157 0 0 Z " fill="#FDC903" transform="translate(305,16)"/>
<path d="M0 0 C4.65203502 5.7466315 3.46339536 12.98803695 3.5300293 20.08959961 C3.55152236 21.80920603 3.58552146 23.52870565 3.63256836 25.24780273 C4.09851232 42.44130068 4.09851232 42.44130068 -1.28491211 49.22436523 C-4.58742379 52.1333948 -8.65787876 52.125 -12.859375 52.125 C-16.62835529 51.50009135 -19.62621025 49.93488643 -22.9375 48.125 C-27.63109464 45.57979278 -31.58401419 43.56391597 -37.04296875 44.0703125 C-41.33526132 45.36989788 -43.18689772 48.67589341 -45.6875 52.125 C-47.89338273 58.62654909 -47.9383882 65.7386606 -45.5625 72.1875 C-45.005625 72.991875 -44.44875 73.79625 -43.875 74.625 C-43.38 75.388125 -42.885 76.15125 -42.375 76.9375 C-40.10890925 79.48685209 -37.8695625 79.62582076 -34.5625 80.125 C-30.11361044 80.125 -26.80787154 78.2028579 -23 76.125 C-17.20771374 72.99691802 -12.47205088 71.2804582 -5.875 72.625 C-1.60550993 74.20285503 0.08955964 76.67019073 2.27139282 80.60699463 C3.7378011 84.0737178 3.70870712 87.42854714 3.69921875 91.1484375 C3.71338333 91.93521881 3.72754791 92.72200012 3.74214172 93.53262329 C3.78376513 96.02189159 3.79923967 98.51043387 3.8125 101 C3.8415485 103.51065488 3.87600734 106.0211271 3.91499329 108.53164673 C3.9375066 110.08850806 3.95331024 111.64548338 3.96183777 113.20248413 C3.67586456 116.70654744 3.67586456 116.70654744 5.125 119.625 C7.53816621 119.76299854 9.92075488 119.83805611 12.3359375 119.86328125 C13.05987701 119.871353 13.78381653 119.87942474 14.5296936 119.88774109 C16.06469315 119.90159495 17.59972366 119.91231127 19.13476562 119.92016602 C21.4836664 119.9373803 23.83116012 119.98125094 26.1796875 120.02539062 C27.66926046 120.03551716 29.15884541 120.04403339 30.6484375 120.05078125 C31.70325821 120.07704338 31.70325821 120.07704338 32.77938843 120.10383606 C36.01737484 120.08942263 37.68820633 120.03404188 40.10009766 117.77539062 C41.58403625 114.66187678 41.03526853 112.92065974 40.125 109.625 C39.19115384 107.3673208 38.18788963 105.13737492 37.125 102.9375 C33.75624232 95.9165555 31.59203056 90.13373366 34.1875 82.5 C36.70418227 78.76556825 39.49264566 76.25328891 43.125 73.625 C43.95257813 72.99851563 43.95257813 72.99851563 44.796875 72.359375 C51.32629282 68.25682044 59.70664151 68.58848787 67.125 69.625 C74.56200217 71.63307944 79.87513153 75.1853138 84.125 81.625 C86.39894973 86.17289945 85.78293321 91.72134152 85.125 96.625 C83.71683186 100.4298385 81.71423974 103.84878822 79.65625 107.3359375 C77.90529194 111.09692394 77.60610724 113.52375146 78.125 117.625 C82.05372484 120.24414989 85.43272154 119.92202979 89.9921875 119.93359375 C91.78255532 119.95875499 93.57291983 119.984153 95.36328125 120.00976562 C98.18309665 120.03849916 101.00285447 120.06251901 103.82275391 120.08129883 C106.54620256 120.10298158 109.26897385 120.14242426 111.9921875 120.18359375 C112.83192108 120.18370956 113.67165466 120.18382538 114.53683472 120.1839447 C119.21682118 120.26288718 122.31423345 120.60702469 126.125 123.625 C130.59588866 130.22360074 128.01647252 140.49891045 126.8828125 147.84375 C123.75944641 163.42838082 117.29482616 177.72838021 109.75 191.625 C104.06623289 202.33308278 99.52149722 212.99111464 96.125 224.625 C95.62419922 226.33623047 95.62419922 226.33623047 95.11328125 228.08203125 C90.14068029 247.36602035 90.77620389 267.67417857 90.74414062 287.42114258 C90.73461808 290.92043984 90.70090558 294.41886734 90.6640625 297.91796875 C90.66910797 298.97638474 90.67415344 300.03480072 90.67935181 301.12528992 C90.58675949 308.10061312 89.63722076 313.93542391 84.67788696 319.14518738 C80.27551853 322.98602349 76.80524039 324.87078448 70.98356628 324.89242554 C69.94482864 324.90095551 68.906091 324.90948547 67.83587646 324.91827393 C66.70176331 324.91736755 65.56765015 324.91646118 64.39916992 324.91552734 C63.20038712 324.92224457 62.00160431 324.92896179 60.76649475 324.93588257 C57.48120291 324.9516264 54.19606281 324.95823771 50.91073775 324.95951414 C48.85631146 324.96093692 46.80191156 324.96520894 44.74749184 324.97050858 C37.57472683 324.98900814 30.40203612 324.99717947 23.22924805 324.99560547 C16.55245908 324.99440475 9.87599374 325.01549325 3.19928664 325.0470928 C-2.54014946 325.07328439 -8.27948007 325.08397153 -14.01897544 325.08269465 C-17.44371812 325.08218577 -20.86817327 325.08782735 -24.29285622 325.10905075 C-28.11583906 325.12865079 -31.93799003 325.12289488 -35.76098633 325.11083984 C-36.88902679 325.12207886 -38.01706726 325.13331787 -39.17929077 325.14489746 C-46.50398262 325.08622019 -51.05181249 324.12448514 -56.58203125 319.0625 C-61.06688339 313.23060747 -62.16913976 309.56641261 -62.21875 302.2109375 C-62.2333728 301.40008698 -62.24799561 300.58923645 -62.26306152 299.7538147 C-62.32526088 296.29078646 -62.36503465 292.82758385 -62.40673828 289.36425781 C-62.44039566 286.83379166 -62.48551138 284.30370935 -62.53125 281.7734375 C-62.53916565 280.59374893 -62.53916565 280.59374893 -62.54724121 279.39022827 C-62.46433233 275.04178041 -62.46433233 275.04178041 -64.875 271.625 C-67.5918984 271.33514855 -67.5918984 271.33514855 -70.7734375 271.38671875 C-71.97613281 271.37060547 -73.17882812 271.35449219 -74.41796875 271.33789062 C-76.93354392 271.3212227 -79.44922205 271.31565253 -81.96484375 271.32226562 C-93.41639865 271.13403752 -104.64027519 268.05494458 -112.875 259.625 C-124.63895239 244.37455366 -123.79507952 229.4279917 -121.5871582 211.18408203 C-120.09485381 202.96668739 -120.09485381 202.96668739 -122.40625 195.46484375 C-126.20010949 192.63745796 -130.25709819 190.3657114 -134.38671875 188.06835938 C-139.08482751 185.36296142 -142.3906236 182.59375281 -144.875 177.625 C-145.71092422 170.15772099 -144.11600025 164.36931744 -141.19140625 157.56640625 C-140.81644516 156.65543686 -140.44148407 155.74446747 -140.05516052 154.80589294 C-138.86561346 151.92598003 -137.65226475 149.05685395 -136.4375 146.1875 C-135.62531881 144.23570531 -134.81475625 142.28323624 -134.00585938 140.33007812 C-132.23257831 136.05125049 -130.44378139 131.77928325 -128.64064026 127.51295471 C-127.37944567 124.40303692 -126.72481311 121.73306227 -126.515625 118.40625 C-124.19860086 86.40062784 -112.24517613 56.23073111 -88.875 33.625 C-88.01003906 32.77421875 -87.14507812 31.9234375 -86.25390625 31.046875 C-71.05453012 16.62749459 -20.95840451 -17.1615921 0 0 Z M-75.875 31.625 C-76.77476562 32.37394531 -77.67453125 33.12289062 -78.6015625 33.89453125 C-81.83795762 36.65489986 -81.83795762 36.65489986 -84.875 39.625 C-84.875 40.285 -84.875 40.945 -84.875 41.625 C-85.865 41.955 -86.855 42.285 -87.875 42.625 C-105.16487694 60.89213085 -118.29255041 89.22945378 -118.95410156 114.66650391 C-119.27354506 124.81243213 -122.13892177 132.5926757 -126.125 141.75 C-126.70632971 143.12549952 -127.28576464 144.50180141 -127.86328125 145.87890625 C-130.00399085 150.96388829 -132.1678775 156.0368945 -134.41210938 161.07714844 C-135.09756836 162.64384277 -135.09756836 162.64384277 -135.796875 164.2421875 C-136.2000293 165.14308105 -136.60318359 166.04397461 -137.01855469 166.97216797 C-138.00808665 170.03723475 -138.16329422 172.42249948 -137.875 175.625 C-133.89337844 180.81672223 -128.30901866 183.28940332 -122.58203125 186.14257812 C-117.9602107 188.58307216 -115.63824237 190.46314163 -113.875 195.625 C-113.546875 197.90625 -113.546875 197.90625 -113.625 200.125 C-113.65078125 200.99511719 -113.6765625 201.86523438 -113.703125 202.76171875 C-113.88696882 205.82438967 -114.12830949 208.8792632 -114.375 211.9375 C-114.8279501 218.10302978 -115.08321754 224.25604832 -115.1875 230.4375 C-115.23197266 231.74424683 -115.23197266 231.74424683 -115.27734375 233.07739258 C-115.35905488 242.02731487 -112.22055902 249.26138805 -105.98754883 255.69384766 C-98.20335956 262.80963837 -89.8293869 263.31429088 -79.6875 263.25 C-64.20278384 263.25 -64.20278384 263.25 -58.875 266.625 C-55.59621378 270.79971952 -55.44794207 274.66133232 -55.46875 279.77734375 C-55.45791382 280.55509659 -55.44707764 281.33284943 -55.43591309 282.13417053 C-55.40176445 284.61036547 -55.3860844 287.08610099 -55.375 289.5625 C-55.3603789 292.82205282 -55.32660436 296.08058945 -55.28125 299.33984375 C-55.28427124 300.08064682 -55.28729248 300.82144989 -55.29040527 301.58470154 C-55.22224493 306.33151962 -54.29593464 309.54989363 -51.875 313.625 C-51.215 313.625 -50.555 313.625 -49.875 313.625 C-49.875 314.285 -49.875 314.945 -49.875 315.625 C-46.76401983 317.4349382 -44.49982266 317.87855864 -40.91665649 317.89242554 C-39.41948845 317.90522049 -39.41948845 317.90522049 -37.89207458 317.91827393 C-36.80314407 317.91736755 -35.71421356 317.91646118 -34.59228516 317.91552734 C-32.86485329 317.92560318 -32.86485329 317.92560318 -31.1025238 317.93588257 C-27.28965967 317.95490464 -23.47697115 317.95878889 -19.6640625 317.9609375 C-17.01614306 317.96736234 -14.36822433 317.97409047 -11.7203064 317.98110962 C-6.16704157 317.9938963 -0.61382443 317.99687493 4.93945312 317.99560547 C11.35156211 317.99440424 17.76333439 318.01550347 24.17535818 318.0470928 C29.68633108 318.07327239 35.19719412 318.08397206 40.70822871 318.08269465 C43.99714573 318.08218549 47.28569651 318.08968907 50.57456589 318.10905075 C54.24449398 318.12863291 57.91355421 318.12290229 61.58349609 318.11083984 C62.66837814 318.12207886 63.75326019 318.13331787 64.87101746 318.14489746 C70.79600621 318.09537864 74.53691177 317.7657913 79.125 313.625 C82.63291706 310.05054667 83.62264567 307.85707755 83.59155273 302.87036133 C83.5951329 301.7333931 83.59871307 300.59642487 83.60240173 299.42500305 C83.58071678 297.58460701 83.58071678 297.58460701 83.55859375 295.70703125 C83.5657503 293.74081304 83.57293869 291.77459448 83.58174992 289.80838299 C83.59422324 285.6709286 83.57403101 281.53351089 83.55126953 277.39611816 C83.37119487 244.2483751 88.67323303 215.9826211 104.125 186.625 C113.34167839 169.10332596 122.20806251 149.92159135 121.125 129.625 C118.45077779 126.95077779 116.43559795 127.39111401 112.8012085 127.37419128 C111.93352844 127.37832535 111.06584839 127.38245941 110.171875 127.38671875 C108.33723223 127.37129385 106.50259668 127.35498983 104.66796875 127.33789062 C101.7734385 127.32145837 98.87943617 127.31248913 95.98486328 127.31958008 C93.19242655 127.32220589 90.40159684 127.29403076 87.609375 127.26171875 C86.74979187 127.27192551 85.89020874 127.28213226 85.00457764 127.29264832 C80.78535124 127.22428726 77.96534307 126.94347746 74.59472656 124.27270508 C70.92183486 120.3351299 70.625 116.76263332 70.625 111.5703125 C71.25254087 107.87370454 72.73252502 105.3528908 74.625 102.125 C77.42143822 97.26411557 79.30801528 93.52709529 78.8828125 87.8515625 C77.39427847 83.47803467 73.95523171 80.97795212 70.125 78.625 C64.03719815 75.73669784 57.68400855 75.39284669 51.29296875 77.60546875 C46.92554675 79.68367102 43.69250028 81.40696383 41.125 85.625 C40.05505336 92.15167452 41.69716119 96.26692888 44.625 102.0625 C47.57353302 107.92814425 49.73167705 113.01977213 48.125 119.625 C45.78863286 123.77854158 43.59354037 125.2318 39.125 126.625 C36.28994771 126.84860424 33.55448439 126.97628854 30.71875 126.99609375 C29.91642944 127.00512222 29.11410889 127.0141507 28.28747559 127.02345276 C26.5964733 127.03791587 24.90541555 127.04683218 23.21435547 127.05053711 C20.63283211 127.06246382 18.0536779 127.1117084 15.47265625 127.16210938 C13.82553244 127.17157135 12.17839403 127.17880746 10.53125 127.18359375 C9.76341187 127.20312607 8.99557373 127.22265839 8.20446777 127.24278259 C4.1845809 127.20904877 2.35074678 126.80385261 -0.83789062 124.27758789 C-4.27065194 119.80767518 -4.03582295 115.71429497 -4.0859375 110.30859375 C-4.1139897 108.64126595 -4.14265403 106.97394835 -4.171875 105.30664062 C-4.21325178 102.67749135 -4.25013929 100.04853612 -4.27636719 97.41918945 C-4.30387141 94.88192504 -4.34972087 92.34552737 -4.3984375 89.80859375 C-4.4033168 88.6241996 -4.4033168 88.6241996 -4.40829468 87.4158783 C-4.42937213 84.96783852 -4.42937213 84.96783852 -4.875 81.625 C-8.41722871 79.2635142 -9.69979066 79.17910386 -13.875 79.625 C-17.10926962 81.1418854 -17.10926962 81.1418854 -20.375 83.125 C-27.42338406 86.93951991 -33.84803349 88.20792597 -41.875 86.625 C-47.40678729 84.14622334 -50.5416668 78.89658687 -53 73.53515625 C-54.68557322 67.92912033 -54.3626897 62.40276821 -53.875 56.625 C-53.8028125 55.76261719 -53.730625 54.90023437 -53.65625 54.01171875 C-52.71982438 47.85046382 -49.50368823 43.69707382 -44.875 39.625 C-40.00968233 36.50672751 -34.43590411 37.04442762 -28.875 37.625 C-25.6581939 38.61591296 -22.81046552 39.99027968 -19.875 41.625 C-15.61009192 43.96651816 -12.79254357 45.28067248 -7.875 44.625 C-6.05773841 43.67190002 -6.05773841 43.67190002 -4.875 41.625 C-4.61340678 38.82510871 -4.52595662 36.25272071 -4.58203125 33.45703125 C-4.58627609 32.66221848 -4.59052094 31.8674057 -4.59489441 31.04850769 C-4.6116807 28.51115979 -4.64933176 25.97460762 -4.6875 23.4375 C-4.70254695 21.71680835 -4.71623534 19.99610424 -4.72851562 18.27539062 C-4.76158393 14.05828738 -4.81336505 9.84177858 -4.875 5.625 C-24.38415811 -4.12957905 -61.60915106 19.69395216 -75.875 31.625 Z " fill="#232322" transform="translate(226.875,82.375)"/>
<path d="M0 0 C1.22226098 6.15877136 2.06884853 12.19803585 2.29394531 18.46948242 C2.55602685 25.64120155 2.96816487 31.85501655 7 38 C7.41121094 38.63164062 7.82242188 39.26328125 8.24609375 39.9140625 C12.75696234 45.92003485 19.02000569 49.42835996 26.43701172 50.49365234 C30.17294823 50.71118789 33.88291453 50.79515769 37.625 50.8125 C39.56052734 50.85020508 39.56052734 50.85020508 41.53515625 50.88867188 C44.6904116 50.94710253 47.84429341 50.98370712 51 51 C51 51.33 51 51.66 51 52 C42.585 52.495 42.585 52.495 34 53 C33.505 53.99 33.505 53.99 33 55 C35.93447357 57.93447357 39.18259456 57.46158423 43.125 57.625 C43.87910156 57.66367187 44.63320312 57.70234375 45.41015625 57.7421875 C47.27303184 57.83651031 49.13648255 57.91934662 51 58 C51 58.33 51 58.66 51 59 C46.75037572 59.14736747 42.50142287 59.23475716 38.25 59.3125 C37.06277344 59.35439453 35.87554687 59.39628906 34.65234375 59.43945312 C23.85389771 59.58697288 14.30205876 56.73554866 5.8125 49.85546875 C-2.44478113 41.40243311 -6.23521874 31.67922331 -6.25 20.0625 C-6.20582388 17.37151623 -6.10770484 14.68992828 -6 12 C-5.9690625 10.94941406 -5.938125 9.89882813 -5.90625 8.81640625 C-5.61763315 3.84498109 -5.61763315 3.84498109 -5 2 C-1.8447205 0 -1.8447205 0 0 0 Z " fill="#282827" transform="translate(110,294)"/>
<path d="M0 0 C3.875 1.75 3.875 1.75 5 4 C5.30895896 9.15184546 5.35661126 14.30441078 5.4050293 19.46459961 C5.42652236 21.18420603 5.46052146 22.90370565 5.50756836 24.62280273 C5.97351232 41.81630068 5.97351232 41.81630068 0.59008789 48.59936523 C-2.41088661 51.24278466 -5.38363233 51.11190088 -9.1875 51.0625 C-10.08855469 51.05347656 -10.98960937 51.04445312 -11.91796875 51.03515625 C-12.60503906 51.02355469 -13.29210937 51.01195312 -14 51 C-11.525 48.525 -11.525 48.525 -9 46 C-9.33 45.34 -9.66 44.68 -10 44 C-9.195625 43.690625 -8.39125 43.38125 -7.5625 43.0625 C-5.10919595 42.23664655 -5.10919595 42.23664655 -4 41 C-3.83996512 38.33573315 -3.74057111 35.69439572 -3.68359375 33.02734375 C-3.6524221 31.83087975 -3.6524221 31.83087975 -3.62062073 30.61024475 C-3.55503842 28.05275389 -3.49620033 25.4951572 -3.4375 22.9375 C-3.39432301 21.20767118 -3.35070899 19.47785321 -3.30664062 17.74804688 C-3.19934828 13.4988074 -3.09810574 9.2494611 -3 5 C-5.97 4.505 -5.97 4.505 -9 4 C-9 3.67 -9 3.34 -9 3 C-6.36 3 -3.72 3 -1 3 C-0.67 2.01 -0.34 1.02 0 0 Z " fill="#2D2D2C" transform="translate(225,83)"/>
<path d="M0 0 C2.25 -0.1875 2.25 -0.1875 5 0 C5.53181885 0.49048828 6.0636377 0.98097656 6.61157227 1.48632812 C10.25319126 3.79421301 13.73831812 3.42147661 17.96484375 3.40625 C19.27032921 3.42250427 19.27032921 3.42250427 20.60218811 3.43908691 C23.38070118 3.47332825 26.15880374 3.4889362 28.9375 3.5 C32.59284201 3.51458206 36.24726971 3.54829156 39.90234375 3.59375 C40.73894028 3.59072876 41.5755368 3.58770752 42.43748474 3.58459473 C47.06138364 3.64396001 50.31109369 3.88494375 54 7 C54.8125 10.1875 54.8125 10.1875 55 13 C54.01 13.66 53.02 14.32 52 15 C52.495 15.99 52.495 15.99 53 17 C52.34 17 51.68 17 51 17 C50.505 18.485 50.505 18.485 50 20 C49.01 17.36 48.02 14.72 47 12 C45.77893555 11.98541748 44.55787109 11.97083496 43.29980469 11.95581055 C38.76711828 11.89781435 34.23492796 11.82058143 29.70263672 11.73754883 C27.74145564 11.70430572 25.78017902 11.67627185 23.81884766 11.65356445 C20.99860953 11.62000719 18.17924635 11.56769101 15.359375 11.51171875 C14.48319519 11.50532883 13.60701538 11.4989389 12.70428467 11.49235535 C9.15341302 11.4066974 6.62631087 11.31061186 3.41503906 9.71801758 C2 8 2 8 2 4 C1.34 3.67 0.68 3.34 0 3 C0 2.01 0 1.02 0 0 Z " fill="#1D1D1B" transform="translate(299,199)"/>
<path d="M0 0 C-2.33214148 1.20628008 -4.49642139 2.1654738 -7 3 C-7.66 3.66 -8.32 4.32 -9 5 C-4.85828461 5.11626721 -4.85828461 5.11626721 -0.8125 4.375 C-0.214375 4.25125 0.38375 4.1275 1 4 C4 6 4 6 4.6875 8.125 C4.8421875 9.053125 4.8421875 9.053125 5 10 C4.071875 9.67 3.14375 9.34 2.1875 9 C-6.32036014 6.65004669 -13.25325016 7.48373168 -21.00390625 11.61328125 C-23.44572943 13.30965548 -24.7945461 14.94245308 -25.37109375 17.91015625 C-25.55426379 23.84702034 -23.99568543 27.78265836 -21.09375 32.93359375 C-20 35 -20 35 -20 37 C-21.485 37.495 -21.485 37.495 -23 38 C-23.33 36.35 -23.66 34.7 -24 33 C-24.66 33 -25.32 33 -26 33 C-26.33 30.03 -26.66 27.06 -27 24 C-27.61875 24.495 -28.2375 24.99 -28.875 25.5 C-31 27 -31 27 -33 27 C-34.64480616 22.06558151 -34.5902043 17.73589501 -32.9375 12.875 C-30.42081773 9.14056825 -27.63235434 6.62828891 -24 4 C-23.44828125 3.58234375 -22.8965625 3.1646875 -22.328125 2.734375 C-15.64681053 -1.46361905 -7.57402936 -0.3309042 0 0 Z M-25 37 C-24.34 37.66 -23.68 38.32 -23 39 C-23.66 39 -24.32 39 -25 39 C-25 38.34 -25 37.68 -25 37 Z " fill="#232322" transform="translate(294,152)"/>
<path d="M0 0 C3.35433109 0.94933899 6.69246505 1.89748835 10 3 C10 14.88 10 26.76 10 39 C6.535 39.495 6.535 39.495 3 40 C0.95326853 37.95326853 1.76672157 33.69842826 1.71875 30.87890625 C1.69113586 29.6562632 1.69113586 29.6562632 1.66296387 28.40892029 C1.60402885 25.79352243 1.55129955 23.17805813 1.5 20.5625 C1.43246608 17.12615977 1.35876605 13.69003412 1.28125 10.25390625 C1.26767456 9.45803604 1.25409912 8.66216583 1.2401123 7.84217834 C1.2384482 3.78949749 1.2384482 3.78949749 0 0 Z " fill="#2E2E2E" transform="translate(220,162)"/>
<path d="M0 0 C1.17978071 4.15564547 0.68581468 7.05685841 -0.75 11.125 C-0.8325 11.74375 -0.915 12.3625 -1 13 C-0.47664063 13.39574219 0.04671875 13.79148437 0.5859375 14.19921875 C1.28589844 15.09060547 1.28589844 15.09060547 2 16 C1.5234375 18.94921875 1.5234375 18.94921875 0.375 22.6875 C-2.74469348 33.57787756 -3.77895361 44.76862395 -5 56 C-5.33 56 -5.66 56 -6 56 C-5.98839844 54.74703125 -5.97679687 53.4940625 -5.96484375 52.203125 C-5.95546284 50.55208483 -5.94636296 48.90104304 -5.9375 47.25 C-5.92912109 46.425 -5.92074219 45.6 -5.91210938 44.75 C-5.90727539 43.55117188 -5.90727539 43.55117188 -5.90234375 42.328125 C-5.89710693 41.5949707 -5.89187012 40.86181641 -5.88647461 40.10644531 C-6.0024891 37.9538151 -6.40926729 36.0685865 -7 34 C-7.66 34.66 -8.32 35.32 -9 36 C-10.3038112 31.55170297 -9.5971822 27.99561879 -8.4375 23.625 C-8.26057617 22.93470703 -8.08365234 22.24441406 -7.90136719 21.53320312 C-5.90691644 14.10210238 -3.04097823 7.05506948 0 0 Z " fill="#282827" transform="translate(323,283)"/>
<path d="M0 0 C0.89267578 0.00322266 1.78535156 0.00644531 2.70507812 0.00976562 C4.09823242 0.02233398 4.09823242 0.02233398 5.51953125 0.03515625 C6.45990234 0.03966797 7.40027344 0.04417969 8.36914062 0.04882812 C10.69016837 0.06060999 13.01106769 0.07706067 15.33203125 0.09765625 C15.33203125 1.08765625 15.33203125 2.07765625 15.33203125 3.09765625 C14.67203125 3.75765625 14.01203125 4.41765625 13.33203125 5.09765625 C13.33203125 6.08765625 13.33203125 7.07765625 13.33203125 8.09765625 C13.00203125 7.76765625 12.67203125 7.43765625 12.33203125 7.09765625 C8.53574412 6.89387941 4.74595052 6.75071981 0.9453125 6.66796875 C0.14738281 6.63703125 -0.65054688 6.60609375 -1.47265625 6.57421875 C-2.20468262 6.55439941 -2.93670898 6.53458008 -3.69091797 6.51416016 C-6.15238188 5.99560527 -7.07300927 4.99210319 -8.66796875 3.09765625 C-6.87139896 -0.49548333 -3.59131595 -0.02287462 0 0 Z " fill="#1D1D1B" transform="translate(148.66796875,345.90234375)"/>
<path d="M0 0 C2.43816585 -0.0809723 4.87364384 -0.14046972 7.3125 -0.1875 C8.34793945 -0.22520508 8.34793945 -0.22520508 9.40429688 -0.26367188 C14.55674183 -0.33834499 14.55674183 -0.33834499 16.98046875 1.51171875 C17.31691406 2.00285156 17.65335938 2.49398437 18 3 C17.01 4.485 17.01 4.485 16 6 C12.7421875 6.51171875 12.7421875 6.51171875 8.875 6.6875 C6.95300781 6.78611328 6.95300781 6.78611328 4.9921875 6.88671875 C4.00476563 6.92410156 3.01734375 6.96148437 2 7 C2 6.34 2 5.68 2 5 C-1.63 5.66 -5.26 6.32 -9 7 C-8.34 6.67 -7.68 6.34 -7 6 C-7 5.34 -7 4.68 -7 4 C-4.69 3.34 -2.38 2.68 0 2 C0 1.34 0 0.68 0 0 Z " fill="#1D1D1B" transform="translate(208,80)"/>
<path d="M0 0 C2.21029492 4.42058985 0.8684769 10.60070653 0.6875 15.4375 C0.65205078 16.69111328 0.61660156 17.94472656 0.58007812 19.23632812 C0.53689453 20.43580078 0.49371094 21.63527344 0.44921875 22.87109375 C0.41143311 23.97380615 0.37364746 25.07651855 0.3347168 26.21264648 C0 29 0 29 -2 32 C-5.14930893 33.04976964 -7.38814456 33.10131595 -10.6875 33.0625 C-11.68136719 33.05347656 -12.67523438 33.04445312 -13.69921875 33.03515625 C-14.83810547 33.01775391 -14.83810547 33.01775391 -16 33 C-16 32.34 -16 31.68 -16 31 C-16.7425 30.855625 -17.485 30.71125 -18.25 30.5625 C-20.52027739 30.09812508 -22.75759479 29.58136431 -25 29 C-25 28.34 -25 27.68 -25 27 C-25.99 27 -26.98 27 -28 27 C-28 26.34 -28 25.68 -28 25 C-24.35359849 25.94806439 -21.37165505 26.79440359 -18.0625 28.625 C-13.93008803 30.48036864 -11.51367118 30.50960804 -7 30 C-4.5803003 28.73827627 -4.5803003 28.73827627 -3 26 C-2.40765823 22.33954299 -2.3941339 18.70240985 -2.375 15 C-2.34942776 13.020709 -2.31588256 11.04150107 -2.2734375 9.0625 C-2.26747559 8.18722656 -2.26151367 7.31195313 -2.25537109 6.41015625 C-1.98400521 3.84904344 -1.28970613 2.20909426 0 0 Z " fill="#FCF1AE" transform="translate(293,110)"/>
<path d="M0 0 C0.33 0 0.66 0 1 0 C1.10181508 6.68932017 1.17163915 13.37843887 1.21972656 20.06835938 C1.23978317 22.34187284 1.26703538 24.6153351 1.30175781 26.88867188 C1.35053712 30.16549349 1.37302897 33.44163025 1.390625 36.71875 C1.41127014 37.72740112 1.43191528 38.73605225 1.45318604 39.77526855 C1.45536684 46.70759605 0.46922876 52.52344348 -4.58929443 57.59265137 C-6.00664968 58.79377516 -7.49749236 59.90726717 -9 61 C-9.66 60.01 -10.32 59.02 -11 58 C-10.34 57.34 -9.68 56.68 -9 56 C-9.99 55.01 -10.98 54.02 -12 53 C-10.68 52.01 -9.36 51.02 -8 50 C-7.34 50.66 -6.68 51.32 -6 52 C-5.34 52 -4.68 52 -4 52 C-3.67 51.34 -3.34 50.68 -3 50 C-2.34 49.01 -1.68 48.02 -1 47 C-0.67346305 44.80049913 -0.67346305 44.80049913 -0.68115234 42.3449707 C-0.66128265 41.40422195 -0.64141296 40.46347321 -0.62094116 39.49421692 C-0.60938995 38.48163315 -0.59783875 37.46904938 -0.5859375 36.42578125 C-0.56657135 35.38681198 -0.5472052 34.34784271 -0.5272522 33.27738953 C-0.46742701 29.95584344 -0.42105896 26.63426276 -0.375 23.3125 C-0.33682295 21.06183376 -0.29777139 18.81118218 -0.2578125 16.56054688 C-0.16172311 11.04049456 -0.07668419 5.52035414 0 0 Z " fill="#373737" transform="translate(316,344)"/>
<path d="M0 0 C0.66163651 0.00424484 1.32327301 0.00848969 2.00495911 0.01286316 C4.11440035 0.02963182 6.22287971 0.06727776 8.33203125 0.10546875 C9.76365806 0.12051807 11.19529987 0.13420605 12.62695312 0.14648438 C16.13312413 0.17952845 19.63873379 0.23129708 23.14453125 0.29296875 C23.14453125 0.62296875 23.14453125 0.95296875 23.14453125 1.29296875 C14.72953125 1.78796875 14.72953125 1.78796875 6.14453125 2.29296875 C5.81453125 2.95296875 5.48453125 3.61296875 5.14453125 4.29296875 C8.07900482 7.22744232 11.32712581 6.75455298 15.26953125 6.91796875 C16.02363281 6.95664062 16.77773437 6.9953125 17.5546875 7.03515625 C19.41756309 7.12947906 21.2810138 7.21231537 23.14453125 7.29296875 C23.14453125 7.62296875 23.14453125 7.95296875 23.14453125 8.29296875 C14.23453125 8.29296875 5.32453125 8.29296875 -3.85546875 8.29296875 C-2.53546875 7.30296875 -1.21546875 6.31296875 0.14453125 5.29296875 C-3.36323659 3.68941774 -5.99901754 3.07260011 -9.85546875 3.29296875 C-7.14573714 -0.45398071 -4.39428046 -0.0556238 0 0 Z " fill="#454544" transform="translate(137.85546875,344.70703125)"/>
<path d="M0 0 C1.98 0.495 1.98 0.495 4 1 C4.33333333 2.33333333 4.66666667 3.66666667 5 5 C5.17273438 5.58265625 5.34546875 6.1653125 5.5234375 6.765625 C6.1162955 9.54525429 6.16974169 12.15867104 6.1875 15 C6.20167969 16.03125 6.21585937 17.0625 6.23046875 18.125 C6 21 6 21 4 25 C3.34 21.37 2.68 17.74 2 14 C1.34 15.32 0.68 16.64 0 18 C-1.93753594 12.18739218 -1.17814715 5.89073573 0 0 Z " fill="#2A2A28" transform="translate(107,281)"/>
<path d="M0 0 C0.99 0.33 1.98 0.66 3 1 C2.625 3.4375 2.625 3.4375 2 6 C1.01 6.495 1.01 6.495 0 7 C-0.68931344 9.34907875 -0.68931344 9.34907875 -1.125 12.0625 C-1.29257813 12.98160156 -1.46015625 13.90070313 -1.6328125 14.84765625 C-1.75398438 15.55792969 -1.87515625 16.26820313 -2 17 C-2.99 17.33 -3.98 17.66 -5 18 C-5.33 18.99 -5.66 19.98 -6 21 C-9 16.25 -9 16.25 -9 14 C-8.34 14 -7.68 14 -7 14 C-7 13.34 -7 12.68 -7 12 C-6.34 12 -5.68 12 -5 12 C-5.33 11.01 -5.66 10.02 -6 9 C-5.34 8.67 -4.68 8.34 -4 8 C-3.67 8.33 -3.34 8.66 -3 9 C-3.061875 8.071875 -3.12375 7.14375 -3.1875 6.1875 C-3 3 -3 3 -1.5 1.125 C-1.005 0.75375 -0.51 0.3825 0 0 Z " fill="#1D1D1B" transform="translate(120,143)"/>
<path d="M0 0 C2.80908387 4.2136258 2.69707949 8.04749342 2 13 C0 15.625 0 15.625 -2 17 C-2.33 16.34 -2.66 15.68 -3 15 C-3.99 15.33 -4.98 15.66 -6 16 C-6 15.34 -6 14.68 -6 14 C-6.99 13.67 -7.98 13.34 -9 13 C-7.68 11.02 -6.36 9.04 -5 7 C-4.34 7.66 -3.68 8.32 -3 9 C-2.690625 7.88625 -2.38125 6.7725 -2.0625 5.625 C-1 2 -1 2 0 0 Z " fill="#2C2C2B" transform="translate(274,189)"/>
<path d="M0 0 C3.78962312 3.78962312 4.91206179 9.32917408 5.1875 14.5625 C5.125625 15.366875 5.06375 16.17125 5 17 C1.62537285 16.45276317 -0.08235 15.9451 -3 14 C-3.39259107 9.76001646 -3.32490278 6.63266059 -1 3 C-0.67 3 -0.34 3 0 3 C0 2.01 0 1.02 0 0 Z " fill="#282826" transform="translate(108,312)"/>
<path d="M0 0 C3.10938031 4.95046076 2.50233255 10.18514634 1.78125 15.8359375 C0.72933988 18.62440614 -0.42285638 20.42270545 -2.21875 22.8359375 C-2.87875 22.8359375 -3.53875 22.8359375 -4.21875 22.8359375 C-3.22875 19.5359375 -2.23875 16.2359375 -1.21875 12.8359375 C-0.55875 12.8359375 0.10125 12.8359375 0.78125 12.8359375 C0.72124894 11.2099088 0.6324615 9.58492201 0.53125 7.9609375 C0.48484375 7.05601563 0.4384375 6.15109375 0.390625 5.21875 C0.03045558 2.67603069 0.03045558 2.67603069 -2.203125 1.578125 C-2.86828125 1.33320312 -3.5334375 1.08828125 -4.21875 0.8359375 C-4.54875 0.5059375 -4.87875 0.1759375 -5.21875 -0.1640625 C-6.77823542 -0.32092499 -8.34417668 -0.41482889 -9.91015625 -0.48046875 C-10.85439453 -0.52236328 -11.79863281 -0.56425781 -12.77148438 -0.60742188 C-13.76470703 -0.64673828 -14.75792969 -0.68605469 -15.78125 -0.7265625 C-16.77833984 -0.76974609 -17.77542969 -0.81292969 -18.80273438 -0.85742188 C-21.2745915 -0.96386548 -23.7465531 -1.06588178 -26.21875 -1.1640625 C-26.21875 -1.4940625 -26.21875 -1.8240625 -26.21875 -2.1640625 C-22.96927139 -2.36144818 -19.71916127 -2.5452379 -16.46875 -2.7265625 C-15.54835937 -2.78263672 -14.62796875 -2.83871094 -13.6796875 -2.89648438 C-12.79023438 -2.94482422 -11.90078125 -2.99316406 -10.984375 -3.04296875 C-10.16743164 -3.0901001 -9.35048828 -3.13723145 -8.50878906 -3.18579102 C-4.64070479 -3.14908958 -2.80672323 -2.73754343 0 0 Z " fill="#F3D03D" transform="translate(261.21875,77.1640625)"/>
<path d="M0 0 C1.95216435 1.95216435 2.84826645 3.53199953 4 6 C4.33 5.34 4.66 4.68 5 4 C5.66 4.33 6.32 4.66 7 5 C5.68 8.96 4.36 12.92 3 17 C1.68 16.67 0.36 16.34 -1 16 C-1 15.01 -1 14.02 -1 13 C-0.34 13 0.32 13 1 13 C0.67 12.01 0.34 11.02 0 10 C-0.33 10.66 -0.66 11.32 -1 12 C-1.66 12.99 -2.32 13.98 -3 15 C-4.43410153 11.21180727 -3.51009497 8.93478721 -2.0625 5.25 C-1.49208984 3.77273437 -1.49208984 3.77273437 -0.91015625 2.265625 C-0.60980469 1.51796875 -0.30945313 0.7703125 0 0 Z " fill="#262625" transform="translate(110,157)"/>
<path d="M0 0 C0.33 0.99 0.66 1.98 1 3 C0.34 3.66 -0.32 4.32 -1 5 C-0.67 5.66 -0.34 6.32 0 7 C-3.465 8.485 -3.465 8.485 -7 10 C-7.33 9.34 -7.66 8.68 -8 8 C-7.34 8 -6.68 8 -6 8 C-6.33 7.67 -6.66 7.34 -7 7 C-7.8971875 7.2784375 -7.8971875 7.2784375 -8.8125 7.5625 C-11.57856025 8.11571205 -12.58944336 7.32909098 -15 6 C-13.07010782 4.80017556 -11.13080772 3.61547182 -9.1875 2.4375 C-8.10855469 1.77621094 -7.02960938 1.11492187 -5.91796875 0.43359375 C-3 -1 -3 -1 0 0 Z " fill="#2E2E2E" transform="translate(174,93)"/>
<path d="M0 0 C6.44070471 -0.10655578 12.62641289 0.03794912 19 1 C19 2.65 19 4.3 19 6 C19.66 6 20.32 6 21 6 C21.33 7.98 21.66 9.96 22 12 C20.32229848 10.32229848 18.65179103 8.6409095 17 6.9375 C13.73748623 3.77693979 11.71764373 2.72225066 7.25 2.75 C2.81631513 2.82801205 -0.82448869 3.54764824 -5 5 C-5 4.01 -5 3.02 -5 2 C-3.35 2 -1.7 2 0 2 C0 1.34 0 0.68 0 0 Z " fill="#FCF4C3" transform="translate(238,31)"/>
<path d="M0 0 C1.63229592 3.26459184 0.9936964 6.60432222 0 10 C-1.66666667 11.66666667 -3.33333333 13.33333333 -5 15 C-5.41831404 18.71000718 -5.41831404 18.71000718 -5 22 C-5.99 22 -6.98 22 -8 22 C-8 22.66 -8 23.32 -8 24 C-8.66 24 -9.32 24 -10 24 C-10 24.66 -10 25.32 -10 26 C-10.66 26 -11.32 26 -12 26 C-11.70609375 25.27039063 -11.4121875 24.54078125 -11.109375 23.7890625 C-10.43838702 22.10214202 -9.77871418 20.41057504 -9.140625 18.7109375 C-6.63816036 12.14745568 -3.47732791 6.09691494 0 0 Z " fill="#F4CF36" transform="translate(293,24)"/>
<path d="M0 0 C0.66 0.33 1.32 0.66 2 1 C2 1.66 2 2.32 2 3 C2.66 2.34 3.32 1.68 4 1 C5.22176591 7.35318275 5.22176591 7.35318275 4.25 10.1875 C3.8375 10.785625 3.425 11.38375 3 12 C2.2575 13.11375 2.2575 13.11375 1.5 14.25 C1.005 14.8275 0.51 15.405 0 16 C-0.66 16 -1.32 16 -2 16 C-2.05449838 14.27119018 -2.09301688 12.54187288 -2.125 10.8125 C-2.14820313 9.84957031 -2.17140625 8.88664063 -2.1953125 7.89453125 C-1.9913544 4.87187222 -1.26874632 2.73230015 0 0 Z " fill="#1D1D1D" transform="translate(174,134)"/>
<path d="M0 0 C1.79362465 8.74392018 2.23737365 17.08530089 2 26 C1.67 26 1.34 26 1 26 C0.96261719 25.16855469 0.92523438 24.33710938 0.88671875 23.48046875 C0.78810547 21.85044922 0.78810547 21.85044922 0.6875 20.1875 C0.62949219 19.10855469 0.57148437 18.02960938 0.51171875 16.91796875 C-0.03068507 13.82502483 -0.55289624 12.86977097 -3 11 C-3.99 11.495 -3.99 11.495 -5 12 C-5 8.7 -5 5.4 -5 2 C-1 0 -1 0 0 0 Z " fill="#383836" transform="translate(110,294)"/>
<path d="M0 0 C6.625 -0.25 6.625 -0.25 10 2 C12.75786415 2.17177775 15.41215524 2.23216238 18.16796875 2.1953125 C18.96278152 2.1924826 19.7575943 2.18965271 20.57649231 2.18673706 C23.11364838 2.17554705 25.65045072 2.15044491 28.1875 2.125 C29.90819802 2.11496866 31.62890159 2.10584308 33.34960938 2.09765625 C37.56654243 2.07561161 41.78321125 2.04109006 46 2 C46 2.66 46 3.32 46 4 C46.66 4.33 47.32 4.66 48 5 C41.15800285 5 34.31728401 4.90494105 27.47631836 4.79248047 C25.53565404 4.76418758 23.59487271 4.74301469 21.65405273 4.72900391 C18.85340486 4.70759768 16.05414031 4.66098237 13.25390625 4.609375 C12.3871376 4.60814636 11.52036896 4.60691772 10.62733459 4.60565186 C4.5801679 4.45859687 4.5801679 4.45859687 1.42163086 1.96191406 C0.95249268 1.31448242 0.48335449 0.66705078 0 0 Z " fill="#3A3A39" transform="translate(301,206)"/>
<path d="M0 0 C0.98484375 0.00902344 1.9696875 0.01804687 2.984375 0.02734375 C4.10585938 0.04474609 4.10585938 0.04474609 5.25 0.0625 C5.58 1.0525 5.91 2.0425 6.25 3.0625 C5.62351562 2.9903125 4.99703125 2.918125 4.3515625 2.84375 C3.53429687 2.7509375 2.71703125 2.658125 1.875 2.5625 C1.06289063 2.4696875 0.25078125 2.376875 -0.5859375 2.28125 C-2.71912825 2.02897649 -2.71912825 2.02897649 -4.75 2.0625 C-5.08 3.7125 -5.41 5.3625 -5.75 7.0625 C-6.41 7.0625 -7.07 7.0625 -7.75 7.0625 C-7.9975 7.7225 -8.245 8.3825 -8.5 9.0625 C-10.06817045 12.82610907 -11.89505046 16.4336424 -13.75 20.0625 C-14.08 18.7425 -14.41 17.4225 -14.75 16.0625 C-14.09 16.0625 -13.43 16.0625 -12.75 16.0625 C-12.09 13.0925 -11.43 10.1225 -10.75 7.0625 C-10.09 7.0625 -9.43 7.0625 -8.75 7.0625 C-9.08 5.0825 -9.41 3.1025 -9.75 1.0625 C-6.43929162 0.06140485 -3.44915231 -0.04106134 0 0 Z " fill="#FDF7C9" transform="translate(301.75,14.9375)"/>
<path d="M0 0 C0.66 0.33 1.32 0.66 2 1 C2 1.66 2 2.32 2 3 C2.66 3.33 3.32 3.66 4 4 C4 5.65 4 7.3 4 9 C-0.455 10.485 -0.455 10.485 -5 12 C-6 8 -6 8 -4.78515625 5.859375 C-4.21667969 5.16328125 -3.64820313 4.4671875 -3.0625 3.75 C-2.49660156 3.04359375 -1.93070313 2.3371875 -1.34765625 1.609375 C-0.90292969 1.07828125 -0.45820313 0.5471875 0 0 Z " fill="#2B2B2A" transform="translate(135,118)"/>
<path d="M0 0 C0.66 0 1.32 0 2 0 C3.21359223 7.2815534 3.21359223 7.2815534 2.3125 10.3125 C-0.04764306 13.34696965 -2.36954942 14.78984981 -6 16 C-6.33 14.35 -6.66 12.7 -7 11 C-6.236875 10.608125 -5.47375 10.21625 -4.6875 9.8125 C-1.75283929 7.83331022 -0.59873102 6.1133183 1 3 C0.34 3 -0.32 3 -1 3 C-1.33 3.66 -1.66 4.32 -2 5 C-1.125 1.125 -1.125 1.125 0 0 Z " fill="#1E1E1D" transform="translate(93,229)"/>
<path d="M0 0 C3.19228145 5.92852269 4.29398523 11.16758627 4.125 17.875 C4.11597656 18.56335938 4.10695313 19.25171875 4.09765625 19.9609375 C4.07432513 21.64077838 4.03846326 23.32043746 4 25 C3.01 25.33 2.02 25.66 1 26 C-0.125 19.375 -0.125 19.375 1 16 C0.91232913 13.25392224 0.77043265 10.54908492 0.5625 7.8125 C0.51029297 7.06291016 0.45808594 6.31332031 0.40429688 5.54101562 C0.27486216 3.69362918 0.13813482 1.84675629 0 0 Z " fill="#F5CD22" transform="translate(363,86)"/>
<path d="M0 0 C1.32 0.33 2.64 0.66 4 1 C2.85569823 4.87302138 1.76679902 8.00263439 -1 11 C-1.66 11 -2.32 11 -3 11 C-3 11.66 -3 12.32 -3 13 C-3.66 13 -4.32 13 -5 13 C-5.68359375 11.296875 -5.68359375 11.296875 -6 9 C-4.78515625 6.640625 -4.78515625 6.640625 -3.0625 4.25 C-2.49660156 3.45078125 -1.93070312 2.6515625 -1.34765625 1.828125 C-0.90292969 1.22484375 -0.45820313 0.6215625 0 0 Z " fill="#212121" transform="translate(304,184)"/>
<path d="M0 0 C0.33 0 0.66 0 1 0 C1.33 2.31 1.66 4.62 2 7 C2.99 7 3.98 7 5 7 C5 7.99 5 8.98 5 10 C5.57621094 10.13664062 6.15242187 10.27328125 6.74609375 10.4140625 C8.90017638 10.97404932 10.96783651 11.62431135 13.0625 12.375 C13.73410156 12.60960937 14.40570313 12.84421875 15.09765625 13.0859375 C17.20708885 14.0995047 18.40389814 15.30974606 20 17 C22.09989652 18.17574711 22.09989652 18.17574711 24 19 C22 20 22 20 20.0546875 19.44140625 C19.33539063 19.15136719 18.61609375 18.86132812 17.875 18.5625 C16.78832031 18.13130859 16.78832031 18.13130859 15.6796875 17.69140625 C15.12539063 17.46324219 14.57109375 17.23507813 14 17 C14 16.34 14 15.68 14 15 C13.34 14.9175 12.68 14.835 12 14.75 C7.9591873 13.73979683 3.01230249 12.01230249 0 9 C-0.07179964 7.48071962 -0.08392007 5.95832518 -0.0625 4.4375 C-0.05347656 3.61121094 -0.04445312 2.78492187 -0.03515625 1.93359375 C-0.02355469 1.29550781 -0.01195312 0.65742187 0 0 Z " fill="#F3D13C" transform="translate(248,117)"/>
<path d="M0 0 C0.6875 1.8125 0.6875 1.8125 1 4 C-0.50779445 6.14265527 -1.51004109 6.88122208 -4.0625 7.5 C-6.39687193 7.87267251 -6.39687193 7.87267251 -8 11 C-8.66 11 -9.32 11 -10 11 C-10.268125 11.639375 -10.53625 12.27875 -10.8125 12.9375 C-12 15 -12 15 -15 16 C-14.67 19.63 -14.34 23.26 -14 27 C-14.66 26.67 -15.32 26.34 -16 26 C-17.14789022 21.82271529 -17.42832418 18.11840203 -15.875 14.0625 C-13.72373905 11.69611295 -11.94458742 11.13253362 -9 10 C-8.30062468 8.68352881 -7.63270867 7.34977849 -7 6 C-4.9375 4.875 -4.9375 4.875 -3 4 C-2.67 3.34 -2.34 2.68 -2 2 C-1.34 2 -0.68 2 0 2 C0 1.34 0 0.68 0 0 Z " fill="#F2CD30" transform="translate(332,132)"/>
<path d="M0 0 C2.0625 0.4375 2.0625 0.4375 4 1 C4 1.99 4 2.98 4 4 C4.99 4.33 5.98 4.66 7 5 C5.5903653 5.70180531 4.17192359 6.38593958 2.75 7.0625 C1.96109375 7.44535156 1.1721875 7.82820313 0.359375 8.22265625 C-2.25993522 9.08564091 -3.44855176 8.93045933 -6 8 C-5.34 7.34 -4.68 6.68 -4 6 C-4.66 5.34 -5.32 4.68 -6 4 C-5.67 3.34 -5.34 2.68 -5 2 C-3.67696283 1.6278958 -2.34262065 1.29369827 -1 1 C-0.67 0.67 -0.34 0.34 0 0 Z " fill="#292928" transform="translate(178,90)"/>
<path d="M0 0 C0.66 0.99 1.32 1.98 2 3 C2.53625 3.515625 3.0725 4.03125 3.625 4.5625 C5 6 5 6 5 8 C4.01 8.495 4.01 8.495 3 9 C2.67 9.99 2.34 10.98 2 12 C2.99 12.33 3.98 12.66 5 13 C3.68 13.33 2.36 13.66 1 14 C-0.98 11.69 -2.96 9.38 -5 7 C-4.34 6.01 -3.68 5.02 -3 4 C-2.34 4.33 -1.68 4.66 -1 5 C-0.67 3.35 -0.34 1.7 0 0 Z " fill="#272727" transform="translate(172,390)"/>
<path d="M0 0 C0.144375 0.61875 0.28875 1.2375 0.4375 1.875 C0.93152225 4.03258322 0.93152225 4.03258322 2 6 C2.99 6 3.98 6 5 6 C4.01 8.31 3.02 10.62 2 13 C-1 13 -1 13 -3 12 C-3.66666667 10.66666667 -4.33333333 9.33333333 -5 8 C-4.2578125 6.30859375 -4.2578125 6.30859375 -3.125 4.4375 C-2.75632813 3.81746094 -2.38765625 3.19742188 -2.0078125 2.55859375 C-1 1 -1 1 0 0 Z " fill="#2D2D2C" transform="translate(178,125)"/>
<path d="M0 0 C1.32 0.33 2.64 0.66 4 1 C4.33 2.65 4.66 4.3 5 6 C5.66 6 6.32 6 7 6 C7 6.99 7 7.98 7 9 C7.66 9 8.32 9 9 9 C9 13.62 9 18.24 9 23 C7.68 23.33 6.36 23.66 5 24 C5.165 23.505 5.33 23.01 5.5 22.5 C6.72836533 16.35817335 6.24506067 10.7898933 4 5 C3.01 4.67 2.02 4.34 1 4 C0.3125 1.9375 0.3125 1.9375 0 0 Z " fill="#F1CD2D" transform="translate(328,108)"/>
<path d="M0 0 C1.423125 0.7425 1.423125 0.7425 2.875 1.5 C0.13691281 2.8690436 -1.66045142 2.30476643 -4.6875 1.9375 C-11.26226017 1.32974906 -17.00746742 1.52302812 -22.6875 5.125 C-23.161875 5.57875 -23.63625 6.0325 -24.125 6.5 C-22.66713659 2.65654191 -20.73534412 1.34920065 -17.125 -0.5 C-11.52691786 -2.36602738 -5.45237362 -2.35898614 0 0 Z " fill="#FEF4BC" transform="translate(318.125,103.5)"/>
<path d="M0 0 C1.70884005 1.62339805 3.37446717 3.29319053 5 5 C5 5.66 5 6.32 5 7 C5.66 7 6.32 7 7 7 C7.33 7.66 7.66 8.32 8 9 C9.60379341 9.05416188 11.20811406 9.09286638 12.8125 9.125 C13.70582031 9.14820313 14.59914063 9.17140625 15.51953125 9.1953125 C18.25402714 9.18285827 18.25402714 9.18285827 21 7 C20.67 8.32 20.34 9.64 20 11 C15.05317331 12.64894223 9.96571791 12.82996978 5.1875 10.8125 C2.67833327 8.73347613 1.36872476 6.95356397 0 4 C0 2.68 0 1.36 0 0 Z " fill="#F2CE31" transform="translate(260,43)"/>
<path d="M0 0 C0.99 0.66 1.98 1.32 3 2 C3.66 2 4.32 2 5 2 C5.33 1.34 5.66 0.68 6 0 C6.33 1.65 6.66 3.3 7 5 C4.69 6.98 2.38 8.96 0 11 C-0.66 10.01 -1.32 9.02 -2 8 C-1.34 7.34 -0.68 6.68 0 6 C-0.99 5.01 -1.98 4.02 -3 3 C-2.01 2.01 -1.02 1.02 0 0 Z " fill="#303030" transform="translate(307,394)"/>
<path d="M0 0 C2.99324263 1.0975223 3.84610901 1.67682892 5.25 4.625 C5.4975 5.40875 5.745 6.1925 6 7 C4.68 7 3.36 7 2 7 C2 7.99 2 8.98 2 10 C1.01 10.495 1.01 10.495 0 11 C-1.32 8.36 -2.64 5.72 -4 3 C-2.68 2.01 -1.36 1.02 0 0 Z " fill="#272727" transform="translate(165,347)"/>
<path d="M0 0 C1.98 0.99 1.98 0.99 4 2 C4 2.66 4 3.32 4 4 C4.99 4.33 5.98 4.66 7 5 C7.625 6.99609375 7.625 6.99609375 8 9.4375 C8.31571619 11.8428046 8.31571619 11.8428046 9 14 C9.99 14.66 10.98 15.32 12 16 C12.1875 19.625 12.1875 19.625 12 23 C9.50627835 19.25941752 7.30184694 15.7218079 5.5625 11.5625 C4.02616071 8.05964642 2.13196289 5.16118636 0 2 C0 1.34 0 0.68 0 0 Z " fill="#FDF7CA" transform="translate(349,56)"/>
<path d="M0 0 C0.5 2 0.5 2 1 4 C1.2371875 4.6290625 1.474375 5.258125 1.71875 5.90625 C2 8 2 8 0.78515625 9.921875 C0.21667969 10.52515625 -0.35179687 11.1284375 -0.9375 11.75 C-1.50339844 12.36359375 -2.06929688 12.9771875 -2.65234375 13.609375 C-3.31943359 14.29773438 -3.31943359 14.29773438 -4 15 C-4.66 14.67 -5.32 14.34 -6 14 C-5 11 -5 11 -3 8 C-3.66 8 -4.32 8 -5 8 C-3.375 2.25 -3.375 2.25 0 0 Z " fill="#1F1F1E" transform="translate(334,267)"/>
<path d="M0 0 C2.97 0.495 2.97 0.495 6 1 C6.33 2.32 6.66 3.64 7 5 C4.69 6.32 2.38 7.64 0 9 C-1.125 6.75 -1.125 6.75 -2 4 C-1.125 1.6875 -1.125 1.6875 0 0 Z " fill="#232321" transform="translate(180,123)"/>
<path d="M0 0 C2.375 0.3125 2.375 0.3125 5 1 C5.763125 1.185625 6.52625 1.37125 7.3125 1.5625 C8.1478125 1.7790625 8.1478125 1.7790625 9 2 C9 1.34 9 0.68 9 0 C10.32 0.66 11.64 1.32 13 2 C11.35 3.65 9.7 5.3 8 7 C4.40608886 5.66511872 1.24509304 4.03977277 -2 2 C-1.34 1.34 -0.68 0.68 0 0 Z " fill="#2A2A29" transform="translate(198,124)"/>
<path d="M0 0 C-0.99 0.33 -1.98 0.66 -3 1 C-3.33 1.66 -3.66 2.32 -4 3 C-4.99 3 -5.98 3 -7 3 C-7 3.66 -7 4.32 -7 5 C-7.804375 5.28875 -8.60875 5.5775 -9.4375 5.875 C-12.1326468 6.73262568 -12.1326468 6.73262568 -13 9 C-14.65 9 -16.3 9 -18 9 C-14.47852281 3.39764993 -6.84911902 -2.56841963 0 0 Z " fill="#353534" transform="translate(282,153)"/>
<path d="M0 0 C0.99 0.33 1.98 0.66 3 1 C2.01 9.58 1.02 18.16 0 27 C-0.33 27 -0.66 27 -1 27 C-0.98839844 25.72382813 -0.97679687 24.44765625 -0.96484375 23.1328125 C-0.95546583 21.46354313 -0.94636563 19.79427217 -0.9375 18.125 C-0.92912109 17.28324219 -0.92074219 16.44148438 -0.91210938 15.57421875 C-0.90888672 14.76855469 -0.90566406 13.96289062 -0.90234375 13.1328125 C-0.89710693 12.38918457 -0.89187012 11.64555664 -0.88647461 10.87939453 C-0.88213364 8.90867432 -0.88213364 8.90867432 -2 7 C-1.39239518 4.6505947 -0.72870472 2.31470912 0 0 Z " fill="#383837" transform="translate(318,312)"/>
<path d="M0 0 C0.33 0 0.66 0 1 0 C0.5003731 7.49440349 -1.43764478 13.95650263 -4 21 C-4.33 21 -4.66 21 -5 21 C-4.93950287 18.62246262 -4.85232887 16.25080939 -4.75 13.875 C-4.73582031 13.20984375 -4.72164063 12.5446875 -4.70703125 11.859375 C-4.45147995 6.64612839 -3.1772561 3.9530977 0 0 Z " fill="#F3C927" transform="translate(366,148)"/>
<path d="M0 0 C0.66 0 1.32 0 2 0 C2.00257813 0.75023437 2.00515625 1.50046875 2.0078125 2.2734375 C2.31251678 10.33794415 4.2851591 15.48284988 9 22 C5.44709491 20.80980625 3.42369452 20.01165103 1.6875 16.625 C-0.77234939 11.27062903 -0.34600633 5.76677211 0 0 Z " fill="#FEFCCC" transform="translate(221,52)"/>
<path d="M0 0 C1.32 0.33 2.64 0.66 4 1 C5.2380014 4.57644848 4.74926071 7.33694766 4 11 C2.68 11.33 1.36 11.66 0 12 C0 8.04 0 4.08 0 0 Z " fill="#1D1D1B" transform="translate(107,281)"/>
<path d="M0 0 C0 1.65 0 3.3 0 5 C-0.99 5.33 -1.98 5.66 -3 6 C-3.66 5.67 -4.32 5.34 -5 5 C-5 5.99 -5 6.98 -5 8 C-3.68 8.66 -2.36 9.32 -1 10 C-1.99 10.66 -2.98 11.32 -4 12 C-6.70582788 8.16674383 -7.32613618 5.67461851 -7 1 C-6.34 1 -5.68 1 -5 1 C-5 1.66 -5 2.32 -5 3 C-4.34 3 -3.68 3 -3 3 C-3 2.34 -3 1.68 -3 1 C-1 0 -1 0 0 0 Z " fill="#262624" transform="translate(304,194)"/>
<path d="M0 0 C0.73605469 0.05220703 1.47210938 0.10441406 2.23046875 0.15820312 C4.02910629 0.28667723 5.82712909 0.42370949 7.625 0.5625 C7.625 1.2225 7.625 1.8825 7.625 2.5625 C4.33340684 2.62040353 1.04194397 2.65606261 -2.25 2.6875 C-3.65572266 2.71263672 -3.65572266 2.71263672 -5.08984375 2.73828125 C-6.43369141 2.74794922 -6.43369141 2.74794922 -7.8046875 2.7578125 C-8.63210449 2.76828613 -9.45952148 2.77875977 -10.31201172 2.78955078 C-12.375 2.5625 -12.375 2.5625 -14.375 0.5625 C-9.42149325 -0.49226879 -4.99660651 -0.39304228 0 0 Z " fill="#F8C916" transform="translate(244.375,72.4375)"/>
<path d="M0 0 C2.9719385 1.12451727 5.33440687 2.22293791 8 4 C6.72949419 6.54101161 6.27857844 6.8452342 3.75 8.25 C1 9 1 9 -1.8125 7.625 C-2.534375 7.08875 -3.25625 6.5525 -4 6 C-3.01 5.34 -2.02 4.68 -1 4 C-1 4.66 -1 5.32 -1 6 C-0.01 5.67 0.98 5.34 2 5 C1.01 4.01 0.02 3.02 -1 2 C-0.67 1.34 -0.34 0.68 0 0 Z " fill="#303030" transform="translate(103,268)"/>
<path d="M0 0 C-3.625 5.875 -3.625 5.875 -7 7 C-9 5 -9 5 -9.125 2.375 C-9.08375 1.59125 -9.0425 0.8075 -9 0 C-5.67465243 -1.10844919 -3.37817425 -0.84454356 0 0 Z " fill="#1E1E1E" transform="translate(217,157)"/>
<path d="M0 0 C3.60955034 0.93848309 6.6347525 1.80571942 9.9375 3.5625 C13.7358544 5.34540104 16.83415208 5.64087518 21 6 C20.67 6.66 20.34 7.32 20 8 C17.36 8 14.72 8 12 8 C12 7.34 12 6.68 12 6 C11.2575 5.855625 10.515 5.71125 9.75 5.5625 C7.47972261 5.09812508 5.24240521 4.58136431 3 4 C3 3.34 3 2.68 3 2 C2.01 2 1.02 2 0 2 C0 1.34 0 0.68 0 0 Z " fill="#FEF7C1" transform="translate(265,135)"/>
<path d="M0 0 C0.33 0.99 0.66 1.98 1 3 C0.01 4.485 0.01 4.485 -1 6 C-0.34 6 0.32 6 1 6 C1.33 5.34 1.66 4.68 2 4 C1.39305845 7.15330554 0.3583335 9.18888867 -1.5625 11.75 C-2.24505859 12.67039062 -2.24505859 12.67039062 -2.94140625 13.609375 C-3.46541016 14.29773438 -3.46541016 14.29773438 -4 15 C-5.1796875 13.359375 -5.1796875 13.359375 -6 11 C-4.8828125 8.203125 -4.8828125 8.203125 -3.125 5.25 C-2.55007813 4.26515625 -1.97515625 3.2803125 -1.3828125 2.265625 C-0.92648437 1.51796875 -0.47015625 0.7703125 0 0 Z " fill="#2C2C2B" transform="translate(330,269)"/>
<path d="M0 0 C3.88014936 1.52059907 5.73906562 3.86078531 8.25 7.125 C8.95640625 8.03507812 9.6628125 8.94515625 10.390625 9.8828125 C11.18726563 10.93082031 11.18726563 10.93082031 12 12 C11.67 12.66 11.34 13.32 11 14 C8.5625 12.8125 8.5625 12.8125 6 11 C5.1875 8.3125 5.1875 8.3125 5 6 C3.68 5.67 2.36 5.34 1 5 C0.67 3.35 0.34 1.7 0 0 Z " fill="#F2D236" transform="translate(336,42)"/>
<path d="M0 0 C0.91574833 3.0906506 1.40198406 5.78412751 1 9 C-0.4375 11.3125 -0.4375 11.3125 -3 13 C-6.03011243 13.32856641 -8.96522997 13.23344385 -12 13 C-12 12.67 -12 12.34 -12 12 C-9.69 12 -7.38 12 -5 12 C-5 11.34 -5 10.68 -5 10 C-4.34 10 -3.68 10 -3 10 C-2.86722656 9.36191406 -2.73445313 8.72382813 -2.59765625 8.06640625 C-2.42105469 7.24011719 -2.24445313 6.41382813 -2.0625 5.5625 C-1.88847656 4.73878906 -1.71445312 3.91507813 -1.53515625 3.06640625 C-1 1 -1 1 0 0 Z " fill="#FCF1B2" transform="translate(363,164)"/>
<path d="M0 0 C0.99 0.66 1.98 1.32 3 2 C1.125 5.875 1.125 5.875 0 7 C-2.9375 7.1875 -2.9375 7.1875 -6 7 C-6.66 6.34 -7.32 5.68 -8 5 C-3.375 2 -3.375 2 0 2 C0 1.34 0 0.68 0 0 Z " fill="#F0F0F0" transform="translate(219,120)"/>
<path d="M0 0 C0.66 0.33 1.32 0.66 2 1 C1.1875 3.9375 1.1875 3.9375 0 7 C-0.99 7.33 -1.98 7.66 -3 8 C-3.73323796 10.01508358 -3.73323796 10.01508358 -4 12 C-5.32 12 -6.64 12 -8 12 C-6.49087042 7.01987239 -3.44338151 3.75740058 0 0 Z " fill="#F7CE38" transform="translate(233,36)"/>
<path d="M0 0 C0.66 2.31 1.32 4.62 2 7 C-0.475 8.485 -0.475 8.485 -3 10 C-3.66 9.34 -4.32 8.68 -5 8 C-4.70630173 6.65737935 -4.3721042 5.32303717 -4 4 C-4.33 3.34 -4.66 2.68 -5 2 C-2 0 -2 0 0 0 Z " fill="#2E2E2C" transform="translate(208,157)"/>
<path d="M0 0 C0.66 0.33 1.32 0.66 2 1 C2 3.31 2 5.62 2 8 C1.38125 8.28875 0.7625 8.5775 0.125 8.875 C-2.13325765 9.93720042 -2.13325765 9.93720042 -4 12 C-3.67 8.7 -3.34 5.4 -3 2 C-2.34 2 -1.68 2 -1 2 C-0.67 1.34 -0.34 0.68 0 0 Z " fill="#1B1B1B" transform="translate(128,130)"/>
<path d="M0 0 C2.54414039 2.21229599 3.54746847 3.65126671 4 7 C4.36887441 12.71755337 4.02463542 15.95894097 1 21 C0.67 21 0.34 21 0 21 C0 19.35 0 17.7 0 16 C0.66 16 1.32 16 2 16 C2 12.04 2 8.08 2 4 C1.34 4 0.68 4 0 4 C0 2.68 0 1.36 0 0 Z " fill="#FEF5B8" transform="translate(331,113)"/>
<path d="M0 0 C0.90492188 0.02320313 1.80984375 0.04640625 2.7421875 0.0703125 C4.10730469 0.09738281 4.10730469 0.09738281 5.5 0.125 C6.19867188 0.14820313 6.89734375 0.17140625 7.6171875 0.1953125 C7.6171875 3.1953125 7.6171875 3.1953125 6.3671875 4.8203125 C4.44303234 6.3321487 3.00729332 6.78322529 0.6171875 7.1953125 C0.9471875 5.8753125 1.2771875 4.5553125 1.6171875 3.1953125 C-1.3528125 2.7003125 -1.3528125 2.7003125 -4.3828125 2.1953125 C-2.3828125 0.1953125 -2.3828125 0.1953125 0 0 Z " fill="#2C2C2C" transform="translate(213.3828125,154.8046875)"/>
<path d="M0 0 C0.99 0 1.98 0 3 0 C2.67 1.65 2.34 3.3 2 5 C1.34 5 0.68 5 0 5 C0.99 6.32 1.98 7.64 3 9 C2.34 10.32 1.68 11.64 1 13 C0.34 12.01 -0.32 11.02 -1 10 C-1.99 10.495 -1.99 10.495 -3 11 C-3.2025236 7.35457517 -2.84727108 5.15122713 -1 2 C-0.67 1.34 -0.34 0.68 0 0 Z " fill="#171715" transform="translate(109,165)"/>
<path d="M0 0 C2 2 2 2 2.046875 3.91015625 C1.94890625 4.62042969 1.8509375 5.33070313 1.75 6.0625 C1.61851563 7.13177734 1.61851563 7.13177734 1.484375 8.22265625 C1.24460937 9.10244141 1.24460937 9.10244141 1 10 C0.01 10.495 0.01 10.495 -1 11 C-2.13350534 13.01669827 -2.13350534 13.01669827 -3 15 C-4.43410153 11.21180727 -3.51009497 8.93478721 -2.0625 5.25 C-1.49208984 3.77273437 -1.49208984 3.77273437 -0.91015625 2.265625 C-0.60980469 1.51796875 -0.30945313 0.7703125 0 0 Z " fill="#31312F" transform="translate(110,157)"/>
<path d="M0 0 C3.50397398 0.3503974 4.4908668 1.10322699 7.125 3.3125 C8.77297236 4.02412443 10.43665408 4.70281953 12.125 5.3125 C12.125 5.9725 12.125 6.6325 12.125 7.3125 C11.135 7.3125 10.145 7.3125 9.125 7.3125 C9.125 6.6525 9.125 5.9925 9.125 5.3125 C6.815 5.3125 4.505 5.3125 2.125 5.3125 C1.795 4.3225 1.465 3.3325 1.125 2.3125 C-0.855 2.3125 -2.835 2.3125 -4.875 2.3125 C-2.875 0.3125 -2.875 0.3125 0 0 Z " fill="#F4D03C" transform="translate(301.875,15.6875)"/>
<path d="M0 0 C2.3125 -0.25 2.3125 -0.25 5 0 C6.8125 1.75 6.8125 1.75 8 4 C8 5.32 8 6.64 8 8 C7.34 8 6.68 8 6 8 C5.67 8.66 5.34 9.32 5 10 C4.67 8.02 4.34 6.04 4 4 C3.34 4 2.68 4 2 4 C2 3.01 2 2.02 2 1 C1.34 0.67 0.68 0.34 0 0 Z " fill="#1E1E1E" transform="translate(112,333)"/>
<path d="M0 0 C2.74792483 3.40219265 6 7.48464588 6 12 C5.01 12.33 4.02 12.66 3 13 C2.67 11.35 2.34 9.7 2 8 C1.34 8 0.68 8 0 8 C0 5.36 0 2.72 0 0 Z M1 12 C1.66 12.66 2.32 13.32 3 14 C2.34 14 1.68 14 1 14 C1 13.34 1 12.68 1 12 Z " fill="#31312F" transform="translate(268,177)"/>
<path d="M0 0 C0.33 0.66 0.66 1.32 1 2 C0.67 2.66 0.34 3.32 0 4 C-0.04022391 6.3329866 -0.04320247 8.66706666 0 11 C-0.99 11.495 -0.99 11.495 -2 12 C-2.33 11.67 -2.66 11.34 -3 11 C-3 11.66 -3 12.32 -3 13 C-3.66 13 -4.32 13 -5 13 C-5 13.66 -5 14.32 -5 15 C-5.66 15 -6.32 15 -7 15 C-5.45454854 9.52067211 -2.84456788 4.88570819 0 0 Z " fill="#2F2F2D" transform="translate(118,142)"/>
<path d="M0 0 C1.71355038 5.14065113 0.06320331 9.18585895 -2 14 C-2.66 13.34 -3.32 12.68 -4 12 C-3.62793814 7.65927829 -1.77048085 3.92584885 0 0 Z " fill="#353534" transform="translate(323,283)"/>
<path d="M0 0 C0.66 0 1.32 0 2 0 C1.67 1.32 1.34 2.64 1 4 C0.34 4 -0.32 4 -1 4 C-1 4.66 -1 5.32 -1 6 C-8.38461538 6.36923077 -8.38461538 6.36923077 -11.5 4.5 C-11.995 4.005 -12.49 3.51 -13 3 C-9.535 2.505 -9.535 2.505 -6 2 C-6 2.66 -6 3.32 -6 4 C-5.01 4.33 -4.02 4.66 -3 5 C-3 4.01 -3 3.02 -3 2 C-2.01 2 -1.02 2 0 2 C0 1.34 0 0.68 0 0 Z " fill="#F2CA25" transform="translate(359,170)"/>
<path d="M0 0 C0.33 1.98 0.66 3.96 1 6 C-0.98 6.99 -0.98 6.99 -3 8 C-4.5 6.625 -4.5 6.625 -6 5 C-6 4.34 -6 3.68 -6 3 C-2.53846154 0 -2.53846154 0 0 0 Z " fill="#1A1A19" transform="translate(153,106)"/>
<path d="M0 0 C0.433125 0.495 0.86625 0.99 1.3125 1.5 C2.99740483 3.33218192 2.99740483 3.33218192 6 3 C6.33 3.66 6.66 4.32 7 5 C4.525 6.485 4.525 6.485 2 8 C1.34 7.34 0.68 6.68 0 6 C0.375 3.875 0.375 3.875 1 2 C-0.32 2.99 -1.64 3.98 -3 5 C-3.66 4.67 -4.32 4.34 -5 4 C-3.35 2.68 -1.7 1.36 0 0 Z " fill="#31312F" transform="translate(152,104)"/>
<path d="M0 0 C0.99 0.33 1.98 0.66 3 1 C3.33 0.67 3.66 0.34 4 0 C5.66617115 -0.04063832 7.33388095 -0.042721 9 0 C9.33 0.66 9.66 1.32 10 2 C8.35 2.33 6.7 2.66 5 3 C5.33 3.66 5.66 4.32 6 5 C2.625 5.125 2.625 5.125 -1 5 C-1.66 4.34 -2.32 3.68 -3 3 C-2.01 2.67 -1.02 2.34 0 2 C0 1.34 0 0.68 0 0 Z " fill="#191918" transform="translate(286,153)"/>
<path d="M0 0 C2.125 0.9375 2.125 0.9375 4 2 C3.67 3.65 3.34 5.3 3 7 C2.01 7.33 1.02 7.66 0 8 C0 7.01 0 6.02 0 5 C-0.99 4.67 -1.98 4.34 -3 4 C-2.67 3.01 -2.34 2.02 -2 1 C-1.34 0.67 -0.68 0.34 0 0 Z " fill="#1E1E1E" transform="translate(139,117)"/>
<path d="M0 0 C2.4178712 -0.10826289 4.83087556 -0.18739789 7.25 -0.25 C8.27287109 -0.30027344 8.27287109 -0.30027344 9.31640625 -0.3515625 C12.92181813 -0.4215705 14.64068812 -0.29151719 17.484375 2.015625 C17.98453125 2.67046875 18.4846875 3.3253125 19 4 C16 4 16 4 13.4375 3.0625 C8.99058005 1.68799747 4.62518034 1.34734556 0 1 C0 0.67 0 0.34 0 0 Z " fill="#F4CF3B" transform="translate(304,101)"/>
<path d="M0 0 C0.99 0.33 1.98 0.66 3 1 C2.67 3.31 2.34 5.62 2 8 C-0.62901288 6.47793991 -2.84365964 5.15634036 -5 3 C-2.6875 1.4375 -2.6875 1.4375 0 0 Z " fill="#2C2C2B" transform="translate(186,119)"/>
<path d="M0 0 C0 0.99 0 1.98 0 3 C-1.32 3.33 -2.64 3.66 -4 4 C-4 3.01 -4 2.02 -4 1 C-4.99 1.495 -4.99 1.495 -6 2 C-6.33 2.99 -6.66 3.98 -7 5 C-6.34 5.33 -5.68 5.66 -5 6 C-6.65 6 -8.3 6 -10 6 C-10 5.34 -10 4.68 -10 4 C-9.34 4 -8.68 4 -8 4 C-7.67 2.68 -7.34 1.36 -7 0 C-3.98968256 -0.93423645 -3.13349732 -1.04449911 0 0 Z " fill="#F6C913" transform="translate(304,18)"/>
<path d="M0 0 C0.66 0.33 1.32 0.66 2 1 C2 4 2 4 1 7 C0.34 7 -0.32 7 -1 7 C-1 7.66 -1 8.32 -1 9 C-1.66 9 -2.32 9 -3 9 C-3.75 7.3125 -3.75 7.3125 -4 5 C-2.0625 2.25 -2.0625 2.25 0 0 Z " fill="#181817" transform="translate(302,188)"/>
<path d="M0 0 C-0.66 3.3 -1.32 6.6 -2 10 C-5 7 -5 7 -5.375 4.4375 C-5.25125 3.633125 -5.1275 2.82875 -5 2 C-2 0 -2 0 0 0 Z " fill="#1C1C1B" transform="translate(274,189)"/>
<path d="M0 0 C1.32 0.33 2.64 0.66 4 1 C2.68775452 4.93673644 1.08089673 7.22719294 -2 10 C-2 8.02 -2 6.04 -2 4 C-1.34 4 -0.68 4 0 4 C0 2.68 0 1.36 0 0 Z " fill="#1C1C1C" transform="translate(263,167)"/>
<path d="M0 0 C2.56687367 3.8503105 1.83288724 5.58569763 1 10 C0.34 10 -0.32 10 -1 10 C-1.66 11.32 -2.32 12.64 -3 14 C-3.29341888 8.32723489 -3.00559652 5.00932754 0 0 Z " fill="#4E4E4E" transform="translate(263,162)"/>
<path d="M0 0 C0.99 0 1.98 0 3 0 C3 0.66 3 1.32 3 2 C4.32 2.33 5.64 2.66 7 3 C7 3.33 7 3.66 7 4 C5.35 4 3.7 4 2 4 C2 4.66 2 5.32 2 6 C0.02 6.33 -1.96 6.66 -4 7 C-3.34 6.67 -2.68 6.34 -2 6 C-2 5.34 -2 4.68 -2 4 C-1.34 4 -0.68 4 0 4 C0 2.68 0 1.36 0 0 Z " fill="#F8C818" transform="translate(302,97)"/>
<path d="M0 0 C2.0625 0.4375 2.0625 0.4375 4 1 C4 1.66 4 2.32 4 3 C1.25 4.625 1.25 4.625 -2 6 C-4.375 5.1875 -4.375 5.1875 -6 4 C-5.67 3.34 -5.34 2.68 -5 2 C-3.67696283 1.6278958 -2.34262065 1.29369827 -1 1 C-0.67 0.67 -0.34 0.34 0 0 Z " fill="#191918" transform="translate(178,90)"/>
<path d="M0 0 C0.99 0.33 1.98 0.66 3 1 C2 4 2 4 0 6 C-0.33 6.66 -0.66 7.32 -1 8 C-2.65 7.01 -4.3 6.02 -6 5 C-4.6875 3.5 -4.6875 3.5 -3 2 C-2.01 2 -1.02 2 0 2 C0 1.34 0 0.68 0 0 Z " fill="#2B2B2A" transform="translate(93,262)"/>
<path d="M0 0 C0.33 0 0.66 0 1 0 C0.58669586 5.99291003 -0.31903365 9.25036599 -4 14 C-5.06528748 11.26980214 -5.07998186 10.20701188 -4.00390625 7.421875 C-3.52824219 6.54015625 -3.05257813 5.6584375 -2.5625 4.75 C-2.08941406 3.85796875 -1.61632812 2.9659375 -1.12890625 2.046875 C-0.75636719 1.37140625 -0.38382812 0.6959375 0 0 Z " fill="#333332" transform="translate(302,181)"/>
<path d="M0 0 C0.66 0 1.32 0 2 0 C2.33 1.65 2.66 3.3 3 5 C2.38125 5.103125 1.7625 5.20625 1.125 5.3125 C-1.36526484 5.87525373 -1.36526484 5.87525373 -3 9 C-3.625 7.1875 -3.625 7.1875 -4 5 C-2 2 -2 2 0 0 Z " fill="#2C2C2C" transform="translate(178,151)"/>
<path d="M0 0 C0.61875 0.144375 1.2375 0.28875 1.875 0.4375 C6.22537017 1.22056663 10.60021907 1.59846659 15 2 C14.67 2.66 14.34 3.32 14 4 C8.32723489 4.29341888 5.00932754 4.00559652 0 1 C0 0.67 0 0.34 0 0 Z " fill="#F0CD38" transform="translate(272,137)"/>
<path d="M0 0 C-8.3314121 3.38904899 -8.3314121 3.38904899 -13 3 C-14.32 3 -15.64 3 -17 3 C-14.08149788 1.05433192 -12.42377152 0.4847543 -9.0625 -0.1875 C-8.20785156 -0.36667969 -7.35320312 -0.54585938 -6.47265625 -0.73046875 C-3.98865141 -1.00123705 -2.35550498 -0.77059444 0 0 Z " fill="#3F3F3D" transform="translate(208,82)"/>
<path d="M0 0 C2 2 2 2 2.125 5.625 C2.08375 6.73875 2.0425 7.8525 2 9 C2.66 9 3.32 9 4 9 C4.33 10.65 4.66 12.3 5 14 C4.01 14.33 3.02 14.66 2 15 C1.855625 14.38125 1.71125 13.7625 1.5625 13.125 C1.06847775 10.96741678 1.06847775 10.96741678 0 9 C0 7.33333333 0 5.66666667 0 4 C-0.33 3.34 -0.66 2.68 -1 2 C-0.67 1.34 -0.34 0.68 0 0 Z " fill="#181816" transform="translate(266,176)"/>
<path d="M0 0 C0.99 0 1.98 0 3 0 C2.52651586 4.1666604 1.95303159 6.92884715 -1 10 C-1.66 10 -2.32 10 -3 10 C-2.01 6.7 -1.02 3.4 0 0 Z " fill="#F2CE28" transform="translate(260,90)"/>
<path d="M0 0 C1.32 0 2.64 0 4 0 C4 4.29 4 8.58 4 13 C1.12420019 8.68630028 0 5.19265239 0 0 Z " fill="#FDF9D2" transform="translate(362,80)"/>
<path d="M0 0 C1.32 0.33 2.64 0.66 4 1 C4 1.99 4 2.98 4 4 C4.804375 4.226875 5.60875 4.45375 6.4375 4.6875 C7.283125 5.120625 8.12875 5.55375 9 6 C9.8125 8.625 9.8125 8.625 10 11 C5.86062408 7.69984002 2.41337795 4.82675589 0 0 Z " fill="#FDF4BB" transform="translate(334,38)"/>
<path d="M0 0 C0.99 0.66 1.98 1.32 3 2 C4.32 1.34 5.64 0.68 7 0 C7.33 1.32 7.66 2.64 8 4 C6.02 4.99 6.02 4.99 4 6 C4 5.34 4 4.68 4 4 C2.68 4 1.36 4 0 4 C-0.66 3.34 -1.32 2.68 -2 2 C-1.34 1.34 -0.68 0.68 0 0 Z " fill="#30302F" transform="translate(139,115)"/>
<path d="M0 0 C2.97 0.99 5.94 1.98 9 3 C9 3.66 9 4.32 9 5 C6.36 5 3.72 5 1 5 C0.67 3.35 0.34 1.7 0 0 Z " fill="#FCF6CC" transform="translate(323,163)"/>
<path d="M0 0 C0.66 0.99 1.32 1.98 2 3 C2.53625 3.515625 3.0725 4.03125 3.625 4.5625 C5 6 5 6 5 8 C3.68 8.33 2.36 8.66 1 9 C-0.61949011 6.42786866 -1.04408751 5.32330841 -0.625 2.25 C-0.41875 1.5075 -0.2125 0.765 0 0 Z " fill="#363636" transform="translate(172,390)"/>
<path d="M0 0 C2.5654594 2.5654594 2.54046087 4.47686668 3 8 C1.02 8.66 -0.96 9.32 -3 10 C-2.67 7.69 -2.34 5.38 -2 3 C-1.34 3.66 -0.68 4.32 0 5 C0 3.35 0 1.7 0 0 Z " fill="#181816" transform="translate(108,312)"/>
<path d="M0 0 C0.66 0 1.32 0 2 0 C2 0.99 2 1.98 2 3 C3.98 3 5.96 3 8 3 C7 5 7 5 5.15234375 5.6328125 C4.05599609 5.87644531 4.05599609 5.87644531 2.9375 6.125 C2.20402344 6.29257813 1.47054687 6.46015625 0.71484375 6.6328125 C0.14894531 6.75398438 -0.41695312 6.87515625 -1 7 C-1.04254356 5.00045254 -1.04080783 2.99958364 -1 1 C-0.67 0.67 -0.34 0.34 0 0 Z " fill="#1A1A18" transform="translate(189,119)"/>
<path d="M0 0 C0 0.99 0 1.98 0 3 C-1.093125 3.12375 -2.18625 3.2475 -3.3125 3.375 C-7.07381802 3.75464801 -7.07381802 3.75464801 -10 6 C-10.66 5.34 -11.32 4.68 -12 4 C-10.56570999 3.32645501 -9.12742943 2.66140299 -7.6875 2 C-6.88699219 1.62875 -6.08648437 1.2575 -5.26171875 0.875 C-3 0 -3 0 0 0 Z " fill="#3A3A3A" transform="translate(185,87)"/>
<path d="M0 0 C4.95 0 9.9 0 15 0 C15 0.33 15 0.66 15 1 C13.35 1 11.7 1 10 1 C10 1.66 10 2.32 10 3 C5.06071112 3.3367697 4.21507278 3.16130459 0 0 Z " fill="#393937" transform="translate(208,80)"/>
<path d="M0 0 C0.66 0 1.32 0 2 0 C1.67 1.98 1.34 3.96 1 6 C0.01 6 -0.98 6 -2 6 C-2.33 7.32 -2.66 8.64 -3 10 C-3 7.36 -3 4.72 -3 2 C-2.01 2 -1.02 2 0 2 C0 1.34 0 0.68 0 0 Z " fill="#F9FBE8" transform="translate(223,46)"/>
<path d="M0 0 C2.46800047 1.15173355 4.04783565 2.04783565 6 4 C5.21625 4.28875 4.4325 4.5775 3.625 4.875 C0.90328368 5.84912254 0.90328368 5.84912254 -1 8 C-1.33 7.34 -1.66 6.68 -2 6 C-1.67 5.34 -1.34 4.68 -1 4 C-0.34 4 0.32 4 1 4 C1 3.34 1 2.68 1 2 C0.34 1.67 -0.32 1.34 -1 1 C-0.67 0.67 -0.34 0.34 0 0 Z " fill="#292929" transform="translate(119,337)"/>
<path d="M0 0 C0.66 0.66 1.32 1.32 2 2 C1.96712417 4.72869407 1.43602229 7.2966618 1 10 C-0.5 8.875 -0.5 8.875 -2 7 C-2.1875 3.8125 -2.1875 3.8125 -2 1 C-1.34 0.67 -0.68 0.34 0 0 Z " fill="#1A1A19" transform="translate(87,252)"/>
<path d="M0 0 C0.66 0.33 1.32 0.66 2 1 C2 3 2 3 0.8125 4.625 C-1.55560662 6.42149467 -3.09897251 6.23521845 -6 6 C-2.25 1.125 -2.25 1.125 0 0 Z " fill="#2F2F2F" transform="translate(270,156)"/>
<path d="M0 0 C0.99 0.33 1.98 0.66 3 1 C1.76302083 2.46484375 0.52604167 3.9296875 -0.7109375 5.39453125 C-1.89201099 6.8655046 -2.95358529 8.43037794 -4 10 C-3.51171875 3.9453125 -3.51171875 3.9453125 -3 2 C-2.01 1.34 -1.02 0.68 0 0 Z " fill="#F0CB22" transform="translate(295,104)"/>
<path d="M0 0 C2.6486859 3.19668988 4.93992341 6.39486597 7 10 C2.37837838 8.54054054 2.37837838 8.54054054 0.6875 6.125 C0 4 0 4 0 0 Z " fill="#FBEF9F" transform="translate(223,64)"/>
<path d="M0 0 C0.99 0 1.98 0 3 0 C3 0.99 3 1.98 3 3 C2.01 3 1.02 3 0 3 C0 3.66 0 4.32 0 5 C-0.66 5 -1.32 5 -2 5 C-2 5.66 -2 6.32 -2 7 C-2.66 7 -3.32 7 -4 7 C-2.92598892 4.08482708 -2.22189824 2.22189824 0 0 Z " fill="#F5C920" transform="translate(285,43)"/>
<path d="M0 0 C6.625 -0.25 6.625 -0.25 10 2 C9 3 9 3 5.5625 3.25 C4.386875 3.1675 3.21125 3.085 2 3 C1.34 2.01 0.68 1.02 0 0 Z " fill="#2D2D2C" transform="translate(301,206)"/>
<path d="M0 0 C5.625 -0.25 5.625 -0.25 9 2 C9 2.66 9 3.32 9 4 C7.02 4.33 5.04 4.66 3 5 C3.33 4.01 3.66 3.02 4 2 C2.68 1.34 1.36 0.68 0 0 Z " fill="#CECECE" transform="translate(213,162)"/>
<path d="M0 0 C1.32 0.66 2.64 1.32 4 2 C1.03 3.32 -1.94 4.64 -5 6 C-5.33 4.68 -5.66 3.36 -6 2 C-4.02 2 -2.04 2 0 2 C0 1.34 0 0.68 0 0 Z " fill="#323232" transform="translate(277,158)"/>
<path d="M0 0 C1.68762851 1.6454378 3.3540349 3.31288577 5 5 C5 5.33 5 5.66 5 6 C3.35 6 1.7 6 0 6 C-1 3 -1 3 0 0 Z " fill="#343433" transform="translate(181,156)"/>
<path d="M0 0 C0.99 0.66 1.98 1.32 3 2 C3 2.66 3 3.32 3 4 C1.02 4.33 -0.96 4.66 -3 5 C-3.66 4.01 -4.32 3.02 -5 2 C-2.6875 0.875 -2.6875 0.875 0 0 Z " fill="#181817" transform="translate(145,113)"/>
<path d="M0 0 C2 3 2 3 2 5 C0.37373596 6.38232443 -1.2925002 7.71937515 -3 9 C-3.33 7.68 -3.66 6.36 -4 5 C-3.01 4.34 -2.02 3.68 -1 3 C-0.67 2.01 -0.34 1.02 0 0 Z " fill="#171716" transform="translate(332,273)"/>
<path d="M0 0 C0.99 0.66 1.98 1.32 3 2 C2.67 3.32 2.34 4.64 2 6 C0.35 5.67 -1.3 5.34 -3 5 C-2.505 4.54625 -2.01 4.0925 -1.5 3.625 C0.22609337 2.12364481 0.22609337 2.12364481 0 0 Z " fill="#1A1A18" transform="translate(108,272)"/>
<path d="M0 0 C1.32 1.32 2.64 2.64 4 4 C3.67 4.66 3.34 5.32 3 6 C2.01 6 1.02 6 0 6 C-1.125 2.25 -1.125 2.25 0 0 Z " fill="#181817" transform="translate(179,125)"/>
<path d="M0 0 C1.6875 1.5625 1.6875 1.5625 3 3 C-3.625 3.25 -3.625 3.25 -7 1 C-3.375 -1.125 -3.375 -1.125 0 0 Z " fill="#323232" transform="translate(211,85)"/>
<path d="M0 0 C3 0 3 0 5 1 C4.67 2.32 4.34 3.64 4 5 C1.525 4.01 1.525 4.01 -1 3 C-0.67 2.01 -0.34 1.02 0 0 Z " fill="#191918" transform="translate(108,324)"/>
<path d="M0 0 C0.99 0.99 1.98 1.98 3 3 C1.68 3.99 0.36 4.98 -1 6 C-1.66 4.68 -2.32 3.36 -3 2 C-2.01 1.34 -1.02 0.68 0 0 Z " fill="#1A1A19" transform="translate(95,265)"/>
<path d="M0 0 C2.4375 0.75 2.4375 0.75 5 2 C5.8125 4.125 5.8125 4.125 6 6 C3.53199953 4.84826645 1.95216435 3.95216435 0 2 C0 1.34 0 0.68 0 0 Z " fill="#FBECA0" transform="translate(323,106)"/>
<path d="M0 0 C0 0.99 0 1.98 0 3 C-2.5 5.1875 -2.5 5.1875 -5 7 C-5.66 5.68 -6.32 4.36 -7 3 C-5.5459375 2.5359375 -5.5459375 2.5359375 -4.0625 2.0625 C-1.15934208 1.30476658 -1.15934208 1.30476658 0 0 Z " fill="#171717" transform="translate(160,101)"/>
<path d="M0 0 C2 1 2 1 2.8515625 3.06640625 C3.10679687 3.89011719 3.36203125 4.71382813 3.625 5.5625 C3.88539063 6.38878906 4.14578125 7.21507813 4.4140625 8.06640625 C4.60742188 8.70449219 4.80078125 9.34257813 5 10 C4.34 10 3.68 10 3 10 C3 9.34 3 8.68 3 8 C2.34 8 1.68 8 1 8 C0.67 5.36 0.34 2.72 0 0 Z " fill="#F2D13D" transform="translate(354,66)"/>
<path d="M0 0 C0 0.66 0 1.32 0 2 C1.32 2.33 2.64 2.66 4 3 C2.02 3.33 0.04 3.66 -2 4 C-2 3.34 -2 2.68 -2 2 C-3.32 2.33 -4.64 2.66 -6 3 C-3.375 0 -3.375 0 0 0 Z " fill="#F8C80F" transform="translate(240,35)"/>
<path d="M0 0 C3.875 1.75 3.875 1.75 5 4 C3.02 4.33 1.04 4.66 -1 5 C-0.67 3.35 -0.34 1.7 0 0 Z " fill="#F4CD2A" transform="translate(326,32)"/>
<path d="M0 0 C0.33 0 0.66 0 1 0 C1 1.65 1 3.3 1 5 C1.66 5 2.32 5 3 5 C2.67 5.99 2.34 6.98 2 8 C1.01 8.33 0.02 8.66 -1 9 C-0.67 6.03 -0.34 3.06 0 0 Z " fill="#313131" transform="translate(105,171)"/>
<path d="M0 0 C0.66 0 1.32 0 2 0 C0.7508258 3.45925163 -0.67527795 6.14693203 -3 9 C-3 7.35 -3 5.7 -3 4 C-2.01 3.67 -1.02 3.34 0 3 C0 2.01 0 1.02 0 0 Z " fill="#343433" transform="translate(122,146)"/>
<path d="M0 0 C0 0.99 0 1.98 0 3 C-2.31 2.67 -4.62 2.34 -7 2 C-7 1.34 -7 0.68 -7 0 C-4.3333581 -1.33332095 -2.83319697 -0.67102033 0 0 Z " fill="#1A1A19" transform="translate(218,128)"/>
<path d="M0 0 C1.9375 0.75 1.9375 0.75 4 2 C4.75 4.125 4.75 4.125 5 6 C3.68 5.67 2.36 5.34 1 5 C0.67 3.35 0.34 1.7 0 0 Z " fill="#F4CF23" transform="translate(336,42)"/>
<path d="M0 0 C1.65 1.32 3.3 2.64 5 4 C4.67 4.66 4.34 5.32 4 6 C3.01 5.67 2.02 5.34 1 5 C0.67 3.35 0.34 1.7 0 0 Z M0 5 C0.66 5.66 1.32 6.32 2 7 C1.01 7.495 1.01 7.495 0 8 C0 7.01 0 6.02 0 5 Z " fill="#F6CD2A" transform="translate(331,36)"/>
</svg>
